<svg xmlns="http://www.w3.org/2000/svg" width="2000" height="2000" viewBox="0 0 2000 2000">
  <g>
    <path d="M173.515,1450.866H1842.747S2051.1,967.743,1529.239,946.1,1311.832,642.5,984.884,543.511,560.853,673.924,525.958,751.978C468.967,879.458-27.453,877.958,173.515,1450.866Z" fill="#ebedfc"/>
    <g>
      <g>
        <path d="M263.116,1413.918c-.129,11.6-.795,22.448-1.61,31.62h-33.33a265.177,265.177,0,0,1-38.318-60.269,211.992,211.992,0,0,1-10.036-26,124.48,124.48,0,0,1-5.3-25.569c-.924-10.752.368-19.874,4.363-26.334,5.3-8.536,15.333-12.421,31.272-9.261a51.308,51.308,0,0,1,7.235,1.977v.01a47.47,47.47,0,0,1,9.39,4.452,52.7,52.7,0,0,1,12.66,11.011,78.9,78.9,0,0,1,13.008,22.806q.761,1.923,1.431,3.9a152.231,152.231,0,0,1,6.1,24.943c.129.785.258,1.57.377,2.365.149.973.288,1.957.418,2.941a265.824,265.824,0,0,1,2.275,30.348C263.136,1406.6,263.156,1410.3,263.116,1413.918Z" fill="#494e6d"/>
        <path d="M249.329,1445.673c-.629-2.239-1.3-4.57-2-6.992l-.191-.666c-2.6-8.976-5.251-17.826-7.877-26.305-2.154-6.951-4.356-13.835-6.546-20.461-3.154-9.516-6.107-18.025-9.028-26.011-3.971-10.866-7.869-20.727-11.586-29.308-7.49-17.305-14.477-29.953-20.766-37.593l.773-.635c6.348,7.712,13.384,20.44,20.911,37.831,3.725,8.6,7.63,18.477,11.607,29.362,2.925,8,5.881,16.513,9.038,26.04,2.192,6.632,4.4,13.522,6.552,20.48,2.628,8.483,5.279,17.34,7.883,26.322l.191.667c.7,2.425,1.368,4.758,2,7Z"/>
        <polygon points="256.898 1473.488 256.72 1472.815 257.687 1472.558 257.866 1473.236 256.898 1473.488"/>
        <polygon points="212.942 1336.703 178.125 1307.386 178.77 1306.621 212.195 1334.766 216.899 1300.019 217.891 1300.152 212.942 1336.703"/>
        <polygon points="224.451 1365.841 174.254 1334.13 174.788 1333.285 223.881 1364.298 239.219 1314.619 240.174 1314.914 224.451 1365.841"/>
        <polygon points="233.455 1391.826 179.559 1359.693 180.07 1358.833 232.929 1390.348 251.989 1338.174 252.929 1338.517 233.455 1391.826"/>
        <polygon points="239.953 1412.24 189.623 1385.709 190.089 1384.825 239.543 1410.893 260.342 1372.281 261.223 1372.755 239.953 1412.24"/>
        <polygon points="247.792 1438.517 207.43 1418.2 207.879 1417.307 247.458 1437.229 262.684 1414.802 263.511 1415.364 247.792 1438.517"/>
      </g>
      <g>
        <path d="M267.031,1409.764s-86.454-142.1-8.943-172.908S285.912,1390.883,267.031,1409.764Z" fill="#9fa3bf"/>
        <path d="M266.04,1409.341c-.058-.383-5.8-38.791-8.352-79.427-3.438-54.686.229-87.154,10.9-96.5l.659.752c-24.945,21.843-2.451,173.5-2.22,175.026Z"/>
        <polygon points="258.557 1263.027 248.198 1241.862 249.096 1241.423 258.828 1261.306 283.741 1235.469 284.46 1236.163 258.557 1263.027"/>
        <polygon points="256.878 1289.502 235.224 1254.188 236.076 1253.665 257.125 1287.992 296.947 1254.713 297.588 1255.481 256.878 1289.502"/>
        <polygon points="257.473 1319.013 226.082 1279.367 226.866 1278.746 257.635 1317.607 299.819 1284.101 300.441 1284.884 257.473 1319.013"/>
        <polygon points="259.457 1348.37 228.821 1318.669 229.518 1317.951 259.555 1347.073 295.991 1321.175 296.57 1321.99 259.457 1348.37"/>
        <polygon points="261.446 1369.404 235.712 1343.233 236.425 1342.532 261.559 1368.093 290.527 1347.315 291.11 1348.127 261.446 1369.404"/>
      </g>
      <g>
        <path d="M339.364,1382.605a132.636,132.636,0,0,1-8.774,22.946,148.782,148.782,0,0,1-28.49,39.987H252.721c-.377-2.981-.725-6.131-1-9.411v-.01c-.1-1.262-.2-2.553-.288-3.855-.9-13.545-.567-28.937,2.7-43.684v-.01c.139-.616.278-1.223.427-1.839.427-1.778.894-3.547,1.421-5.3a87.677,87.677,0,0,1,4.382-11.855c.2-.448.408-.9.626-1.352.12-.268.249-.527.378-.8.874-1.789,1.808-3.547,2.832-5.267a66.4,66.4,0,0,1,20.7-22.021,68.355,68.355,0,0,1,8.775-4.948,76.391,76.391,0,0,1,7.145-2.942,56.064,56.064,0,0,1,14.14-3.259c6.34-.537,11.528.556,15.632,2.931,5.376,3.111,8.894,8.437,10.712,15.254C343.846,1356.719,343.061,1369.17,339.364,1382.605Z" fill="#9fa3bf"/>
        <path d="M268,1445.706l-.942-.336c1.059-2.97,2.224-6.142,3.462-9.429,2.349-6.217,4.8-12.309,7.272-18.106,3.352-7.877,6.933-15.65,10.645-23.1a329.548,329.548,0,0,1,22.413-38.516,225.682,225.682,0,0,1,19.372-24.63l.738.675a224.78,224.78,0,0,0-19.285,24.52,328.54,328.54,0,0,0-22.343,38.4c-3.7,7.432-7.276,15.187-10.621,23.047-2.471,5.784-4.912,11.862-7.256,18.066C270.219,1439.575,269.056,1442.741,268,1445.706Z"/>
        <polygon points="310.652 1357.312 314.462 1328.924 315.454 1329.057 311.852 1355.888 341.151 1346.701 341.45 1347.655 310.652 1357.312"/>
        <polygon points="288.43 1395.589 284.397 1340.176 285.394 1340.104 289.341 1394.336 339.248 1382.123 339.485 1383.094 288.43 1395.589"/>
        <polygon points="270.654 1436.682 253.666 1388.733 254.608 1388.399 271.314 1435.551 316.953 1427.566 317.125 1428.552 270.654 1436.682"/>
        <polygon points="255.202 1445.731 251.218 1436.127 251.729 1436.123 252.179 1435.934 256.124 1445.345 255.202 1445.731"/>
        <polygon points="277.885 1418.628 263.712 1362.291 264.682 1362.046 278.613 1417.426 330.478 1405.068 330.709 1406.041 277.885 1418.628"/>
      </g>
    </g>
    <g>
      <g>
        <path d="M1662.888,1405c-.165,14.8-1.014,28.647-2.054,40.352H1618.3a338.419,338.419,0,0,1-48.9-76.912,270.367,270.367,0,0,1-12.808-33.174,158.922,158.922,0,0,1-6.759-32.63c-1.18-13.721.469-25.362,5.567-33.605,6.759-10.893,19.567-15.852,39.908-11.819a65.363,65.363,0,0,1,9.232,2.523v.013a60.568,60.568,0,0,1,11.984,5.681,67.268,67.268,0,0,1,16.156,14.051c6.937,8.2,12.377,18.109,16.6,29.1q.971,2.454,1.826,4.984a194.268,194.268,0,0,1,7.786,31.83c.165,1,.33,2,.482,3.018.19,1.243.368,2.5.533,3.754a339.235,339.235,0,0,1,2.9,38.729C1662.914,1395.668,1662.939,1400.385,1662.888,1405Z" fill="#494e6d"/>
        <path d="M1645.427,1445.489q-1.214-4.326-2.569-9.007l-.22-.768c-3.328-11.482-6.711-22.777-10.054-33.57-2.758-8.9-5.568-17.686-8.355-26.115-4.018-12.127-7.787-22.986-11.521-33.2-5.07-13.874-10.045-26.46-14.789-37.409-9.564-22.1-18.486-38.248-26.52-48.006l.772-.636c8.093,9.831,17.064,26.063,26.666,48.245,4.751,10.966,9.734,23.57,14.81,37.462,3.738,10.221,7.51,21.09,11.532,33.227,2.788,8.435,5.6,17.227,8.36,26.133,3.345,10.8,6.73,22.1,10.06,33.589l.22.769q1.347,4.686,2.571,9.012Z"/>
        <rect x="1654.957" y="1479.984" width="1" height="0.892" transform="translate(-324.844 475.135) rotate(-14.891)"/>
        <polygon points="1598.756 1306.197 1554.517 1268.946 1555.161 1268.181 1598.009 1304.26 1604.046 1259.668 1605.037 1259.802 1598.756 1306.197"/>
        <polygon points="1613.468 1343.436 1549.562 1303.065 1550.096 1302.219 1612.897 1341.893 1632.523 1278.322 1633.479 1278.617 1613.468 1343.436"/>
        <polygon points="1624.964 1376.605 1556.328 1335.684 1556.84 1334.825 1624.438 1375.127 1648.818 1308.389 1649.758 1308.732 1624.964 1376.605"/>
        <polygon points="1633.272 1402.674 1569.165 1368.881 1569.631 1367.997 1632.862 1401.328 1659.471 1351.932 1660.352 1352.407 1633.272 1402.674"/>
        <polygon points="1643.286 1436.216 1591.887 1410.343 1592.336 1409.45 1642.952 1434.928 1662.45 1406.208 1663.278 1406.77 1643.286 1436.216"/>
      </g>
      <g>
        <path d="M1667.885,1399.7s-110.328-181.343-11.414-220.655S1691.979,1375.606,1667.885,1399.7Z" fill="#494e6d"/>
        <path d="M1666.756,1399.141c-.074-.489-7.4-49.5-10.657-101.349-4.386-69.743.279-111.137,13.866-123.034l.658.752c-31.889,27.923-3.173,221.53-2.879,223.482Z"/>
        <polygon points="1657.107 1212.207 1643.975 1185.374 1644.873 1184.934 1657.379 1210.485 1689.308 1177.371 1690.028 1178.065 1657.107 1212.207"/>
        <polygon points="1654.962 1246.021 1654.66 1245.527 1627.412 1201.091 1628.264 1200.568 1655.21 1244.511 1706.15 1201.94 1706.791 1202.708 1654.962 1246.021"/>
        <polygon points="1655.709 1283.695 1615.736 1233.209 1616.52 1232.588 1655.871 1282.289 1709.813 1239.445 1710.435 1240.229 1655.709 1283.695"/>
        <polygon points="1658.231 1321.173 1657.934 1320.884 1619.22 1283.351 1619.915 1282.633 1658.331 1319.876 1704.921 1286.761 1705.501 1287.576 1658.231 1321.173"/>
        <polygon points="1660.772 1348.015 1628.016 1314.701 1628.729 1314 1660.886 1346.703 1697.95 1320.119 1698.532 1320.931 1660.772 1348.015"/>
      </g>
      <g>
        <path d="M1760.192,1365.042a169.213,169.213,0,0,1-11.2,29.282,189.827,189.827,0,0,1-36.357,51.029h-63.014c-.482-3.8-.925-7.824-1.28-12.009v-.013c-.127-1.61-.254-3.259-.368-4.92-1.141-17.285-.723-36.928,3.449-55.747v-.013c.178-.786.355-1.56.545-2.346.546-2.27,1.142-4.527,1.814-6.759a112.057,112.057,0,0,1,5.592-15.129c.254-.571.52-1.154.8-1.725.152-.342.317-.672.482-1.014,1.116-2.283,2.308-4.527,3.614-6.721a84.74,84.74,0,0,1,26.416-28.1,87.161,87.161,0,0,1,11.2-6.315,97.187,97.187,0,0,1,9.118-3.754,71.586,71.586,0,0,1,18.046-4.16c8.09-.684,14.71.711,19.947,3.741,6.861,3.97,11.35,10.767,13.671,19.466C1765.911,1332.007,1764.91,1347.9,1760.192,1365.042Z" fill="#9fa3bf"/>
        <path d="M1668.989,1445.521l-.941-.335c1.357-3.807,2.844-7.854,4.416-12.031,3-7.934,6.119-15.7,9.278-23.1,4.273-10.043,8.842-19.959,13.581-29.473a420.54,420.54,0,0,1,28.593-49.136,287.969,287.969,0,0,1,24.709-31.416l.738.675a286.945,286.945,0,0,0-24.622,31.306,419.473,419.473,0,0,0-28.523,49.018c-4.73,9.495-9.29,19.393-13.556,29.418-3.153,7.383-6.27,15.141-9.263,23.061C1671.829,1437.679,1670.346,1441.721,1668.989,1445.521Z"/>
        <polygon points="1723.717 1332.567 1728.551 1296.556 1729.541 1296.689 1724.916 1331.144 1762.514 1319.355 1762.813 1320.31 1723.717 1332.567"/>
        <polygon points="1695.317 1381.438 1690.183 1310.886 1691.181 1310.813 1696.229 1380.185 1760.075 1364.561 1760.313 1365.532 1695.317 1381.438"/>
        <polygon points="1672.599 1433.896 1672.457 1433.497 1650.959 1372.816 1651.902 1372.482 1673.259 1432.765 1731.616 1422.555 1731.788 1423.541 1672.599 1433.896"/>
        <polygon points="1652.916 1445.547 1647.843 1433.344 1648.358 1433.338 1648.804 1433.151 1653.838 1445.16 1652.916 1445.547"/>
        <polygon points="1681.836 1410.847 1681.715 1410.368 1663.782 1339.084 1664.753 1338.84 1682.564 1409.645 1748.884 1393.842 1749.116 1394.815 1681.836 1410.847"/>
      </g>
    </g>
    <g>
      <g>
        <path d="M538.753,1400.5c-.165,14.8-1.015,28.647-2.055,40.352H494.165a338.419,338.419,0,0,1-48.9-76.912,270.218,270.218,0,0,1-12.808-33.175,158.854,158.854,0,0,1-6.76-32.629c-1.179-13.721.47-25.363,5.568-33.605,6.759-10.894,19.567-15.852,39.908-11.819a65.266,65.266,0,0,1,9.232,2.523v.013a60.512,60.512,0,0,1,11.984,5.681,67.246,67.246,0,0,1,16.156,14.051c6.936,8.2,12.377,18.109,16.6,29.1q.969,2.454,1.826,4.983a194.28,194.28,0,0,1,7.786,31.831c.165,1,.33,2,.482,3.018.19,1.243.368,2.5.533,3.753a339.691,339.691,0,0,1,2.9,38.729C538.778,1391.169,538.8,1395.886,538.753,1400.5Z" fill="#9fa3bf"/>
        <path d="M521.291,1440.989c-.8-2.853-1.654-5.822-2.541-8.909l-.248-.865c-3.316-11.444-6.7-22.739-10.053-33.57-2.753-8.885-5.564-17.671-8.354-26.115-4.029-12.154-7.8-23.012-11.523-33.2-5.071-13.878-10.046-26.464-14.788-37.409-9.564-22.1-18.487-38.248-26.52-48.007l.772-.635c8.092,9.831,17.064,26.063,26.666,48.244,4.749,10.963,9.732,23.567,14.81,37.463,3.728,10.195,7.5,21.063,11.532,33.227,2.792,8.45,5.605,17.242,8.36,26.133,3.356,10.837,6.741,22.138,10.059,33.589l.248.865q1.332,4.633,2.543,8.916Z"/>
        <polygon points="530.952 1476.488 530.724 1475.628 531.691 1475.371 531.919 1476.235 530.952 1476.488"/>
        <polygon points="474.621 1301.697 430.381 1264.447 431.025 1263.682 473.874 1299.761 479.911 1255.169 480.902 1255.303 474.621 1301.697"/>
        <polygon points="489.333 1338.937 425.426 1298.565 425.96 1297.72 488.762 1337.394 508.388 1273.823 509.343 1274.118 489.333 1338.937"/>
        <polygon points="500.829 1372.105 432.192 1331.185 432.704 1330.326 500.303 1370.628 524.683 1303.89 525.623 1304.233 500.829 1372.105"/>
        <polygon points="509.137 1398.175 445.03 1364.382 445.496 1363.498 508.727 1396.828 535.335 1347.433 536.216 1347.907 509.137 1398.175"/>
        <polygon points="519.15 1431.716 467.751 1405.844 468.201 1404.95 518.816 1430.428 538.315 1401.708 539.142 1402.27 519.15 1431.716"/>
      </g>
      <g>
        <path d="M543.749,1395.2s-110.328-181.343-11.413-220.655S567.844,1371.107,543.749,1395.2Z" fill="#9fa3bf"/>
        <path d="M542.621,1394.642c-.074-.489-7.4-49.5-10.657-101.35-4.386-69.742.279-111.137,13.866-123.033l.659.752c-31.889,27.923-3.173,221.53-2.879,223.482Z"/>
        <polygon points="532.972 1207.707 519.839 1180.874 520.738 1180.435 533.243 1205.985 565.173 1172.872 565.893 1173.566 532.972 1207.707"/>
        <polygon points="530.827 1241.521 503.276 1196.591 504.128 1196.069 531.074 1240.012 582.015 1197.441 582.656 1198.208 530.827 1241.521"/>
        <polygon points="531.573 1279.196 491.601 1228.71 492.385 1228.089 531.735 1277.79 585.678 1234.946 586.3 1235.729 531.573 1279.196"/>
        <polygon points="534.097 1316.674 495.084 1278.852 495.78 1278.134 534.195 1315.377 580.786 1282.261 581.365 1283.077 534.097 1316.674"/>
        <polygon points="536.637 1343.516 503.88 1310.202 504.593 1309.5 536.75 1342.204 573.814 1315.62 574.397 1316.432 536.637 1343.516"/>
      </g>
      <g>
        <path d="M636.057,1360.543a169.255,169.255,0,0,1-11.2,29.281,189.816,189.816,0,0,1-36.357,51.03H525.488c-.482-3.8-.926-7.824-1.281-12.009v-.013c-.127-1.61-.253-3.259-.368-4.92-1.141-17.285-.722-36.928,3.45-55.747v-.013c.177-.786.355-1.56.545-2.346.545-2.27,1.141-4.527,1.813-6.759a112.2,112.2,0,0,1,5.593-15.129c.254-.571.52-1.154.8-1.725.152-.342.317-.672.482-1.014,1.116-2.283,2.308-4.528,3.614-6.721a84.718,84.718,0,0,1,26.415-28.1,87.3,87.3,0,0,1,11.2-6.316,97.073,97.073,0,0,1,9.118-3.753,71.492,71.492,0,0,1,18.045-4.16c8.091-.685,14.711.71,19.948,3.741,6.861,3.969,11.35,10.767,13.671,19.466C641.776,1327.508,640.774,1343.4,636.057,1360.543Z" fill="#9fa3bf"/>
        <path d="M544.854,1441.022l-.941-.336c1.357-3.806,2.842-7.853,4.416-12.03,3-7.945,6.123-15.717,9.277-23.1,4.275-10.047,8.845-19.963,13.582-29.473a420.788,420.788,0,0,1,28.593-49.136,287.649,287.649,0,0,1,24.709-31.416l.738.675a286.747,286.747,0,0,0-24.622,31.306,419.721,419.721,0,0,0-28.523,49.018c-4.728,9.491-9.289,19.389-13.557,29.418-3.149,7.371-6.265,15.13-9.262,23.061C547.693,1433.18,546.209,1437.222,544.854,1441.022Z"/>
        <polygon points="599.581 1328.068 604.415 1292.057 605.406 1292.189 600.781 1326.644 638.378 1314.856 638.677 1315.81 599.581 1328.068"/>
        <polygon points="571.183 1376.938 566.048 1306.387 567.045 1306.314 572.094 1375.686 635.94 1360.061 636.178 1361.033 571.183 1376.938"/>
        <polygon points="548.463 1429.396 526.824 1368.317 527.766 1367.983 549.124 1428.266 607.48 1418.056 607.652 1419.041 548.463 1429.396"/>
        <polygon points="528.781 1441.047 523.707 1428.845 524.223 1428.838 524.668 1428.651 529.703 1440.661 528.781 1441.047"/>
        <polygon points="557.7 1406.348 539.647 1334.584 540.617 1334.34 558.429 1405.146 624.749 1389.343 624.98 1390.315 557.7 1406.348"/>
      </g>
    </g>
    <ellipse cx="405.145" cy="1418.432" rx="164.82" ry="32.964" fill="#494e6d"/>
    <rect x="760.864" y="1250.959" width="662.741" height="120.104" rx="9.951" fill="#47103d"/>
    <rect x="723.241" y="991.94" width="544.085" height="367.547" rx="10.252" fill="#68a3c1"/>
    <rect x="747.84" y="1022.327" width="491.991" height="13.801" fill="#494e6d"/>
    <rect x="704.429" y="1308.84" width="57.881" height="57.881" rx="6.684" fill="#47103d"/>
    <path d="M1278,1097.853l2.211,247.613a15.735,15.735,0,0,0,15.605,15.6l318.849,2.635a15.736,15.736,0,0,0,15.866-15.736v-23.384a15.736,15.736,0,0,0-15.736-15.736H1440.033a15.737,15.737,0,0,1-13.708-8.008l-118.882-210.848C1299.457,1075.821,1277.855,1081.594,1278,1097.853Z" fill="#47103d"/>
    <path d="M1276.008,1035.351h144.7l75.246,130.233,115.763,86.822v56.434l-334.265-8.682S1276.008,1090.338,1276.008,1035.351Z" fill="#494e6d"/>
    <rect x="1607.378" y="1256.747" width="14.47" height="34.729" rx="3.518" fill="#ff9e1d"/>
    <polygon points="1451.099 1186.211 1306.395 1186.211 1306.395 1067.554 1404.794 1067.554 1459.781 1165.953 1451.099 1186.211" fill="#d7e3ff"/>
    <polygon points="1277.455 1262.535 1607.989 1261.088 1614.614 1327.651 1616.283 1359.381 1278.902 1359.486 1277.455 1262.535" fill="#68a3c1"/>
    <circle cx="869.391" cy="1363.827" r="86.822" fill="#494e6d"/>
    <circle cx="869.391" cy="1363.827" r="46.305" fill="#9fa3bf"/>
    <circle cx="1482.934" cy="1360.933" r="86.822" fill="#494e6d"/>
    <circle cx="1482.934" cy="1360.933" r="46.305" fill="#9fa3bf"/>
    <rect x="1445.311" y="1140.984" width="28.941" height="60.775" rx="13.577" fill="#47103d"/>
    <g>
      <rect x="1116.863" y="1347.383" width="197.968" height="99.338" fill="#e57d00"/>
      <rect x="1116.863" y="1347.383" width="98.984" height="99.338" fill="#ffaa40"/>
      <rect x="1116.863" y="1410.764" width="22.953" height="8.532" fill="#e57d00"/>
      <rect x="1291.879" y="1362.009" width="22.953" height="6.704" fill="#ff9e1d"/>
    </g>
    <g>
      <rect x="984.884" y="1317.387" width="139.478" height="129.333" fill="#e57d00"/>
      <rect x="984.884" y="1317.387" width="69.739" height="129.333" fill="#ffaa40"/>
      <rect x="984.884" y="1399.907" width="16.171" height="11.108" fill="#e57d00"/>
      <rect x="1108.191" y="1336.43" width="16.171" height="8.728" fill="#ff9e1d"/>
    </g>
    <g>
      <rect x="1124.362" y="1261.119" width="131.979" height="86.617" fill="#e57d00"/>
      <rect x="1124.362" y="1261.119" width="65.989" height="86.617" fill="#ffaa40"/>
      <rect x="1124.362" y="1316.384" width="15.302" height="7.44" fill="#e57d00"/>
      <rect x="1241.039" y="1273.872" width="15.302" height="5.845" fill="#ff9e1d"/>
    </g>
    <g>
      <rect x="1031.631" y="1255.897" width="94.231" height="61.844" fill="#e57d00"/>
      <rect x="1031.631" y="1255.897" width="47.116" height="61.844" fill="#ffaa40"/>
      <rect x="1031.631" y="1295.356" width="10.925" height="5.312" fill="#e57d00"/>
      <rect x="1114.937" y="1265.003" width="10.925" height="4.174" fill="#ff9e1d"/>
    </g>
    <path d="M469.863,682.019s26.83,95.656,104.878,58.527,101.339,14.56,164.276-10.711,12.747-126.415-78.274-106.2-43.056-85.6-186.706-31.531S469.863,682.019,469.863,682.019Z" fill="#fff"/>
    <path d="M1177.914,629.189s-142.729-44.954-214.655-6.743,116.88,164.082,331.536,50.573S1177.914,629.189,1177.914,629.189Z" fill="#fff"/>
    <path d="M1876.611,1091.544s2.248-94.4-83.164-67.431-144.977-8.99-187.683,40.459,123.623,123.624,260.733,76.422S1876.611,1091.544,1876.611,1091.544Z" fill="#fff"/>
    <path d="M129.767,1060.538s130.366,87.66,227.017,32.592,141.605-8.991,174.2-56.193-66.307-104.518-165.206-73.05S264.629,807.672,129.767,923.428,129.767,1060.538,129.767,1060.538Z" fill="#fff"/>
    <path d="M1500.8,1029.435a3,3,0,0,1-2.741-1.779c-1.889-4.235-3.813-8.49-5.719-12.647a3,3,0,1,1,5.454-2.5c1.915,4.176,3.848,8.45,5.745,12.7a3,3,0,0,1-2.739,4.223Zm-974.847-4.5a3,3,0,0,1-2.994-2.839c-.008-.149-.195-3.711-.195-9.886,0-3.357.056-6.856.168-10.4a3,3,0,0,1,6,.189c-.11,3.481-.165,6.917-.165,10.211,0,6,.185,9.529.187,9.564a3,3,0,0,1-2.835,3.156C526.064,1024.933,526.009,1024.935,525.956,1024.935Zm960.638-26.287a3,3,0,0,1-2.708-1.707c-2.881-6.026-5.824-12.056-8.749-17.922a3,3,0,1,1,5.369-2.678c2.94,5.9,5.9,11.957,8.793,18.013a3,3,0,0,1-2.7,4.294ZM527.128,984.89c-.087,0-.175,0-.264-.011a3,3,0,0,1-2.728-3.25c.593-6.773,1.378-13.526,2.335-20.073a3,3,0,1,1,5.936.867c-.94,6.433-1.711,13.07-2.293,19.728A3,3,0,0,1,527.128,984.89Zm941.617-22.023a3,3,0,0,1-2.663-1.614c-3.087-5.923-6.242-11.842-9.377-17.594a3,3,0,1,1,5.268-2.872c3.153,5.784,6.326,11.737,9.43,17.693a3,3,0,0,1-2.658,4.387ZM532.964,945.275a3,3,0,0,1-2.937-3.626c1.44-6.756,3.1-13.362,4.944-19.634a3,3,0,0,1,5.757,1.691c-1.8,6.127-3.425,12.585-4.833,19.194A3,3,0,0,1,532.964,945.275ZM1449.6,927.766a3,3,0,0,1-2.608-1.513c-3.322-5.814-6.709-11.6-10.068-17.2a3,3,0,1,1,5.145-3.087c3.38,5.635,6.789,11.458,10.133,17.309a3,3,0,0,1-2.6,4.489ZM544.324,906.931a3,3,0,0,1-2.789-4.1,183.268,183.268,0,0,1,8.484-18.485,3,3,0,1,1,5.3,2.812,177.892,177.892,0,0,0-8.2,17.879A3,3,0,0,1,544.324,906.931Zm884.7-13.447a3,3,0,0,1-2.54-1.4c-3.558-5.639-7.2-11.263-10.83-16.717a3,3,0,0,1,5-3.323c3.655,5.494,7.325,11.159,10.909,16.839a3,3,0,0,1-2.535,4.6Zm-865.84-21.732A3,3,0,0,1,560.752,867a123.994,123.994,0,0,1,13.27-15.574,3,3,0,1,1,4.219,4.266,117.877,117.877,0,0,0-12.623,14.819A2.993,2.993,0,0,1,563.183,871.752ZM1406.871,860.2a2.994,2.994,0,0,1-2.456-1.275c-3.846-5.469-7.771-10.9-11.669-16.13a3,3,0,1,1,4.812-3.584c3.93,5.278,7.889,10.749,11.765,16.263a3,3,0,0,1-2.452,4.726ZM591.56,843.92a3,3,0,0,1-1.671-5.494,103.511,103.511,0,0,1,18.105-9.655,3,3,0,0,1,2.284,5.549,97.311,97.311,0,0,0-17.053,9.094A2.99,2.99,0,0,1,591.56,843.92Zm121.25-7.544-1.766-.544q-2.385-.736-4.727-1.411a3,3,0,1,1,1.661-5.765q1.533.441,3.083.908c1.661-1.675,4.9-4.884,9.624-9.334A3,3,0,1,1,724.8,824.6c-6.909,6.5-10.669,10.406-10.706,10.445Zm-25.08-6.585a3.018,3.018,0,0,1-.587-.058,187.359,187.359,0,0,0-19.467-2.844,3,3,0,1,1,.541-5.975,193.149,193.149,0,0,1,20.094,2.934,3,3,0,0,1-.581,5.943Zm-59.541-1.036a3,3,0,0,1-.6-5.939,127.2,127.2,0,0,1,20.258-2.444,3,3,0,0,1,.251,6,121.147,121.147,0,0,0-19.3,2.326A3.009,3.009,0,0,1,628.189,828.755Zm754.793-.6a3,3,0,0,1-2.355-1.138c-4.143-5.236-8.377-10.42-12.586-15.407a3,3,0,1,1,4.585-3.869c4.249,5.034,8.524,10.267,12.707,15.552a3,3,0,0,1-2.351,4.862Zm-645.4-16.221a3,3,0,0,1-1.983-5.252c4.945-4.352,10.093-8.75,15.3-13.073a3,3,0,1,1,3.832,4.618c-5.164,4.285-10.268,8.645-15.169,12.959A2.987,2.987,0,0,1,737.579,811.93Zm619.613-14.318a3,3,0,0,1-2.228-.989c-4.47-4.952-9.041-9.835-13.584-14.515a3,3,0,0,1,4.306-4.179c4.592,4.732,9.212,9.668,13.731,14.672a3,3,0,0,1-2.225,5.011ZM768.408,786.333a3,3,0,0,1-1.854-5.361c5.251-4.12,10.632-8.224,15.991-12.2a3,3,0,1,1,3.574,4.819c-5.316,3.943-10.653,8.014-15.862,12.1A2.984,2.984,0,0,1,768.408,786.333Zm560.934-17.389a2.99,2.99,0,0,1-2.07-.829c-4.825-4.6-9.753-9.116-14.647-13.415a3,3,0,1,1,3.958-4.508c4.957,4.353,9.947,8.922,14.831,13.581a3,3,0,0,1-2.072,5.171Zm-528.759-6.471a3,3,0,0,1-1.724-5.458c5.493-3.846,11.089-7.648,16.633-11.3a3,3,0,0,1,3.3,5.01c-5.5,3.623-11.047,7.394-16.493,11.207A2.993,2.993,0,0,1,800.583,762.473ZM1299.3,742.586a2.988,2.988,0,0,1-1.877-.661c-5.184-4.165-10.484-8.226-15.752-12.069a3,3,0,1,1,3.536-4.847c5.343,3.9,10.718,8.015,15.974,12.239a3,3,0,0,1-1.881,5.338ZM834.02,740.441a3,3,0,0,1-1.581-5.552c5.724-3.538,11.531-7.011,17.262-10.319a3,3,0,0,1,3,5.2c-5.679,3.278-11.434,6.718-17.106,10.226A2.993,2.993,0,0,1,834.02,740.441Zm34.673-20.009a3,3,0,0,1-1.42-5.645c5.935-3.181,11.951-6.28,17.883-9.21a3,3,0,1,1,2.657,5.379c-5.872,2.9-11.829,5.969-17.705,9.119A2.987,2.987,0,0,1,868.693,720.432Zm398.318-1.376a2.987,2.987,0,0,1-1.643-.493c-5.55-3.642-11.22-7.157-16.852-10.446a3,3,0,0,1,3.026-5.18c5.722,3.341,11.481,6.911,17.118,10.61a3,3,0,0,1-1.649,5.509Zm-362.43-16.34a3,3,0,0,1-1.236-5.735c6.14-2.771,12.361-5.441,18.489-7.938A3,3,0,1,1,924.1,694.6c-6.06,2.469-12.213,5.11-18.286,7.85A3,3,0,0,1,904.581,702.716Zm327.923-3.795a2.98,2.98,0,0,1-1.366-.331c-5.888-3.019-11.9-5.892-17.877-8.538a3,3,0,0,1,2.429-5.487c6.079,2.693,12.2,5.615,18.186,8.686a3,3,0,0,1-1.372,5.67ZM941.64,687.636a3,3,0,0,1-1.022-5.822c6.344-2.3,12.758-4.474,19.063-6.467a3,3,0,0,1,1.808,5.722c-6.227,1.967-12.561,4.116-18.827,6.386A2.983,2.983,0,0,1,941.64,687.636Zm254.335-4.881a2.985,2.985,0,0,1-1.051-.191c-6.174-2.311-12.482-4.458-18.746-6.38a3,3,0,0,1,1.76-5.737c6.38,1.959,12.8,4.145,19.089,6.5a3,3,0,0,1-1.052,5.81ZM979.783,675.6a3,3,0,0,1-.775-5.9c6.516-1.748,13.1-3.352,19.567-4.768a3,3,0,0,1,1.283,5.861c-6.377,1.4-12.869,2.978-19.3,4.7A3.033,3.033,0,0,1,979.783,675.6Zm178-4.561a3.006,3.006,0,0,1-.706-.084c-6.393-1.542-12.914-2.9-19.383-4.052a3,3,0,0,1,1.048-5.908c6.588,1.168,13.231,2.557,19.742,4.127a3,3,0,0,1-.7,5.917Zm-138.941-3.972a3,3,0,0,1-.493-5.959c6.651-1.117,13.363-2.067,19.95-2.825a3,3,0,1,1,.685,5.961c-6.484.746-13.092,1.682-19.642,2.781A3.049,3.049,0,0,1,1018.846,667.065Zm99.6-3.005a3.119,3.119,0,0,1-.347-.02c-6.508-.749-13.149-1.311-19.738-1.671a3,3,0,0,1,.328-5.992c6.708.367,13.469.94,20.1,1.7a3,3,0,0,1-.339,5.981Zm-59.892-1.547a3,3,0,0,1-.178-6c6.726-.406,13.506-.624,20.153-.649h.011a3,3,0,0,1,.012,6c-6.535.024-13.2.239-19.814.638C1058.678,662.511,1058.617,662.513,1058.556,662.513Z" fill="#5a4ac4"/>
    <g>
      <path d="M576.825,1087.248c-7.234,163.329-170.989,345.268-170.989,345.268s-154.791-176.54-162.556-345.268c-5.194-112.856,74.667-178.163,166.773-178.163S581.123,990.229,576.825,1087.248Z" fill="#68a3c1"/>
      <circle cx="409.578" cy="1085.27" r="101.867" fill="#494e6d"/>
    </g>
    <g>
      <path d="M738.405,779.424c-1.115,25.16-26.341,53.188-26.341,53.188s-23.845-27.2-25.042-53.188c-.8-17.386,11.5-27.446,25.691-27.446S739.067,764.478,738.405,779.424Z" fill="#68a3c1"/>
      <circle cx="712.64" cy="779.119" r="15.693" fill="#494e6d"/>
    </g>
    <g>
      <path d="M1555.745,913.536c-2.358,53.239-55.737,112.545-55.737,112.545s-50.456-57.546-52.987-112.545c-1.693-36.787,24.339-58.075,54.362-58.075S1557.145,881.911,1555.745,913.536Z" fill="#ffaa40"/>
      <circle cx="1501.228" cy="912.891" r="33.205" fill="#e57d00"/>
    </g>
    <rect x="708.775" y="1198.792" width="32.738" height="2" transform="translate(-662.9 1396.443) rotate(-66.915)" fill="#19274a"/>
    <g>
      <g>
        <path d="M729.976,1012.75l-19.38-1.469-17.255.231-11.1,3.229s4.612,19.389,18.948,21.181S727.851,1027.658,729.976,1012.75Z" fill="#5a174a"/>
        <path d="M560.526,1436.418h41.691a20.891,20.891,0,0,0-38.328-10.134v0c-.355.539-.686,1.1-.989,1.669l-.09.175A20.668,20.668,0,0,0,560.526,1436.418Z" fill="#fff"/>
        <path d="M807.756,1270.963c-2.533,12.313-33.774,120-33.774,120s-6.444-1.574-6.472-1.588l-19.517-5.418c0-.028-6.713-1.878-6.7-1.906.408-2.378,9.805-38.658,14.424-67.5,3.062-19.115,7.374-41.667,7.374-41.667l-16.605-21.714v-.014l-27.764-36.305v-.014l9.358-22.318c7.2-16.394,13.256-28.651,15-32.127l8.078-.366,14.227-.647s7.514,16.619,16.224,37.094C794.191,1226.045,809.262,1263.673,807.756,1270.963Z" fill="#494e6d"/>
        <path d="M781.432,1197.464c-.874-.159-21.512-4.267-31.226-37.151l1.918-.567c9.342,31.625,29.465,35.713,29.667,35.751Z" fill="#19274a"/>
        <rect x="764.983" y="1271.92" width="2" height="9.659" transform="translate(-612.859 714.954) rotate(-36.87)" fill="#19274a"/>
        <path d="M645.005,1300.536c3.631-9.671,3.5-57.835,2.823-94.622-.449-24.292-1.135-43.624-1.135-43.624l34.767-1.041,61.619-.856c-1.745,3.481-7.8,15.743-14.991,32.134-2.568,5.845-5.278,12.214-7.987,18.9-.464,1.14-1.372,3.429-1.372,3.429-17.242,43.44-31.145,90.661-45.918,112.5-10.928,16.156-59.337,77.369-59.337,77.369L581.857,1382.1S642.181,1308.041,645.005,1300.536Z" fill="#494e6d"/>
        <path d="M648.047,1206.89l-.439-1.952c7.217-1.625,24.792-8.784,32.108-40.086l.763-3.8,1.961.394-.77,3.831a79.149,79.149,0,0,1-9.006,22.55C666.273,1198.237,657.992,1204.65,648.047,1206.89Z" fill="#19274a"/>
        <path d="M746.748,1391.7l16.982,6.271,3.821-8.574-.043-.014-19.515-5.424A69.188,69.188,0,0,1,746.748,1391.7Z" fill="#fd8680"/>
        <path d="M742.161,1417.767l27.012,16.452,18.973,11.553a12.782,12.782,0,0,0,4.388-5.4l-21.98-13.591a17.428,17.428,0,0,1,10.143-9.558c-1.763-.936-3.925-2.047-6.152-3.107-.425-.2-.851-.406-1.277-.6,0,0-4.535,4.828-6.611,4.189a20.585,20.585,0,0,1-4.294-2.08,8.626,8.626,0,0,1-2.558-2.166c-1.074-1.7.79-8.739.79-8.739-.1-2.573,3.135-6.753,3.135-6.753l-16.982-6.271-5.405,17.024-.113.355-1.254,2.705A4.5,4.5,0,0,0,742.161,1417.767Z" fill="#68a3c1"/>
        <path d="M759.805,1413.464a8.626,8.626,0,0,0,2.558,2.166,2.1,2.1,0,0,0,.374-.18c0-.005.009-.005.014-.01a1.829,1.829,0,0,0,.184-.122,4.107,4.107,0,0,0,.847-.866c.052-.066.1-.132.147-.2.127-.18.245-.369.359-.568.061-.1.118-.2.17-.3.133-.242.256-.487.369-.733.076-.156.147-.312.218-.473s.137-.312.2-.468.128-.308.189-.459c.123-.3.241-.591.35-.861.057-.132.109-.26.161-.383a.5.5,0,0,1,.033-.071c.028-.066.052-.127.08-.189.067-.137.128-.265.185-.378a25.837,25.837,0,0,1-5.136-3.325,1.9,1.9,0,0,1-.515-1.314S758.731,1411.766,759.805,1413.464Z" fill="#19274a"/>
        <path d="M762.363,1415.63a20.585,20.585,0,0,0,4.294,2.08c2.076.639,6.611-4.189,6.611-4.189-2.123-.989-5.121-3.287-6.895-4.1-.042-.019-.085-.038-.127-.061-.057.113-.118.241-.185.378-.028.062-.052.123-.08.189a.5.5,0,0,0-.033.071c-.047.123-.1.251-.161.383-.109.27-.227.558-.35.861-.061.151-.123.3-.189.459s-.132.312-.2.468-.142.317-.218.473c-.113.246-.236.491-.369.733-.052.1-.109.2-.17.3-.114.2-.232.388-.359.568-.048.071-.1.137-.147.2a4.107,4.107,0,0,1-.847.866,1.829,1.829,0,0,1-.184.122s-.009,0-.014.01A2.1,2.1,0,0,1,762.363,1415.63Z" fill="#19274a"/>
        <path d="M742.161,1417.767l27.012,16.452,18.973,11.553a12.782,12.782,0,0,0,4.388-5.4l-21.98-13.591-29.211-18.056-.113.355-1.254,2.705A4.5,4.5,0,0,0,742.161,1417.767Z" fill="#19274a"/>
        <path d="M770.554,1426.781l21.98,13.591a15.693,15.693,0,0,0-7.628-20.846s-1.712-.974-4.209-2.3A17.428,17.428,0,0,0,770.554,1426.781Z" fill="#fff"/>
        <path d="M563.889,1426.289v0a20.888,20.888,0,0,1,38.328,10.134l-1.045-30.96-19.8-12.8-18.472,35.3C563.2,1427.386,563.534,1426.828,563.889,1426.289Zm28.761-17.984-7.845-4.526a1.81,1.81,0,0,1-.662-2.473l.846-1.466a1.81,1.81,0,0,1,2.474-.662l7.84,4.525a1.812,1.812,0,0,1,.667,2.473l-.847,1.466A1.81,1.81,0,0,1,592.65,1408.305Zm-11.335-1.178.846-1.466a1.812,1.812,0,0,1,2.474-.662l7.845,4.526a1.818,1.818,0,0,1,.662,2.478l-.846,1.461a1.812,1.812,0,0,1-2.474.662l-7.845-4.526A1.814,1.814,0,0,1,581.315,1407.127Z" fill="#68a3c1"/>
        <path d="M581.977,1409.6l7.845,4.526a1.812,1.812,0,0,0,2.474-.662l.846-1.461a1.818,1.818,0,0,0-.662-2.478L584.635,1405a1.812,1.812,0,0,0-2.474.662l-.846,1.466A1.814,1.814,0,0,0,581.977,1409.6Z" fill="#19274a"/>
        <path d="M584.8,1403.779l7.845,4.526a1.81,1.81,0,0,0,2.473-.663l.847-1.466a1.812,1.812,0,0,0-.667-2.473l-7.84-4.525a1.81,1.81,0,0,0-2.474.662l-.846,1.466A1.81,1.81,0,0,0,584.8,1403.779Z" fill="#19274a"/>
        <path d="M566.179,1436.418h30.384a5.653,5.653,0,0,1,5.653,5.653v2.1a0,0,0,0,1,0,0H560.526a0,0,0,0,1,0,0v-2.1A5.653,5.653,0,0,1,566.179,1436.418Z" transform="translate(1162.743 2880.593) rotate(-180)" fill="#19274a"/>
        <g>
          <path d="M625.142,1126.46c2.609,3.418,11.719,5.765,23.293,7.377l-2.5,32.568c19.89,0,120.464,8.7,122.2,6.958.823-.818,1.923-21.375,2.853-42.837,17.392.769,86.2,3.8,90.758,3.8,5.22,0,4.641-13.92,3.233-17.9-1.421-4.022-53.641-18.21-63.808-20.937-9.207-23.215-27.821-69.777-30.426-73.376-1.758-2.429-12.153-4.8-22.008-6.548-9.641-1.7-18.765-2.819-18.765-2.819-13.551,29.092-35.432,27.6-47.736,1.991,0,0-6.018,1.621-13.716,4.051-11.5,3.627-26.745,9.056-31.288,13.6C628.029,1041.6,616.027,1114.526,625.142,1126.46Z" fill="#ffaa40"/>
          <polygon points="800.915 1096.458 799.211 1096.002 799.722 1094.069 801.436 1094.528 800.915 1096.458" fill="#19274a"/>
          <path d="M771.991,1130.569l-2-.086c1.025-23.725,1.861-48.892,1.869-49.143l2,.066C773.853,1081.658,773.017,1106.834,771.991,1130.569Z" fill="#19274a"/>
          <path d="M805.376,1108.84s-2.034-5.17-5.13-12.978l1.859-.737c3.1,7.811,5.133,12.983,5.133,12.983Z" fill="#19274a"/>
          <path d="M715.359,1138.323c-10.379,0-43.844-.266-67.062-3.5l.275-1.981c25.144,3.5,62.431,3.5,68.967,3.473V1121.26c-17.49-6.733-56.573-21.87-57.887-23.185-1.089-1.089-1.187-9.74-.292-25.712l2,.112c-.6,10.678-.84,22.5-.231,24.224,2.318,1.4,35.693,14.444,57.772,22.941l.641.247V1138.3l-.991.01C718.48,1138.313,717.339,1138.323,715.359,1138.323Zm-54.2-41.539Z" fill="#19274a"/>
          <path d="M744.487,1154.857l-.928-1.771c5.5-2.88,14.649-7.877,15.794-9.021l1.414,1.414C759.031,1147.216,745.97,1154.081,744.487,1154.857Z" fill="#19274a"/>
          <rect x="668.62" y="1139.523" width="2" height="17.396" transform="translate(-634.579 891.575) rotate(-48.617)" fill="#19274a"/>
        </g>
        <g>
          <path d="M693.341,992.061c.375-.05.76-.12,1.157-.213,2.231,3.422,9.564,13.953,16.864,16.31a8.716,8.716,0,0,0,3.431.446c19.849-1.664,16.953-26.935,16.008-32.807-.532.28.329,2.4-1.108,2.083-3.529-.791-11.367-7.287-11.721-7.582q-2.008.793-3.958,1.609-5.151,2.146-9.881,4.444-4.109,1.993-7.869,4.108c-1.668-1.123-5.043-3.022-8.185-2.483a5.764,5.764,0,0,0-2.853,1.351c-.126.1-.249.218-.369.338C681.484,983.038,683.955,993.359,693.341,992.061Z" fill="#fd8680"/>
          <polygon points="717.407 971.123 717.252 970.996 717.959 970.289 718.536 969.473 718.018 970.23 718.667 969.582 718.018 970.23 717.407 971.123" fill="#2dea43"/>
          <path d="M717.972,970.3c.354.295,8.192,6.791,11.721,7.582,1.437.32.576-1.8,1.108-2.083,2.157-1.145,7.875,7.115,8.977,4.994s-6.94-8.041-5.893-9.979c1.5-2.785,12.571,4.5,12.571,1.572,0-4.327-12.953-6.191-16.227-6.6q-3,1.031-5.9,2.087Q721.087,969.067,717.972,970.3Z" fill="#8e3332"/>
          <path d="M688.079,977.976c3.142-.539,6.517,1.36,8.185,2.483q3.758-2.114,7.869-4.108c-1.665-3.4-4.539-8.041-6.176-10.614C692.713,969.264,688.645,973.461,688.079,977.976Z" fill="#68a3c1"/>
          <path d="M719.461,956.108a96.726,96.726,0,0,1,4.872,11.768q2.894-1.057,5.9-2.087s-2.127-9.373-5.564-10.429a7.024,7.024,0,0,0-2.7.17C721.234,955.665,720.394,955.859,719.461,956.108Z" fill="#494e6d"/>
          <path d="M708.82,959.9a127.73,127.73,0,0,1,5.194,12.008q1.948-.816,3.958-1.609,3.111-1.233,6.361-2.422a96.726,96.726,0,0,0-4.872-11.768A77.93,77.93,0,0,0,708.82,959.9Z" fill="#68a3c1"/>
          <path d="M697.957,965.737c1.637,2.573,4.511,7.213,6.176,10.614q4.722-2.3,9.881-4.444A127.73,127.73,0,0,0,708.82,959.9,69.792,69.792,0,0,0,697.957,965.737Z" fill="#494e6d"/>
          <path d="M685.226,979.327a5.764,5.764,0,0,1,2.853-1.351c.566-4.515,4.634-8.712,9.878-12.239A69.792,69.792,0,0,1,708.82,959.9a77.93,77.93,0,0,1,10.641-3.791c.933-.249,1.773-.443,2.5-.578-1.582-2.475-7.395-10.211-17.858-9.626a26.38,26.38,0,0,0-12.383,3.733,24.483,24.483,0,0,0-5.188,4.212,22.012,22.012,0,0,0-6.149,13.368C680.244,970.224,683.8,976.819,685.226,979.327Zm12.282-23.13c0-1.532,6.834-4.046,7.856-4.477s3.567,1.6,3.687,2.631c.2,1.742-7.3,6.01-8.518,6.167S697.508,957.73,697.508,956.2Z" fill="#494e6d"/>
          <path d="M686.534,953.849a24.483,24.483,0,0,1,5.188-4.212,3.536,3.536,0,0,0-5.188-.668C683.441,951.169,686.534,953.849,686.534,953.849Z" fill="#68a3c1"/>
          <path d="M697.508,956.2c0,1.533,1.806,4.478,3.025,4.321s8.721-4.425,8.518-6.167c-.12-1.028-2.665-3.065-3.687-2.631S697.508,954.665,697.508,956.2Z" fill="#fefefe"/>
          <path d="M693.016,986.71a4.74,4.74,0,0,0-5.209-1.6l-.663-1.886a6.712,6.712,0,0,1,7.47,2.282l-1.6,1.2.8-.6Z" fill="#cc5754"/>
          <path d="M693.341,992.061v19.451q7.15,14.509,18.387,10.371l-.366-13.725c-7.3-2.357-14.633-12.888-16.864-16.31C694.1,991.941,693.716,992.011,693.341,992.061Z" fill="#fd8680"/>
          <path d="M711.362,1008.158c-4.106-1.326-8.223-5.238-11.436-9.016,0,0,.959,9.489,11.8,15.433l-.366-6.417v0Z" fill="#cc5754"/>
        </g>
        <path d="M860.338,1115.167s21.914-5.023,21.177-2.988-7.5,3.7-7.5,3.7l1.756,3.249s15.8,2.7,15.973,4.943-13.487-.058-13.487-.058,11.373,3.614,12.489,6.349-13.3-1.484-13.3-1.484,9.885,3.733,9.743,5.721-25.447-1.738-25.447-1.738Z" fill="#fd8680"/>
        <g>
          <rect x="728.488" y="1039.028" width="157.048" height="126.683" transform="translate(1614.024 2204.738) rotate(-180)" fill="#e57d00"/>
          <rect x="807.012" y="1039.028" width="78.524" height="126.683" transform="translate(1692.549 2204.738) rotate(-180)" fill="#ffaa40"/>
          <rect x="867.328" y="1119.856" width="18.209" height="10.881" transform="translate(1752.864 2250.592) rotate(-180)" fill="#e57d00"/>
          <rect x="728.488" y="1057.68" width="18.209" height="8.549" transform="translate(1475.184 2123.91) rotate(-180)" fill="#ff9e1d"/>
        </g>
        <path d="M716.976,1120.34s21.914-5.023,21.177-2.987-7.5,3.7-7.5,3.7l1.756,3.249s15.795,2.7,15.973,4.942-13.487-.057-13.487-.057,11.373,3.614,12.489,6.349-13.3-1.484-13.3-1.484,9.885,3.732,9.743,5.72-25.447-1.738-25.447-1.738Z" fill="#fd8680"/>
      </g>
      <polygon points="581.372 1392.661 585.02 1384.366 605.381 1398.934 601.172 1405.458 581.372 1392.661" fill="#fd8680"/>
    </g>
  </g>
</svg>
