<svg xmlns="http://www.w3.org/2000/svg" width="2000" height="2000" viewBox="0 0 2000 2000">
  <g>
    <path d="M105.855,1492.75S201.1,1600.7,694.8,1554.661s847.7-80.961,1003.274-60.324,296.856-519.1-34.924-530.212-144.459-506.4-600.06-506.4c-557.515,0-376.228,420.677-661.971,511.163S1.082,1227.644,105.855,1492.75Z" fill="#ebedfc"/>
    <g>
      <path d="M180.465,1475.288s-52.386-182.558,68.261-225.42S315.4,1430.839,180.465,1475.288Z" fill="#9fa3bf"/>
      <path d="M181.743,1476.207l-.968-.25c.365-1.409,37.329-141.835,115.149-226.942l.738.674C219.012,1334.611,182.107,1474.8,181.743,1476.207Z"/>
      <polygon points="264.794 1289.473 270.819 1244.59 271.811 1244.723 265.995 1288.049 313.247 1273.234 313.546 1274.188 264.794 1289.473"/>
      <polygon points="229.209 1350.671 222.792 1262.502 223.789 1262.43 230.12 1349.418 310.188 1329.824 310.426 1330.795 229.209 1350.671"/>
      <polygon points="200.737 1416.354 173.684 1339.994 174.626 1339.66 201.397 1415.223 274.554 1402.424 274.726 1403.409 200.737 1416.354"/>
      <polygon points="186.844 1456.603 169.835 1415.981 170.758 1415.595 187.439 1455.433 235.549 1443.979 235.78 1444.951 186.844 1456.603"/>
      <polygon points="212.309 1387.492 189.74 1297.779 190.71 1297.535 213.037 1386.29 296.177 1366.479 296.409 1367.452 212.309 1387.492"/>
    </g>
    <g>
      <path d="M183.377,1500.909s25.91-148.179-44.344-162.094S122.6,1458.839,183.377,1500.909Z" fill="#494e6d"/>
      <path d="M182.245,1501.085c-.082-.32-8.3-32.435-19.835-68.3-15.258-47.427-29.372-79.841-40.817-93.739l.772-.636c14.56,17.682,30.332,60.917,41,94.073,11.547,35.894,19.768,68.035,19.849,68.355Z"/>
      <polygon points="141.636 1374.594 109.371 1347.427 110.016 1346.662 140.889 1372.658 145.232 1340.577 146.224 1340.71 141.636 1374.594"/>
      <polygon points="152.278 1401.539 105.794 1372.174 106.329 1371.328 151.708 1399.996 165.884 1354.079 166.839 1354.374 152.278 1401.539"/>
      <polygon points="160.606 1425.577 110.703 1395.825 111.215 1394.965 160.081 1424.1 177.7 1375.871 178.639 1376.213 160.606 1425.577"/>
      <polygon points="166.615 1444.459 120.016 1419.896 120.482 1419.011 166.205 1443.113 185.43 1407.421 186.311 1407.896 166.615 1444.459"/>
      <polygon points="173.864 1468.769 136.492 1449.957 136.941 1449.063 173.53 1467.48 187.598 1446.759 188.425 1447.32 173.864 1468.769"/>
    </g>
    <g>
      <path d="M534.469,1494.251S579.206,1238.4,457.9,1214.372,429.527,1421.61,534.469,1494.251Z" fill="#494e6d"/>
      <path d="M532.865,1494.464c-.141-.553-14.326-56.011-34.251-117.947-18.381-57.134-45.54-131.613-70.543-161.976l.772-.636c25.1,30.486,52.317,105.092,70.724,162.31,19.935,61.965,34.126,117.449,34.267,118Z"/>
      <polygon points="462.126 1275.447 406.922 1228.964 407.567 1228.199 461.379 1273.511 468.968 1217.463 469.959 1217.597 462.126 1275.447"/>
      <polygon points="480.565 1322.113 400.706 1271.664 401.24 1270.818 479.995 1320.57 504.611 1240.835 505.566 1241.13 480.565 1322.113"/>
      <polygon points="494.961 1363.643 409.173 1312.496 409.685 1311.636 494.436 1362.165 525.007 1278.479 525.947 1278.821 494.961 1363.643"/>
      <polygon points="505.377 1396.292 425.237 1354.049 425.703 1353.164 504.967 1394.946 538.334 1333.002 539.215 1333.477 505.377 1396.292"/>
      <polygon points="517.921 1438.287 453.678 1405.95 454.127 1405.056 517.587 1436.999 542.058 1400.957 542.885 1401.518 517.921 1438.287"/>
    </g>
    <g>
      <path d="M548.756,1392.74s-138.109-227.007-14.287-276.218S578.918,1362.578,548.756,1392.74Z" fill="#494e6d"/>
      <path d="M547.468,1392.02c-.092-.612-9.258-61.956-13.339-126.858-5.487-87.264.338-139.047,17.314-153.912l.66.752c-39.971,35-4.014,277.425-3.646,279.87Z"/>
      <polygon points="535.3 1157.816 518.939 1124.388 519.837 1123.949 535.57 1156.095 575.665 1114.514 576.385 1115.208 535.3 1157.816"/>
      <polygon points="532.611 1200.172 498.199 1144.053 499.051 1143.53 532.858 1198.663 596.738 1145.278 597.379 1146.046 532.611 1200.172"/>
      <polygon points="533.535 1247.347 483.575 1184.247 484.359 1183.625 533.697 1245.94 601.321 1192.229 601.943 1193.013 533.535 1247.347"/>
      <polygon points="536.686 1294.276 487.924 1247.002 488.621 1246.285 536.784 1292.979 595.191 1251.463 595.771 1252.279 536.686 1294.276"/>
      <polygon points="539.867 1327.874 498.938 1286.248 499.651 1285.547 539.98 1326.563 586.465 1293.221 587.048 1294.034 539.867 1327.874"/>
    </g>
    <g>
      <path d="M534.469,1494.337s-52.386-182.558,68.261-225.419S669.4,1449.888,534.469,1494.337Z" fill="#9fa3bf"/>
      <path d="M535.747,1495.256l-.968-.25c.364-1.409,37.328-141.835,115.148-226.942l.739.675C573.016,1353.66,536.11,1493.85,535.747,1495.256Z"/>
      <polygon points="618.798 1308.522 624.823 1263.64 625.814 1263.772 619.998 1307.099 667.251 1292.283 667.55 1293.237 618.798 1308.522"/>
      <polygon points="583.212 1369.721 576.795 1281.552 577.792 1281.479 584.124 1368.468 664.192 1348.874 664.429 1349.845 583.212 1369.721"/>
      <polygon points="554.741 1435.403 527.688 1359.044 528.63 1358.71 555.401 1434.272 628.557 1421.473 628.729 1422.458 554.741 1435.403"/>
      <polygon points="540.848 1475.652 523.839 1435.03 524.762 1434.645 541.442 1474.482 589.552 1463.028 589.784 1464 540.848 1475.652"/>
      <polygon points="566.312 1406.542 543.744 1316.829 544.713 1316.584 567.041 1405.339 650.181 1385.528 650.412 1386.501 566.312 1406.542"/>
    </g>
    <g>
      <path d="M1572.763,1434.3c-.206,18.526-1.27,35.861-2.571,50.513h-53.244c-24.288-28.352-45.766-62.657-61.212-96.279a338.511,338.511,0,0,1-16.034-41.528c-4.476-14.557-7.4-28.384-8.461-40.846-1.476-17.176.588-31.749,6.969-42.067,8.461-13.636,24.495-19.843,49.958-14.8a81.562,81.562,0,0,1,11.556,3.159v.016a75.73,75.73,0,0,1,15,7.111,84.182,84.182,0,0,1,20.224,17.59c8.683,10.27,15.494,22.668,20.78,36.432q1.215,3.072,2.286,6.238a243.205,243.205,0,0,1,9.747,39.846c.206,1.254.412,2.508.6,3.778.238,1.556.461,3.127.667,4.7a424.87,424.87,0,0,1,3.635,48.481C1572.8,1422.616,1572.827,1428.521,1572.763,1434.3Z" fill="#494e6d"/>
      <path d="M1551.026,1484.948c-1.013-3.612-2.094-7.372-3.217-11.282l-.275-.955c-4.161-14.357-8.4-28.5-12.585-42.026-3.45-11.133-6.969-22.133-10.459-32.693-5.042-15.212-9.76-28.807-14.425-41.56-6.346-17.369-12.575-33.126-18.515-46.835-11.977-27.672-23.153-47.9-33.216-60.125l.772-.636c10.123,12.3,21.348,32.606,33.362,60.363,5.947,13.727,12.183,29.5,18.536,46.889,4.668,12.763,9.39,26.368,14.435,41.59,3.492,10.567,7.013,21.572,10.465,32.711,4.192,13.534,8.428,27.68,12.591,42.045l.275.956c1.124,3.912,2.206,7.674,3.219,11.288Z"/>
      <polygon points="1563.12 1529.387 1562.835 1528.311 1563.801 1528.053 1564.087 1529.135 1563.12 1529.387"/>
      <polygon points="1492.388 1310.371 1437.184 1263.888 1437.829 1263.124 1491.641 1308.435 1499.229 1252.387 1500.221 1252.521 1492.388 1310.371"/>
      <polygon points="1510.827 1357.037 1430.968 1306.588 1431.502 1305.742 1510.257 1355.494 1534.874 1275.759 1535.829 1276.054 1510.827 1357.037"/>
      <polygon points="1525.223 1398.566 1439.435 1347.419 1439.947 1346.56 1524.698 1397.089 1555.269 1313.403 1556.208 1313.746 1525.223 1398.566"/>
      <polygon points="1535.639 1431.217 1455.499 1388.973 1455.965 1388.088 1535.229 1429.87 1568.596 1367.927 1569.477 1368.401 1535.639 1431.217"/>
      <polygon points="1548.183 1473.211 1483.94 1440.874 1484.389 1439.98 1547.849 1471.923 1572.32 1435.88 1573.147 1436.442 1548.183 1473.211"/>
    </g>
    <g>
      <circle cx="1312.077" cy="1307.916" r="181.218" fill="none" stroke="#494e6d" stroke-miterlimit="10" stroke-width="12"/>
      <circle cx="1312.077" cy="1307.916" r="167.108" fill="none" stroke="#000" stroke-miterlimit="10" stroke-width="7"/>
      <circle cx="1312.077" cy="1307.916" r="159.172" fill="none" stroke="#fff" stroke-miterlimit="10" stroke-width="3"/>
      <circle cx="1312.077" cy="1307.916" r="29.101" fill="#007db9"/>
      <rect x="1306.345" y="1148.744" width="9.7" height="318.344"/>
      <rect x="1306.345" y="1148.744" width="9.7" height="318.344" transform="translate(3.279 2619.112) rotate(-90)"/>
      <rect x="1306.345" y="1148.744" width="9.7" height="318.344" transform="translate(1313.514 3159.908) rotate(-135)"/>
      <rect x="1306.345" y="1148.744" width="9.7" height="318.344" transform="translate(-540.063 1360.075) rotate(-46.542)"/>
      <circle cx="1312.077" cy="1307.916" r="16.755"/>
    </g>
    <g>
      <circle cx="745.055" cy="1312.326" r="181.218" fill="none" stroke="#494e6d" stroke-miterlimit="10" stroke-width="12"/>
      <circle cx="745.055" cy="1312.326" r="167.108" fill="none" stroke="#000" stroke-miterlimit="10" stroke-width="7"/>
      <circle cx="745.055" cy="1312.326" r="159.172" fill="none" stroke="#fff" stroke-miterlimit="10" stroke-width="3"/>
      <rect x="739.323" y="1153.154" width="9.7" height="318.344"/>
      <rect x="739.323" y="1153.154" width="9.7" height="318.344" transform="translate(-568.152 2056.499) rotate(-90)"/>
      <rect x="739.323" y="1153.154" width="9.7" height="318.344" transform="translate(342.429 2766.49) rotate(-135)"/>
      <rect x="739.323" y="1153.154" width="9.7" height="318.344" transform="translate(-720.276 949.861) rotate(-46.542)"/>
      <circle cx="745.055" cy="1312.326" r="29.101"/>
      <circle cx="745.055" cy="1312.326" r="16.755" fill="#e8356d"/>
    </g>
    <rect x="852.639" y="1090.984" width="299.825" height="13.228" fill="#ffaa40"/>
    <rect x="811.857" y="1204.283" width="301.728" height="9.831" transform="translate(1011.052 -335.682) rotate(40.317)" fill="#ffaa40"/>
    <rect x="1109.59" y="1199.595" width="231.326" height="9.022" transform="translate(1356.492 -508.755) rotate(49.88)" fill="#ffaa40"/>
    <rect x="1121.553" y="1020.932" width="16.784" height="294.52" transform="translate(456.483 -310.962) rotate(19.567)" fill="#ffaa40"/>
    <path d="M1317.049,1337.241,1076.9,1350.885a40.735,40.735,0,0,1-43.046-40.67h0a42.822,42.822,0,0,1,45.009-42.766l238.02,12.171a28.853,28.853,0,0,1,27.378,28.815h0A28.852,28.852,0,0,1,1317.049,1337.241Z" fill="#494e6d"/>
    <circle cx="1080.154" cy="1308.798" r="25.132" fill="#68a3c1"/>
    <circle cx="1315.164" cy="1306.594" r="14.991" fill="#68a3c1"/>
    <rect x="1089.413" y="1008.532" width="124.339" height="36.155" rx="18.078" fill="#007db9" stroke="#fff" stroke-miterlimit="10"/>
    <ellipse cx="359.848" cy="1480.05" rx="239.707" ry="31.749" fill="#494e6d"/>
    <g>
      <path d="M563.614,1070.477c-8.508,192.091-201.1,406.068-201.1,406.068s-182.049-207.627-191.181-406.068C165.224,937.748,259.148,860.94,367.474,860.94S568.668,956.374,563.614,1070.477Z" fill="#68a3c1"/>
      <circle cx="366.916" cy="1068.151" r="119.806" fill="#494e6d"/>
    </g>
    <g>
      <path d="M1570.223,913.006c-1.663,37.543-39.305,79.364-39.305,79.364s-35.58-40.58-37.365-79.364c-1.194-25.942,17.163-40.953,38.335-40.953S1571.211,890.705,1570.223,913.006Z" fill="#68a3c1"/>
      <circle cx="1531.779" cy="912.551" r="24.587" fill="#494e6d"/>
    </g>
    <g>
      <path d="M908.235,492.7c-2.387,53.889-56.417,113.919-56.417,113.919S800.745,548.369,798.183,492.7c-1.713-37.237,24.636-58.784,55.026-58.784S909.653,460.687,908.235,492.7Z" fill="#68a3c1"/>
      <circle cx="853.053" cy="492.045" r="33.611" fill="#494e6d"/>
    </g>
    <g>
      <path d="M1579.018,1427.664s-138.109-227.007-14.287-276.218S1609.18,1397.5,1579.018,1427.664Z" fill="#494e6d"/>
      <path d="M1577.729,1426.944c-.091-.611-9.257-61.956-13.338-126.859-5.488-87.263.338-139.046,17.314-153.911l.659.752c-39.97,35-4.013,277.425-3.645,279.87Z"/>
      <polygon points="1565.562 1192.741 1549.201 1159.313 1550.099 1158.873 1565.832 1191.019 1605.927 1149.438 1606.646 1150.132 1565.562 1192.741"/>
      <polygon points="1562.873 1235.097 1528.46 1178.977 1529.313 1178.455 1563.12 1233.587 1627 1180.203 1627.641 1180.97 1562.873 1235.097"/>
      <polygon points="1563.797 1282.271 1513.837 1219.17 1514.621 1218.549 1563.959 1280.865 1631.583 1227.154 1632.204 1227.937 1563.797 1282.271"/>
      <polygon points="1566.947 1329.2 1518.187 1281.927 1518.883 1281.209 1567.046 1327.903 1625.453 1286.388 1626.033 1287.203 1566.947 1329.2"/>
      <polygon points="1570.129 1362.798 1529.2 1321.172 1529.913 1320.471 1570.242 1361.486 1616.727 1328.146 1617.31 1328.958 1570.129 1362.798"/>
    </g>
    <g>
      <path d="M1694.569,1384.278a211.862,211.862,0,0,1-14.017,36.655,237.621,237.621,0,0,1-45.513,63.879h-78.881c-.6-4.762-1.158-9.794-1.6-15.033v-.016c-.159-2.016-.317-4.08-.46-6.159-1.429-21.637-.9-46.227,4.318-69.785v-.016c.222-.984.444-1.952.682-2.937.683-2.841,1.429-5.667,2.27-8.461a140.376,140.376,0,0,1,7-18.938c.318-.715.651-1.445,1-2.159.191-.429.4-.841.6-1.27,1.4-2.858,2.89-5.667,4.525-8.414a106.059,106.059,0,0,1,33.066-35.178,109.137,109.137,0,0,1,14.018-7.9,121.383,121.383,0,0,1,11.414-4.7,89.527,89.527,0,0,1,22.589-5.207c10.128-.857,18.415.889,24.971,4.683,8.588,4.969,14.208,13.477,17.113,24.367C1701.729,1342.925,1700.475,1362.816,1694.569,1384.278Z" fill="#9fa3bf"/>
      <path d="M1580.283,1484.98l-.942-.335c1.692-4.746,3.552-9.812,5.527-15.058,3.757-9.944,7.664-19.671,11.612-28.912,5.353-12.578,11.072-24.989,17-36.887a526.168,526.168,0,0,1,35.784-61.5,360.031,360.031,0,0,1,30.92-39.313l.738.675a359.225,359.225,0,0,0-30.833,39.2,525.309,525.309,0,0,0-35.714,61.376c-5.918,11.88-11.629,24.273-16.974,36.833-3.942,9.229-7.844,18.943-11.6,28.873C1583.831,1475.18,1581.973,1480.241,1580.283,1484.98Z"/>
      <polygon points="1649.061 1343.447 1655.086 1298.563 1656.076 1298.696 1650.26 1342.023 1697.513 1327.208 1697.812 1328.162 1649.061 1343.447"/>
      <polygon points="1613.474 1404.645 1607.057 1316.476 1608.054 1316.404 1614.385 1403.392 1694.453 1383.797 1694.691 1384.769 1613.474 1404.645"/>
      <polygon points="1585.002 1470.327 1557.949 1393.968 1558.892 1393.634 1585.663 1469.196 1658.819 1456.397 1658.991 1457.383 1585.002 1470.327"/>
      <polygon points="1560.396 1485.006 1554.055 1469.779 1554.575 1469.771 1555.016 1469.586 1561.318 1484.619 1560.396 1485.006"/>
      <polygon points="1596.574 1441.466 1574.005 1351.753 1574.975 1351.509 1597.302 1440.264 1680.442 1420.453 1680.675 1421.425 1596.574 1441.466"/>
    </g>
    <path d="M315.4,740.293s41.274,103.185,171.446,9.525c0,0,107.948,103.185,250.819,25.4S904.347,652.983,758.3,643.458s-152.4-115.884-369.878-63.5S70.931,733.944,193.165,737.119Z" fill="#fff"/>
    <path d="M1420.272,525.986c-4.762,7.938-280.981-30.161-347.654,30.162s247.644,195.258,481,109.535S1420.272,525.986,1420.272,525.986Z" fill="#fff"/>
    <path d="M1896.51,1019.686s-71.436-42.861-149.221-11.112,1.587,65.086-88.9,74.611,115.885,131.759,222.244,73.023S1896.51,1019.686,1896.51,1019.686Z" fill="#fff"/>
    <g>
      <g>
        <rect x="1071.251" y="808.814" width="306.843" height="247.884" rx="25.979" fill="#dd7f0e"/>
        <rect x="1071.251" y="808.756" width="184.836" height="247.884" rx="25.979" fill="#ffaa40"/>
        <g opacity="0.39">
          <polygon points="1256.199 863.247 1071.282 859.511 1071.363 855.512 1256.195 859.248 1378.121 856.562 1378.209 860.561 1256.199 863.247" fill="#ffd6a4"/>
        </g>
        <rect x="1272.89" y="872.429" width="91.03" height="33.659" rx="7.411" fill="#ffaa40"/>
        <rect x="1272.806" y="915.378" width="91.03" height="125.171" rx="14.116" fill="#ffaa40"/>
        <g>
          <path d="M1100.533,826.469l30.032-2.276,26.741.359,17.2,5s-7.147,30.045-29.363,32.822S1103.826,849.572,1100.533,826.469Z" fill="#494e6d"/>
          <path d="M1174.508,829.555s-7.147,30.045-29.363,32.822-41.319-12.8-44.612-35.908l30.032-2.276,26.741.359Z" fill="#494e6d"/>
          <path d="M1363.123,1483.012h-64.606a32.374,32.374,0,0,1,59.4-15.7v.007q.825,1.254,1.531,2.587l.14.271A32.008,32.008,0,0,1,1363.123,1483.012Z" fill="#fff"/>
          <path d="M1117.956,1139.651v.016l-43,56.259v.016l-21.383,28.527s26.367,166.159,26.986,169.858c.016.032-47.623,17.462-47.623,17.462s-49-166.1-52.942-185.193c-2.318-11.271,21.034-69.578,40.528-115.408,13.493-31.734,25.145-57.482,25.145-57.482l22.034,1,12.525.555c2.715,5.4,12.1,24.4,23.24,49.8Z" fill="#68a3c1"/>
          <path d="M1020.7,1112.173l-.359-1.968c.317-.058,31.814-6.409,46.4-55.786l1.918.566c-7.8,26.408-20.37,40.534-29.54,47.734C1029.111,1110.574,1021.035,1112.111,1020.7,1112.173Z" fill="#19274a"/>
          <rect x="1036.519" y="1232.415" width="21.568" height="2" transform="translate(-570.69 1217.407) rotate(-49.098)" fill="#19274a"/>
          <path d="M1245.651,1260.98c-5.628-14.986-18.871-78.164-17.815-135.171.7-37.646,1.758-67.6,1.758-67.6l-53.877-1.612-95.488-1.326c2.7,5.393,37.03,82.612,37.733,84.385v.007c26.719,67.318,50.391,136.251,74.214,169.453,20.139,28.067,91.574,128.077,91.574,128.077l50.8-38.1S1250.026,1272.61,1245.651,1260.98Z" fill="#68a3c1"/>
          <path d="M1227.616,1126.785c-15.261-3.437-27.978-13.292-37.8-29.292-8.1-13.188-12.171-27.424-13.88-34.737l-1.2-5.965,1.961-.395,1.2,5.936c11.4,48.78,38.879,59.96,50.163,62.5Z" fill="#19274a"/>
          <path d="M1074.542,1413.716l-26.316,9.717-5.921-13.286s-1.48-1.518-1.436-1.533l30.162-11.112C1071.031,1400.309,1074.542,1413.716,1074.542,1413.716Z" fill="#fd8680"/>
          <path d="M1081.651,1454.11l-41.86,25.5-29.4,17.9a19.805,19.805,0,0,1-6.8-8.369l34.062-21.062a27.006,27.006,0,0,0-15.719-14.81c2.734-1.451,6.083-3.173,9.534-4.815.66-.315,1.319-.63,1.979-.923,0,0,7.028,7.482,10.245,6.493a31.939,31.939,0,0,0,6.654-3.225,13.382,13.382,0,0,0,3.965-3.356c1.663-2.631-1.224-13.543-1.224-13.543.146-3.986-4.859-10.465-4.859-10.465l26.316-9.717,8.376,26.382.176.549,1.942,4.192A6.978,6.978,0,0,1,1081.651,1454.11Z" fill="#494e6d"/>
          <path d="M1054.309,1447.441a13.382,13.382,0,0,1-3.965,3.356,3.228,3.228,0,0,1-.579-.278c-.007-.008-.015-.008-.022-.015a3.371,3.371,0,0,1-.286-.19,6.37,6.37,0,0,1-1.311-1.342c-.081-.1-.154-.2-.228-.315-.2-.278-.381-.571-.557-.879-.1-.154-.183-.308-.263-.469-.206-.374-.4-.755-.572-1.136-.117-.242-.227-.484-.337-.733s-.213-.483-.315-.725-.2-.477-.293-.711c-.191-.469-.374-.916-.543-1.334-.088-.205-.168-.4-.249-.593a.725.725,0,0,0-.051-.11c-.044-.1-.081-.2-.125-.294-.1-.212-.2-.41-.286-.586a40,40,0,0,0,7.959-5.152,2.941,2.941,0,0,0,.8-2.037S1055.972,1444.81,1054.309,1447.441Z" fill="#19274a"/>
          <path d="M1050.344,1450.8a31.939,31.939,0,0,1-6.654,3.225c-3.217.989-10.245-6.493-10.245-6.493,3.29-1.532,7.937-5.093,10.685-6.347.065-.029.131-.058.2-.1.088.176.184.374.286.586.044.1.081.191.125.294a.725.725,0,0,1,.051.11c.073.19.161.388.249.593.169.418.352.865.543,1.334.1.234.19.469.293.711s.2.483.315.725.22.491.337.733c.176.381.366.762.572,1.136.08.161.168.315.263.469.176.308.359.6.557.879.074.11.147.213.228.315a6.37,6.37,0,0,0,1.311,1.342,3.371,3.371,0,0,0,.286.19c.007.007.015.007.022.015A3.228,3.228,0,0,0,1050.344,1450.8Z" fill="#19274a"/>
          <path d="M1081.651,1454.11l-41.86,25.5-29.4,17.9a19.805,19.805,0,0,1-6.8-8.369l34.062-21.062,45.267-27.979.176.549,1.942,4.192A6.978,6.978,0,0,1,1081.651,1454.11Z" fill="#19274a"/>
          <path d="M1037.651,1468.077l-34.062,21.062a24.32,24.32,0,0,1,11.821-32.3s2.653-1.51,6.522-3.569A27.006,27.006,0,0,1,1037.651,1468.077Z" fill="#fff"/>
          <path d="M1359.444,1469.9l-28.624-54.7-30.684,19.83-1.619,47.978a32.374,32.374,0,0,1,59.4-15.7v.007Q1358.738,1468.569,1359.444,1469.9Zm-49.935-31.482-1.311-2.272a2.808,2.808,0,0,1,1.033-3.833l12.15-7.013a2.805,2.805,0,0,1,3.833,1.026l1.312,2.272a2.8,2.8,0,0,1-1.026,3.832l-12.158,7.014A2.806,2.806,0,0,1,1309.509,1438.42Zm20.373,3.034-12.158,7.013a2.8,2.8,0,0,1-3.832-1.026l-1.312-2.265a2.819,2.819,0,0,1,1.026-3.84l12.158-7.013a2.8,2.8,0,0,1,3.832,1.026l1.312,2.272A2.812,2.812,0,0,1,1329.882,1441.454Z" fill="#494e6d"/>
          <path d="M1329.882,1441.454l-12.158,7.013a2.8,2.8,0,0,1-3.832-1.026l-1.312-2.265a2.819,2.819,0,0,1,1.026-3.84l12.158-7.013a2.8,2.8,0,0,1,3.832,1.026l1.312,2.272A2.812,2.812,0,0,1,1329.882,1441.454Z" fill="#19274a"/>
          <path d="M1325.5,1432.432l-12.158,7.014a2.806,2.806,0,0,1-3.833-1.026l-1.311-2.272a2.808,2.808,0,0,1,1.033-3.833l12.15-7.013a2.805,2.805,0,0,1,3.833,1.026l1.312,2.272A2.8,2.8,0,0,1,1325.5,1432.432Z" fill="#19274a"/>
          <path d="M1298.517,1483.012h64.606a0,0,0,0,1,0,0v.281a11.74,11.74,0,0,1-11.74,11.74h-41.126a11.74,11.74,0,0,1-11.74-11.74v-.281A0,0,0,0,1,1298.517,1483.012Z" fill="#19274a"/>
          <g>
            <path d="M1262.992,1002.682c-4.045,5.3-18.162,8.933-36.1,11.431l3.871,50.47c-30.823,0-186.679,13.484-189.373,10.783-1.275-1.268-2.98-33.124-4.421-66.384-26.952,1.192-133.575,5.893-140.645,5.893-8.088,0-7.19-21.572-5.01-27.737,2.2-6.232,83.127-28.219,98.881-32.445,14.269-35.976,43.114-108.131,47.151-113.707,2.724-3.765,18.833-7.432,34.105-10.149,14.94-2.641,29.079-4.368,29.079-4.368,21,45.083,54.908,42.766,73.975,3.086,0,0,9.326,2.512,21.255,6.277,17.822,5.622,41.446,14.035,48.486,21.074C1258.517,871.174,1277.116,984.188,1262.992,1002.682Z" fill="#494e6d"/>
            <path d="M990.459,955.659l-.521-1.931c1.708-.461,2.653-.71,2.653-.71l.511,1.933S992.16,955.2,990.459,955.659Z" fill="#19274a"/>
            <path d="M1035.973,1009.025c-1.589-36.778-2.885-75.79-2.9-76.18l2-.066c.013.389,1.308,39.392,2.9,76.16Z" fill="#19274a"/>
            <path d="M983.176,975.175l-1.861-.732s3.155-8.014,7.954-20.118l1.859.737C986.33,967.163,983.176,975.175,983.176,975.175Z" fill="#19274a"/>
            <path d="M1123.189,1020.516c-3.07,0-4.836-.015-4.941-.016l-.991-.01V992.873l.641-.247c34.567-13.3,86.7-33.68,89.79-35.729,1.045-2.087.688-20.812-.27-37.905l2-.112c.625,11.142,1.846,37.287-.291,39.426-2.068,2.067-73.751,29.736-89.867,35.94v24.261c8.369.041,67.725.149,107.5-5.384l.276,1.98C1191.091,1020.1,1139.271,1020.516,1123.189,1020.516Z" fill="#19274a"/>
            <path d="M1078.3,1046.2c-2.291-1.2-22.462-11.8-25.094-14.435l1.414-1.414c2.045,2.044,18.457,10.855,24.608,14.077Z" fill="#19274a"/>
            <rect x="1180.584" y="1035.404" width="26.959" height="2" transform="translate(-387.008 1048.028) rotate(-41.378)" fill="#19274a"/>
          </g>
          <g>
            <path d="M1157.306,794.408c-.582-.077-1.178-.186-1.794-.329-3.457,5.3-14.821,21.622-26.133,25.275a13.538,13.538,0,0,1-5.317.691c-30.759-2.58-26.272-41.742-24.807-50.841.825.434-.511,3.725,1.716,3.229,5.47-1.226,17.616-11.293,18.165-11.75q3.111,1.23,6.133,2.494,7.983,3.326,15.312,6.886,6.368,3.09,12.194,6.366c2.585-1.74,7.816-4.683,12.685-3.848a8.942,8.942,0,0,1,4.421,2.093c.195.162.386.339.572.525C1175.68,780.426,1171.85,796.42,1157.306,794.408Z" fill="#fd8680"/>
            <path d="M1119.7,761.506l-.672-.974.792.88Zm-.568-.823-.65-.758Z" fill="#2dea43"/>
            <path d="M1119.136,760.683c-.549.457-12.695,10.524-18.165,11.75-2.227.5-.891-2.795-1.716-3.229-3.343-1.774-12.2,11.026-13.911,7.74s10.754-12.461,9.132-15.465c-2.332-4.316-19.481,6.982-19.481,2.437,0-6.705,20.073-9.6,25.147-10.22q4.649,1.6,9.137,3.234Q1114.307,758.775,1119.136,760.683Z" fill="#8e3332"/>
            <path d="M1165.46,772.581c-4.869-.835-10.1,2.108-12.685,3.848q-5.823-3.276-12.194-6.366c2.58-5.27,7.034-12.461,9.571-16.448C1158.278,759.08,1164.583,765.585,1165.46,772.581Z" fill="#c81e5c"/>
            <path d="M1116.828,738.693c-2.957,5.451-6.257,14.555-7.549,18.237q-4.485-1.639-9.137-3.234s3.295-14.526,8.622-16.161a10.865,10.865,0,0,1,4.187.262C1114.081,738.007,1115.383,738.307,1116.828,738.693Z" fill="#e8356d"/>
            <path d="M1133.318,744.569a197.385,197.385,0,0,0-8.049,18.608q-3.019-1.266-6.133-2.494-4.821-1.911-9.857-3.753c1.292-3.682,4.592-12.786,7.549-18.237A120.577,120.577,0,0,1,1133.318,744.569Z" fill="#c81e5c"/>
            <path d="M1150.152,753.615c-2.537,3.987-6.991,11.178-9.571,16.448q-7.317-3.562-15.312-6.886a197.385,197.385,0,0,1,8.049-18.608A108.012,108.012,0,0,1,1150.152,753.615Z" fill="#e8356d"/>
            <path d="M1177.382,755.909c-.31-6.424-3.486-14.273-9.528-20.716a37.947,37.947,0,0,0-8.04-6.528,40.869,40.869,0,0,0-19.19-5.785c-16.214-.906-25.222,11.083-27.673,14.917,1.13.21,2.432.51,3.877.9a120.577,120.577,0,0,1,16.49,5.876,108.012,108.012,0,0,1,16.834,9.046c8.126,5.465,14.431,11.97,15.308,18.966a8.942,8.942,0,0,1,4.421,2.093C1172.089,770.788,1177.6,760.568,1177.382,755.909Zm-31.221-10.382c-1.884-.243-13.515-6.857-13.2-9.556.186-1.593,4.13-4.75,5.713-4.078s12.175,4.564,12.175,6.939S1148.049,745.77,1146.161,745.527Z" fill="#e8356d"/>
            <path d="M1167.854,735.193a37.947,37.947,0,0,0-8.04-6.528,5.48,5.48,0,0,1,8.04-1.035C1172.647,731.039,1167.854,735.193,1167.854,735.193Z" fill="#c81e5c"/>
            <path d="M1150.849,738.832c0,2.375-2.8,6.938-4.688,6.7s-13.515-6.857-13.2-9.556c.186-1.593,4.13-4.75,5.713-4.078S1150.849,736.457,1150.849,738.832Z" fill="#fefefe"/>
            <path d="M1157.372,785.783l-1.6-1.2a9.848,9.848,0,0,1,10.954-3.348l-.663,1.887C1160.853,781.29,1157.511,785.6,1157.372,785.783Z" fill="#cc5754"/>
            <path d="M1157.306,794.408v30.144q-11.081,22.482-28.494,16.071l.567-21.269c11.312-3.653,22.676-19.972,26.133-25.275C1156.128,794.222,1156.724,794.331,1157.306,794.408Z" fill="#fd8680"/>
            <path d="M1129.379,819.354c6.363-2.055,12.742-8.118,17.722-13.973,0,0-1.486,14.705-18.289,23.917l.567-9.944v0Z" fill="#cc5754"/>
          </g>
          <path d="M898.516,985.181s-33.959-7.784-32.817-4.63,11.616,5.737,11.616,5.737l-2.722,5.035s-24.475,4.18-24.752,7.659,20.9-.089,20.9-.089-17.625,5.6-19.355,9.839,20.612-2.3,20.612-2.3-15.317,5.784-15.1,8.865,39.435-2.693,39.435-2.693Z" fill="#fd8680"/>
          <path d="M1120.679,989.346s-33.959-7.783-32.817-4.629,11.616,5.736,11.616,5.736l-2.722,5.035s-24.476,4.181-24.752,7.66,20.9-.089,20.9-.089-17.624,5.6-19.354,9.839,20.612-2.3,20.612-2.3-15.317,5.784-15.1,8.864,39.435-2.693,39.435-2.693Z" fill="#fd8680"/>
          <rect x="1109.711" y="1103.604" width="2" height="37.507" transform="translate(-347.592 516.785) rotate(-22.748)" fill="#19274a"/>
        </g>
        <path d="M1063.093,830.779s-34.376,43.592-27.506,144.03L1036.972,998s18.184-129.122,53.108-171.984C1090.08,826.016,1070.872,818.825,1063.093,830.779Z" fill="#ffaa40"/>
        <path d="M1201.776,837.77s-27.291,53-9.964,126.981l10.978-5.388s-11.112-57.149,21.55-113.4C1224.34,845.959,1213.462,835.236,1201.776,837.77Z" fill="#ffaa40"/>
      </g>
      <polygon points="1325.151 1406.138 1331.374 1414.964 1299.625 1435.601 1294.46 1429.156 1325.151 1406.138" fill="#fd8680"/>
    </g>
    <path d="M745.5,1315.5a4.5,4.5,0,0,1-2.631-8.154l27.173-19.53,105.771-257.627a4.5,4.5,0,1,1,8.326,3.418L777.877,1292.43a4.5,4.5,0,0,1-1.536,1.945l-28.219,20.282A4.474,4.474,0,0,1,745.5,1315.5Z" fill="#ffaa40"/>
    <path d="M866.663,1037.984a66.135,66.135,0,0,1-26.4-5.484c-21.754-9.458-31.783-32.714-26.216-47.188a4.507,4.507,0,0,1,4.6-2.867l78.484,7.055a4.5,4.5,0,1,1-.806,8.964l-74.746-6.719c-2.118,12.934,11.21,27.693,22.27,32.5a55.4,55.4,0,0,0,34.831,3.344,4.5,4.5,0,1,1,2.586,8.62A54.886,54.886,0,0,1,866.663,1037.984Z"/>
  </g>
</svg>
