<svg xmlns="http://www.w3.org/2000/svg" width="2000" height="2000" viewBox="0 0 2000 2000">
  <g>
    <g>
      <path d="M228.235,1783.947,1813,1779.23s-174.513-103.764-245.261-70.748-33.016-235.828-221.678-287.71-268.844,198.1-268.844,198.1,14.149-103.764-84.9-99.048-136.78,94.332-136.78,94.332-146.213-278.277-301.86-212.246,0,254.695,0,254.695-122.63-89.615-136.78-14.15-113.2,33.016-113.2,80.182S228.235,1783.947,228.235,1783.947Z" fill="#ebedfc"/>
      <path d="M448.169,482.47,1028.814,189.9a128.125,128.125,0,0,1,146.86,22.453l464.123,450.2a128.124,128.124,0,0,1-4.353,187.963l-505.172,446.536a128.123,128.123,0,0,1-180.413-10.65l-539.6-604.162C354.129,619.385,372.914,520.389,448.169,482.47Z" fill="#ebedfc"/>
    </g>
    <g>
      <g>
        <path d="M1554.585,1706.123c.285,25.575,1.753,49.506,3.55,69.733h73.5c33.53-39.14,63.18-86.5,84.5-132.913a467.056,467.056,0,0,0,22.134-57.329c6.18-20.1,10.212-39.183,11.681-56.386,2.038-23.712-.811-43.83-9.621-58.074-11.68-18.825-33.814-27.394-68.965-20.425a112.793,112.793,0,0,0-15.954,4.361v.022a104.55,104.55,0,0,0-20.71,9.818,116.169,116.169,0,0,0-27.919,24.281c-11.987,14.179-21.389,31.3-28.687,50.3q-1.676,4.241-3.155,8.612a335.763,335.763,0,0,0-13.456,55.006c-.285,1.731-.569,3.463-.833,5.216-.328,2.147-.635,4.317-.92,6.487a586.432,586.432,0,0,0-5.018,66.927C1554.541,1689.994,1554.5,1698.146,1554.585,1706.123Z" fill="#9fa3bf"/>
        <path d="M1584.41,1775.991l-.963-.269c1.4-4.974,2.883-10.152,4.43-15.534l.393-1.366c5.749-19.837,11.6-39.363,17.381-58.04,4.774-15.407,9.635-30.6,14.445-45.154,6.962-21.006,13.479-39.784,19.925-57.409,8.765-23.988,17.373-45.763,25.585-64.72,16.58-38.3,32.066-66.323,46.029-83.284l.771.635c-13.9,16.889-29.34,44.831-45.882,83.046-8.2,18.94-16.8,40.7-25.563,64.666-6.443,17.616-12.958,36.384-19.916,57.38-4.808,14.549-9.666,29.735-14.439,45.136-5.783,18.671-11.629,38.192-17.376,58.022l-.392,1.363Q1586.519,1768.535,1584.41,1775.991Z"/>
        <path d="M1567.714,1837.344l-.968-.252s.132-.506.4-1.493l.965.257Z"/>
        <polygon points="1665.685 1534.673 1654.919 1455.155 1655.909 1455.021 1666.431 1532.737 1740.983 1469.962 1741.628 1470.728 1665.685 1534.673"/>
        <polygon points="1640.196 1599.17 1605.755 1487.611 1606.71 1487.316 1640.767 1597.627 1749.697 1528.813 1750.23 1529.658 1640.196 1599.17"/>
        <polygon points="1620.313 1656.513 1577.618 1539.636 1578.557 1539.292 1620.839 1655.036 1738.034 1585.164 1738.546 1586.023 1620.313 1656.513"/>
        <polygon points="1605.913 1701.612 1559.29 1615.062 1560.17 1614.587 1606.323 1700.265 1715.912 1642.497 1716.379 1643.382 1605.913 1701.612"/>
        <polygon points="1588.582 1759.596 1588.335 1759.233 1554.213 1708.975 1555.04 1708.412 1588.916 1758.309 1676.67 1714.137 1677.119 1715.029 1588.582 1759.596"/>
      </g>
      <g>
        <path d="M1545.951,1696.963s190.658-313.381,19.723-381.316S1504.313,1655.325,1545.951,1696.963Z" fill="#494e6d"/>
        <path d="M1547.541,1695.941l-.989-.148c.127-.845,12.773-85.484,18.4-175.031,5.19-82.552,5.327-186.255-23.5-211.5l.659-.752c12.9,11.294,21.194,38.722,24.658,81.525,2.765,34.158,2.489,78.163-.821,130.793C1560.319,1610.42,1547.668,1695.1,1547.541,1695.941Z"/>
        <polygon points="1564.476 1372.326 1507.947 1313.701 1508.667 1313.008 1564.205 1370.605 1586.043 1325.983 1586.942 1326.423 1564.476 1372.326"/>
        <polygon points="1568.191 1430.839 1478.949 1356.259 1479.59 1355.491 1567.944 1429.329 1614.73 1353.031 1615.583 1353.555 1568.191 1430.839"/>
        <polygon points="1566.933 1495.982 1472.645 1421.094 1473.267 1420.311 1566.771 1494.576 1635 1408.401 1635.783 1409.022 1566.933 1495.982"/>
        <polygon points="1562.596 1560.788 1562.257 1560.547 1481.158 1502.902 1481.737 1502.088 1562.497 1559.491 1629.1 1494.92 1629.795 1495.639 1562.596 1560.788"/>
        <polygon points="1558.2 1607.168 1493.2 1560.546 1493.783 1559.733 1558.087 1605.855 1613.875 1549.118 1614.588 1549.819 1558.2 1607.168"/>
      </g>
      <g>
        <path d="M1386.433,1637.07a292.456,292.456,0,0,0,19.351,50.6,328.046,328.046,0,0,0,62.829,88.185h108.895c.833-6.574,1.6-13.521,2.213-20.753v-.022c.219-2.783.438-5.632.636-8.5,1.972-29.87,1.249-63.816-5.961-96.337v-.022c-.307-1.359-.614-2.7-.942-4.054-.943-3.923-1.973-7.824-3.134-11.681a193.711,193.711,0,0,0-9.665-26.144c-.438-.986-.9-1.994-1.38-2.981-.263-.591-.548-1.161-.833-1.753-1.928-3.944-3.988-7.823-6.246-11.615a146.422,146.422,0,0,0-45.648-48.563,150.758,150.758,0,0,0-19.351-10.913,168.044,168.044,0,0,0-15.756-6.487c-11.528-4.1-21.915-6.443-31.185-7.188-13.982-1.183-25.421,1.227-34.472,6.465-11.856,6.859-19.613,18.605-23.624,33.639C1376.55,1579.982,1378.281,1607.441,1386.433,1637.07Z" fill="#9fa3bf"/>
        <path d="M1544.384,1776.024c-2.325-6.519-4.89-13.506-7.623-20.767-5.176-13.7-10.563-27.111-16.012-39.864-7.378-17.34-15.263-34.452-23.437-50.86A725.686,725.686,0,0,0,1448,1579.782a495.99,495.99,0,0,0-42.581-54.14l.738-.674a496.918,496.918,0,0,1,42.668,54.25,726.73,726.73,0,0,1,49.387,84.869c8.182,16.427,16.075,33.556,23.461,50.914,5.454,12.766,10.847,26.191,16.027,39.9,2.736,7.267,5.3,14.26,7.63,20.784Z"/>
        <polygon points="1449.03 1580.431 1448.281 1580.196 1382.014 1559.42 1382.313 1558.465 1447.83 1579.007 1439.761 1518.899 1440.752 1518.767 1449.03 1580.431"/>
        <polygon points="1498.21 1664.946 1386.31 1637.563 1386.547 1636.592 1497.299 1663.694 1506.056 1543.384 1507.053 1543.456 1498.21 1664.946"/>
        <polygon points="1537.563 1755.645 1537.147 1755.571 1435.582 1737.802 1435.753 1736.817 1536.903 1754.514 1573.914 1650.049 1574.856 1650.383 1537.563 1755.645"/>
        <polygon points="1571.482 1776.05 1570.56 1775.663 1579.26 1754.909 1579.697 1755.093 1580.221 1755.081 1580.182 1755.296 1571.482 1776.05"/>
        <polygon points="1521.576 1715.787 1405.66 1688.166 1405.891 1687.193 1520.848 1714.586 1551.716 1591.878 1552.686 1592.122 1521.576 1715.787"/>
      </g>
    </g>
    <path d="M683.416,342.855s175.814,56.511,332.79,0,72.837-92.93-13.814-77.86-121.814-97.953-268.743-43.954S683.416,342.855,683.416,342.855Z" fill="#fff"/>
    <g>
      <g>
        <path d="M739.841,358.712s26.994-68.688,20.027-67.288-15.674,22.527-15.674,22.527l-9.69-7.286s-1.054-52.589-8.255-54.263-6.392,43.811-6.392,43.811-6.185-38.683-14.519-43.64-1.67,43.9-1.67,43.9-7.295-33.908-13.817-34.418-6.771,92.884-6.771,92.884Z" fill="#fd8680"/>
        <g>
          <polygon points="1163.129 944.033 1188.783 1061.447 1123.161 1137.393 1004.069 1130.283 951.241 935.391 1163.129 944.033" fill="#494e6d"/>
          <g>
            <polygon points="913.509 1657.212 908.565 1705.729 857.706 1702.048 854.181 1653.197 913.509 1657.212" fill="#fd8680"/>
            <path d="M1018.683,532.008l-21.555-29.8L914.712,522.5s4.286,50.2,53.5,43.487S1018.683,532.008,1018.683,532.008Z" fill="#fff"/>
            <g>
              <g>
                <path d="M1019.1,1129.539l-.12.522-.04.241c-5.862,28.146-11.885,57.859-17.908,88.213l-.442,2.209c-9.747,49.016-17.928,98.472-24.753,145.657-23.315,161.184-30.8,295.85-30.8,295.85H835.223L843.35,1327.2l9.123-376.094,102.186,1.245Z" fill="#494e6d"/>
                <path d="M823.493,1760.839H731.24a46.127,46.127,0,0,1,92.253,0Z" fill="#fff"/>
                <path d="M823.493,1760.839H731.24a45.917,45.917,0,0,0,5.573,22H905v-22Z" fill="#19274a"/>
                <path d="M913.509,1687.751l-8.5,73.088H823.493a46.127,46.127,0,0,0-46.126-46.126s16.8-1.4,34.313-1.6c1.376-.014,2.766-.027,4.142-.014,0,0,6.115,18.485,12.438,19.36a61,61,0,0,0,14.023-.236c3.947-.5,7.547-1.362,9.492-2.613,4.962-3.2.709-19.985.709-19.985,3.433-6.74,0-21.875,0-21.875Z" fill="#68a3c1"/>
                <polygon points="1019.442 1130.382 1018.461 1130.185 1018.586 1129.571 976.455 1014.062 977.395 1013.718 978.326 1016.261 1019.623 1129.495 1019.442 1130.382" fill="#19274a"/>
                <path d="M851.775,1729.611c-1.945,1.251-5.545,2.112-9.492,2.613-4.711-4.712-6.49-14.635-7.06-18.915,6.824.055,12.119-.056,14.259-.82a5.531,5.531,0,0,0,3-2.863S856.737,1726.415,851.775,1729.611Z" fill="#494e6d"/>
                <path d="M842.283,1732.224a61,61,0,0,1-14.023.236c-6.323-.875-12.438-19.36-12.438-19.36,6.879,0,13.675.167,19.4.209C835.793,1717.589,837.572,1727.512,842.283,1732.224Z" fill="#494e6d"/>
              </g>
              <g>
                <path d="M960.725,552.972c1.793-.326,63.849.907,63.849.907s56.3.411,73.564,11.1c0,0-43.563,50.138-60,51.782s-53.426,8.22-64.933.822-13.973-3.287-14.795-17.261S960.725,552.972,960.725,552.972Z" fill="#e39739"/>
                <path d="M1156.126,951.083c-1.965,1.966-10.452,3.6-23.447,4.9-71.643,7.185-280.384,4.544-289.829-4.9-3.734-3.734-6.006-36.651-7.369-78.816,51.5,1.474,232.592,4.864,323.409-17.061-.012,17.564.381,34.625.589,49.388C1159.823,929.294,1159.639,947.571,1156.126,951.083Z" fill="#ffaa40"/>
                <path d="M1162.673,747.968c-1.351,22.293-3.329,60.319-3.722,97.511q-.055,4.882-.061,9.727c-90.817,21.925-271.909,18.535-323.409,17.061-1.18-36.233-1.683-79.32-1.88-116.585C888.75,760.533,1068.7,773.651,1162.673,747.968Z" fill="#e39739"/>
                <path d="M1142.121,979.361l-9.442-23.377c12.995-1.3,21.482-2.935,23.447-4.9,3.513-3.512.577-46.69.233-71.39l67.161-97.9-56.2-35.152-4.4-2.751c-.073,1.289-.159,2.653-.245,4.077C1068.7,773.651,888.75,760.533,833.6,755.682c-.27-49.044.013-88.016.013-88.016-50.064-12.012-107.374-26.874-120.6-34.809-37.621-22.575-29.1-277.391-29.1-277.391l60.836-2.589,18.122,177.331c37.977,5.982,148.546,15.321,197.86,22.764,0,0,11.533,49.449,60.491,51.98,42.338,2.2,70.415-44.107,70.415-44.107,54.448,26.039,207.709,104.5,224.425,169.854C1331.851,792.419,1142.121,979.361,1142.121,979.361Z" fill="#68a3c1"/>
                <path d="M1165.522,744.054l-5.206-.326c.614-9.844,1.047-15.725,1.047-15.725l5.2.382C1166.564,728.392,1166.134,734.252,1165.522,744.054Z" fill="#19274a"/>
                <rect x="729.695" y="702.302" width="210.843" height="5.217" transform="translate(120.469 1531.71) rotate(-89.329)" fill="#19274a"/>
              </g>
              <g>
                <path d="M1044.4,569.8c-14.7,18.369-32.817,18.626-53.7,4.191l5.979-43.559c35.327,1.711,50.309-19.731,55.677-30.848l-7.71,68.036Z" fill="#fd8680"/>
                <path d="M1089.472,573.839c-11.327,2.515-37.122.727-44.826-6.219l7.71-68.036v-.009l.545-4.824c.076-.007,1.078-.095,1.547-.149,9.239-1,29.7-5.563,31.463-26.487,2.064-24.39-23.633-25.064-33-15.545-2.079,13.373-6.493,38.69-9.427,33.355-4.227-7.712-13.388-11.687-25.728-27.953s-11.089-37.722-11.089-37.722c-20.962,38.911-53.018,43.194-58.515,43.639.085,18.208,4.458,62.567,44.712,66.28,1.3.119,2.572.21,3.815.263l-4.652,33.892s-15.465,3.448-27.66,1.774-30.483-4.183-29.27-13.019c6.193-45.123-6.751-81.741,10.544-126.213,11.06-28.448,42.3-41.887,57.889-27.466,0,0,23.476-20.192,55.41-5.247s40.1,47.089,37.192,75.658C1087.661,553.171,1101.4,571.2,1089.472,573.839Z" fill="#8e3332"/>
                <path d="M1054.449,494.6c-.469.054-1.471.142-1.547.149l-.545,4.824v.009a55.968,55.968,0,0,1-12.019,16.421c-8.882,8.294-22.682,15.444-43.658,14.427-1.243-.053-2.514-.144-3.815-.263-40.254-3.713-44.627-48.072-44.712-66.28,5.5-.445,37.553-4.728,58.515-43.639,0,0-1.25,21.456,11.089,37.722s21.5,20.241,25.728,27.953c2.934,5.335,7.348-19.982,9.427-33.355,9.368-9.519,35.065-8.845,33,15.545C1084.147,489.039,1063.688,493.605,1054.449,494.6Z" fill="#fd8680"/>
                <path d="M1053.113,476.822l-4.263-3.589a16.768,16.768,0,0,1,21.169-3.566l-2.715,4.863C1059.055,469.933,1053.352,476.537,1053.113,476.822Z" fill="#19274a"/>
                <path d="M1040.337,516.005c-11.534,11.011-27.978,15.349-43.658,14.427l-2.151,15.67C1022.366,544.067,1040.337,516.005,1040.337,516.005Z" fill="#19274a"/>
              </g>
            </g>
            <path d="M852.794,1093.448l-.642-.765c58.669-49.2,82.919-128.212,83.157-129l.958.287C936.028,964.762,911.7,1044.054,852.794,1093.448Z" fill="#19274a"/>
            <polygon points="835.223 1623.418 947.684 1623.418 945.036 1662.231 835.223 1662.231 835.223 1623.418" fill="none" stroke="#19274a" stroke-miterlimit="10"/>
          </g>
          <g>
            <polygon points="1487.902 1385.065 1457.887 1372.486 1432.666 1433.752 1477.499 1445.197 1487.902 1385.065" fill="#fd8680"/>
            <path d="M1452.366,1445.552s31.347-64.754,32.09-66.461c-34.177-15.38-231.316-91.866-267.464-117.9-5.3-55.727-14.605-137.347-28.209-199.739-19.643-90.012-175.493-65.638-175.493-65.638s33.506,332.927,84.834,366.077c2.329,1.5,4.84,2.99,7.508,4.446,44.743,24.431,135.27,42.075,215.86,53.7C1405.109,1432.1,1452.366,1445.552,1452.366,1445.552Z" fill="#494e6d"/>
            <polygon points="1449.579 1364.485 1421.333 1437.989 1452.366 1445.552 1484.456 1379.091 1449.579 1364.485" fill="none" stroke="#19274a" stroke-miterlimit="10"/>
            <path d="M1321.421,1420.53c-105.972-15.3-178.625-33.367-215.94-53.71l.478-.879c46.35,25.269,142.83,43.1,215.6,53.6Z" fill="#19274a"/>
            <g>
              <path d="M1544.576,1486.223l-15.727,90.9a46.127,46.127,0,1,1,15.727-90.9Z" fill="#fff"/>
              <path d="M1544.576,1486.223l-15.727,90.9a45.92,45.92,0,0,0,22.628-1.741l13.827-79.92,14.845-85.809-21.678-3.751Z" fill="#19274a"/>
              <path d="M1487.9,1385.065l70.569,20.84-13.895,80.318a46.127,46.127,0,0,0-53.315,37.588s1.481-16.8,4.275-34.084c.22-1.358.444-2.73.692-4.083,0,0,19.256-2.875,21.2-8.956a61.022,61.022,0,0,0,2.157-13.858c.18-3.975-.055-7.668-.956-9.8-2.3-5.434-19.572-4.105-19.572-4.105-6.056-4.532-21.555-3.729-21.555-3.729Z" fill="#68a3c1"/>
              <path d="M1518.626,1453.031c.9,2.131,1.136,5.824.956,9.8-5.445,3.839-15.526,3.9-19.841,3.732,1.218-6.714,2.011-11.951,1.623-14.19a5.534,5.534,0,0,0-2.31-3.446S1516.322,1447.6,1518.626,1453.031Z" fill="#494e6d"/>
              <path d="M1519.582,1462.83a61.022,61.022,0,0,1-2.157,13.858c-1.941,6.081-21.2,8.956-21.2,8.956,1.173-6.779,2.5-13.447,3.513-19.082C1504.056,1466.73,1514.137,1466.669,1519.582,1462.83Z" fill="#494e6d"/>
            </g>
          </g>
          <path d="M1193.3,1084.711c-60.723-14.1-93.094-45.819-109.558-69.947-17.848-26.159-21.371-49.307-21.4-49.537l.99-.145c.033.23,3.535,23.188,21.27,49.16,16.365,23.966,48.547,55.477,108.929,69.494Z" fill="#19274a"/>
        </g>
        <path d="M1137.984,969.119l-19.6-42.477s-34.843,9.169-39.977,14.3-33.009,25.539-27.874,28.173,24.206-5.3,24.206-5.3-42.178,34.338-33.375,40.939,25.306-10.269,25.306-10.269-27.14,26.283-15.037,30.2,29.341-19.193,29.341-19.193-12.577,13.792-2.2,19.639C1084.271,1028.235,1137.984,969.119,1137.984,969.119Z" fill="#fd8680"/>
        <polygon points="1205.186 770.327 1105.72 926.642 1153.497 986.226 1279.626 820.234 1205.186 770.327" fill="#68a3c1"/>
        <rect x="1195.239" y="720.643" width="5.218" height="90.21" transform="translate(-86.385 1375.631) rotate(-57.993)" fill="#19274a"/>
      </g>
      <g>
        <rect x="745.941" y="652.656" width="404.422" height="326.225" transform="matrix(0.982, 0.191, -0.191, 0.982, 172.786, -165.699)" fill="#e57d00"/>
        <rect x="747.793" y="633.393" width="202.211" height="326.225" transform="translate(167.298 -147.142) rotate(10.983)" fill="#ffaa40"/>
        <rect x="737.967" y="825.66" width="46.889" height="28.019" transform="translate(173.919 -129.683) rotate(10.983)" fill="#e57d00"/>
        <rect x="1120.027" y="736.653" width="46.889" height="22.015" transform="translate(163.388 -204.158) rotate(10.983)" fill="#ffaa40"/>
      </g>
    </g>
    <path d="M347.162,809.254S603.347,862,677.439,804.231s-130.6-144.418-312.7-59.023S347.162,809.254,347.162,809.254Z" fill="#fff"/>
    <path d="M1688.434,617.656s-214.744-38.93-326.511,20.093,110.435,97.86,320.193,87.86S1688.434,617.656,1688.434,617.656Z" fill="#fff"/>
    <g>
      <g>
        <path d="M424.838,1693.5c-.346,31.034-2.128,60.073-4.309,84.618H331.337c-40.687-47.494-76.667-104.962-102.542-161.285a566.911,566.911,0,0,1-26.859-69.567c-7.5-24.386-12.392-47.548-14.174-68.424-2.473-28.773.984-53.186,11.674-70.471,14.174-22.843,41.033-33.241,83.688-24.784a136.722,136.722,0,0,1,19.36,5.292v.026a126.909,126.909,0,0,1,25.13,11.914,140.984,140.984,0,0,1,33.879,29.465c14.546,17.205,25.955,37.974,34.811,61.03q2.034,5.146,3.829,10.451c7.233,20.955,12.525,43.533,16.328,66.748.346,2.1.691,4.2,1.01,6.33.4,2.606.772,5.238,1.117,7.871a711.406,711.406,0,0,1,6.09,81.215C424.891,1673.927,424.944,1683.819,424.838,1693.5Z" fill="#494e6d"/>
        <path d="M388.748,1778.252c-1.677-5.98-3.466-12.2-5.324-18.673l-.525-1.827c-6.97-24.049-14.064-47.737-21.086-70.408-5.78-18.653-11.675-37.08-17.521-54.772-8.444-25.477-16.35-48.254-24.168-69.632-10.631-29.1-21.069-55.5-31.023-78.474-20.078-46.385-38.815-80.3-55.693-100.8l.773-.635c16.936,20.575,35.723,54.57,55.838,101.039,9.961,22.994,20.406,49.415,31.044,78.529,7.822,21.387,15.731,44.174,24.178,69.661,5.848,17.7,11.745,36.132,17.528,54.79,7.023,22.677,14.119,46.371,21.09,70.427l.526,1.828c1.859,6.471,3.648,12.7,5.326,18.679Z"/>
        <path d="M409.01,1852.7s-.16-.611-.478-1.805l.966-.257c.319,1.2.48,1.81.48,1.81Z"/>
        <polygon points="289.942 1485.242 289.246 1484.657 197.935 1407.771 198.58 1407.006 289.195 1483.307 301.989 1388.808 302.98 1388.942 289.942 1485.242"/>
        <polygon points="320.89 1563.55 187.484 1479.273 188.019 1478.428 320.32 1562.007 361.687 1428.015 362.642 1428.31 320.89 1563.55"/>
        <polygon points="345.022 1633.141 344.503 1632.832 201.661 1547.669 202.173 1546.81 344.497 1631.664 395.849 1491.09 396.788 1491.434 345.022 1633.141"/>
        <polygon points="362.509 1687.881 362.07 1687.649 228.555 1617.271 229.021 1616.386 362.099 1686.533 418.154 1582.473 419.035 1582.947 362.509 1687.881"/>
        <polygon points="383.548 1758.248 276.193 1704.211 276.643 1703.318 383.214 1756.961 424.374 1696.337 425.201 1696.899 383.548 1758.248"/>
      </g>
      <g>
        <path d="M435.315,1682.383s-231.358-380.278-23.933-462.716S485.842,1631.857,435.315,1682.383Z" fill="#494e6d"/>
        <path d="M433.491,1681.128c-.155-1.025-15.506-103.774-22.342-212.483-4.016-63.859-4.351-117.252-1-158.7,4.2-51.911,14.257-85.171,29.886-98.856l.659.752c-15.427,13.508-25.368,46.542-29.548,98.182-3.351,41.4-3.016,94.742,1,158.552,6.834,108.667,22.18,211.378,22.334,212.4Z"/>
        <polygon points="412.864 1288.262 385.669 1232.697 386.567 1232.258 413.135 1286.541 480.635 1216.539 481.355 1217.232 412.864 1288.262"/>
        <polygon points="408.353 1359.288 408.05 1358.795 350.91 1265.611 351.763 1265.088 408.6 1357.778 515.91 1268.1 516.551 1268.867 408.353 1359.288"/>
        <polygon points="409.872 1438.349 326.39 1332.909 327.174 1332.288 410.034 1436.942 523.581 1346.757 524.203 1347.54 409.872 1438.349"/>
        <polygon points="415.127 1517 414.829 1516.711 333.646 1438.005 334.342 1437.286 415.226 1515.703 513.298 1445.995 513.877 1446.81 415.127 1517"/>
        <polygon points="420.463 1573.279 420.163 1572.974 352.102 1503.754 352.814 1503.053 420.576 1571.967 498.682 1515.945 499.265 1516.758 420.463 1573.279"/>
      </g>
      <g>
        <path d="M628.885,1609.705a354.987,354.987,0,0,1-23.482,61.4,398.052,398.052,0,0,1-76.242,107.009H397.021c-1.01-7.977-1.941-16.407-2.685-25.183v-.027c-.266-3.377-.532-6.834-.772-10.318-2.393-36.246-1.516-77.438,7.234-116.9v-.027c.372-1.648.744-3.27,1.143-4.919,1.144-4.76,2.393-9.494,3.8-14.174a235.086,235.086,0,0,1,11.727-31.725c.532-1.2,1.09-2.42,1.675-3.617.32-.718.665-1.41,1.011-2.128,2.34-4.786,4.84-9.493,7.579-14.094a177.687,177.687,0,0,1,55.393-58.93,183.043,183.043,0,0,1,23.482-13.243,203.693,203.693,0,0,1,19.12-7.871c13.988-4.973,26.593-7.819,37.841-8.723,16.967-1.436,30.848,1.489,41.831,7.845,14.387,8.324,23.8,22.577,28.667,40.82C640.878,1540.43,638.777,1573.751,628.885,1609.705Z" fill="#9fa3bf"/>
        <path d="M437.115,1778.285l-.942-.336c2.84-7.959,5.954-16.444,9.258-25.218,6.3-16.657,12.838-32.947,19.447-48.419,8.959-21.054,18.537-41.839,28.467-61.775,18.854-37.737,39.015-72.382,59.923-102.974a602.89,602.89,0,0,1,51.766-65.819l.738.674a601.978,601.978,0,0,0-51.679,65.71c-20.882,30.554-41.019,65.159-59.853,102.855-9.921,19.918-19.49,40.684-28.442,61.721-6.6,15.46-13.142,31.736-19.431,48.38C443.065,1761.853,439.953,1770.331,437.115,1778.285Z"/>
        <polygon points="553.053 1540.823 563.076 1466.162 564.067 1466.295 554.253 1539.399 633.917 1514.422 634.215 1515.377 553.053 1540.823"/>
        <polygon points="493.343 1643.398 482.623 1496.099 483.62 1496.026 494.254 1642.146 628.771 1609.228 629.009 1610.198 493.343 1643.398"/>
        <polygon points="445.563 1753.47 400.339 1625.824 401.282 1625.49 446.223 1752.339 569.055 1730.851 569.227 1731.835 445.563 1753.47"/>
        <polygon points="404.432 1778.311 393.835 1753.034 393.835 1752.934 394.369 1752.92 394.796 1752.74 405.354 1777.924 404.432 1778.311"/>
        <polygon points="464.97 1705.098 464.85 1704.619 427.246 1555.136 428.215 1554.892 465.699 1703.896 605.298 1670.632 605.529 1671.604 464.97 1705.098"/>
      </g>
    </g>
    <circle cx="1386.429" cy="1045.423" r="39.622" fill="#fce0c3"/>
    <circle cx="824.44" cy="176.19" r="28.767" fill="#494e6d"/>
    <circle cx="1581.302" cy="831.276" r="76.603" fill="#ffaa40"/>
    <circle cx="552.215" cy="709.379" r="47.546" fill="#fce0c3"/>
    <path d="M341,859.49l64.153,31.494a24.988,24.988,0,0,1,3.981,42.421L357.816,971.9a24.988,24.988,0,0,1-39.571-15.484l-12.83-69.985C301.714,866.24,322.581,850.446,341,859.49Z" fill="#494e6d"/>
    <path d="M1318.214,208.024l41.973,20.6a16.349,16.349,0,0,1,2.605,27.755l-33.579,25.184a16.349,16.349,0,0,1-25.89-10.131l-8.394-45.789A16.349,16.349,0,0,1,1318.214,208.024Z" fill="#ffaa40"/>
    <rect x="537.319" y="1031.335" width="183.142" height="14.088" rx="7.044" fill="#ffaa40"/>
    <rect x="1523.87" y="400.024" width="221.883" height="17.61" rx="8.805" fill="#494e6d"/>
    <rect x="330.291" y="424.678" width="108.176" height="17.61" rx="8.805" fill="#ffaa40"/>
  </g>
</svg>
