<svg xmlns="http://www.w3.org/2000/svg" width="2000" height="2000" viewBox="0 0 2000 2000">
  <g>
    <path d="M383.47,1564.824H1757.325s275.685-491.489-148.185-862.741c-364.185-318.975-499.812-474.7-965.717-45.209S-38.481,1190.593,383.47,1564.824Z" fill="#ebedfc"/>
    <g>
      <g>
        <path d="M1677.611,1516.151c-.182,16.341-1.12,31.632-2.268,44.557h-46.965c-21.424-25.009-40.37-55.269-53.995-84.927a298.337,298.337,0,0,1-14.142-36.631,175.4,175.4,0,0,1-7.464-36.029c-1.3-15.151.518-28.005,6.147-37.107,7.464-12.028,21.606-17.5,44.067-13.05a72.083,72.083,0,0,1,10.194,2.786v.014a66.848,66.848,0,0,1,13.232,6.273,74.25,74.25,0,0,1,17.84,15.515c7.659,9.06,13.666,20,18.329,32.137q1.072,2.709,2.017,5.5a214.546,214.546,0,0,1,8.6,35.147c.183,1.106.364,2.212.533,3.332.21,1.372.406,2.759.588,4.145a374.793,374.793,0,0,1,3.206,42.764C1677.639,1505.845,1677.667,1511.054,1677.611,1516.151Z" fill="#494e6d"/>
        <path d="M1658.38,1560.843q-1.329-4.74-2.814-9.87l-.265-.923c-3.664-12.644-7.4-25.116-11.1-37.07-3.041-9.814-6.144-19.516-9.224-28.836-4.448-13.419-8.61-25.41-12.724-36.658-5.6-15.314-11.09-29.213-16.33-41.309-10.564-24.4-20.419-42.243-29.291-53.022l.771-.635c8.933,10.85,18.837,28.77,29.438,53.259,5.248,12.115,10.749,26.031,16.351,41.364,4.118,11.257,8.283,23.258,12.734,36.687,3.082,9.326,6.187,19.034,9.23,28.855,3.7,11.959,7.441,24.437,11.108,37.087l.265.925c.983,3.422,1.929,6.714,2.816,9.876Z"/>
        <polygon points="1669.048 1600.042 1668.796 1599.092 1669.763 1598.834 1670.015 1599.79 1669.048 1600.042"/>
        <polygon points="1606.757 1406.951 1557.981 1365.879 1558.626 1365.115 1606.011 1405.014 1612.69 1355.682 1613.681 1355.816 1606.757 1406.951"/>
        <polygon points="1623.012 1448.09 1552.505 1403.549 1553.038 1402.704 1622.441 1446.547 1644.133 1376.288 1645.088 1376.583 1623.012 1448.09"/>
        <polygon points="1635.708 1484.719 1559.975 1439.567 1560.486 1438.708 1635.183 1483.242 1662.125 1409.49 1663.064 1409.833 1635.708 1484.719"/>
        <polygon points="1644.889 1513.512 1574.146 1476.222 1574.613 1475.337 1644.479 1512.165 1673.884 1457.577 1674.765 1458.052 1644.889 1513.512"/>
        <polygon points="1655.949 1550.551 1599.235 1522.003 1599.685 1521.11 1655.615 1549.263 1677.171 1517.513 1677.999 1518.074 1655.949 1550.551"/>
      </g>
      <g>
        <path d="M1683.128,1510.3s-121.823-200.239-12.6-243.647S1709.734,1483.693,1683.128,1510.3Z" fill="#494e6d"/>
        <path d="M1681.935,1509.672c-.082-.539-8.167-54.652-11.768-111.9-4.842-76.993.3-122.686,15.293-135.811l.658.751c-35.232,30.852-3.519,244.66-3.195,246.816Z"/>
        <polygon points="1671.242 1303.178 1656.774 1273.616 1657.673 1273.177 1671.514 1301.456 1706.821 1264.839 1707.542 1265.533 1671.242 1303.178"/>
        <polygon points="1668.872 1340.527 1668.57 1340.033 1638.482 1290.966 1639.334 1290.444 1669.12 1339.017 1725.415 1291.972 1726.056 1292.739 1668.872 1340.527"/>
        <polygon points="1669.692 1382.132 1625.588 1326.426 1626.371 1325.805 1669.854 1380.726 1729.459 1333.386 1730.08 1334.169 1669.692 1382.132"/>
        <polygon points="1672.475 1423.521 1672.177 1423.232 1629.43 1381.788 1630.125 1381.07 1672.574 1422.225 1724.054 1385.633 1724.634 1386.448 1672.475 1423.521"/>
        <polygon points="1675.281 1453.159 1639.143 1416.405 1639.855 1415.704 1675.395 1451.847 1716.357 1422.467 1716.939 1423.279 1675.281 1453.159"/>
      </g>
      <g>
        <path d="M1785.054,1472.029a186.8,186.8,0,0,1-12.364,32.332,209.611,209.611,0,0,1-40.146,56.347h-69.58c-.532-4.2-1.022-8.64-1.414-13.261v-.014c-.14-1.778-.28-3.6-.406-5.433-1.26-19.085-.8-40.776,3.809-61.556v-.014c.2-.868.392-1.722.6-2.59.6-2.507,1.26-5,2-7.464a123.783,123.783,0,0,1,6.176-16.7c.28-.63.574-1.274.882-1.9.168-.378.35-.742.532-1.12,1.232-2.521,2.548-5,3.991-7.422a93.565,93.565,0,0,1,29.167-31.03,96.324,96.324,0,0,1,12.365-6.973,106.888,106.888,0,0,1,10.068-4.145,78.947,78.947,0,0,1,19.925-4.593c8.934-.756,16.244.784,22.027,4.131,7.575,4.383,12.532,11.888,15.1,21.494C1791.369,1435.552,1790.263,1453.1,1785.054,1472.029Z" fill="#9fa3bf"/>
        <path d="M1684.3,1560.876l-.942-.336c1.5-4.207,3.142-8.676,4.876-13.283,3.318-8.778,6.764-17.36,10.245-25.505,4.718-11.09,9.763-22.039,14.995-32.541a464.428,464.428,0,0,1,31.568-54.25,317.829,317.829,0,0,1,27.279-34.684l.739.675a316.906,316.906,0,0,0-27.193,34.574,463.645,463.645,0,0,0-31.5,54.132c-5.221,10.483-10.259,21.413-14.97,32.486-3.475,8.133-6.916,16.7-10.228,25.466C1687.437,1552.211,1685.8,1556.675,1684.3,1560.876Z"/>
        <polygon points="1744.841 1436.096 1750.168 1396.414 1751.158 1396.546 1746.04 1434.672 1787.633 1421.631 1787.932 1422.585 1744.841 1436.096"/>
        <polygon points="1713.468 1490.067 1707.802 1412.226 1708.8 1412.153 1714.38 1488.814 1784.938 1471.547 1785.176 1472.519 1713.468 1490.067"/>
        <polygon points="1688.368 1547.998 1688.227 1547.599 1664.488 1480.595 1665.432 1480.261 1689.028 1546.867 1753.51 1535.585 1753.682 1536.571 1688.368 1547.998"/>
        <polygon points="1666.648 1560.901 1661.05 1547.447 1661.567 1547.44 1662.011 1547.254 1667.57 1560.515 1666.648 1560.901"/>
        <polygon points="1698.571 1522.543 1698.45 1522.064 1678.649 1443.353 1679.62 1443.108 1699.3 1521.341 1772.579 1503.88 1772.812 1504.853 1698.571 1522.543"/>
      </g>
    </g>
    <g>
      <g>
        <path d="M1023.924,1533.558c-.117,10.45-.717,20.228-1.451,28.493H992.44a238.962,238.962,0,0,1-34.528-54.308,191.029,191.029,0,0,1-9.044-23.425,112.191,112.191,0,0,1-4.772-23.039c-.833-9.689.331-17.909,3.931-23.729,4.772-7.692,13.816-11.193,28.179-8.345a46.062,46.062,0,0,1,6.519,1.781V1431a42.758,42.758,0,0,1,8.462,4.012,47.464,47.464,0,0,1,11.407,9.921,71.128,71.128,0,0,1,11.722,20.55q.684,1.734,1.289,3.52a137.194,137.194,0,0,1,5.5,22.475c.116.707.233,1.415.34,2.131.134.878.26,1.764.376,2.651a239.521,239.521,0,0,1,2.051,27.346C1023.942,1526.968,1023.959,1530.3,1023.924,1533.558Z" fill="#494e6d"/>
        <path d="M1011.452,1562.186c-.586-2.087-1.211-4.262-1.861-6.525l-.108-.375c-2.348-8.1-4.737-16.078-7.1-23.7-1.939-6.255-3.923-12.458-5.9-18.437-2.846-8.589-5.508-16.255-8.134-23.437-3.574-9.78-7.085-18.664-10.439-26.406-6.748-15.59-13.041-26.983-18.7-33.862l.771-.636c5.724,6.952,12.066,18.425,18.851,34.1,3.361,7.759,6.88,16.662,10.46,26.46,2.63,7.191,5.294,14.866,8.145,23.466,1.977,5.985,3.963,12.194,5.9,18.455,2.362,7.629,4.753,15.61,7.1,23.72l.108.376c.651,2.266,1.277,4.443,1.863,6.532Z"/>
        <rect x="1018.176" y="1586.504" width="1" height="0.63" transform="matrix(0.966, -0.257, 0.257, 0.966, -373.575, 315.076)"/>
        <polygon points="978.749 1464.077 947.308 1437.602 947.952 1436.837 978.003 1462.14 982.229 1430.918 983.22 1431.052 978.749 1464.077"/>
        <polygon points="989.111 1490.313 943.825 1461.705 944.358 1460.859 988.541 1488.771 1002.343 1444.067 1003.298 1444.362 989.111 1490.313"/>
        <polygon points="997.223 1513.725 948.606 1484.74 949.118 1483.88 996.697 1512.247 1013.851 1465.29 1014.79 1465.633 997.223 1513.725"/>
        <polygon points="1003.072 1532.113 957.677 1508.184 958.144 1507.299 1002.662 1530.767 1021.381 1496.016 1022.262 1496.491 1003.072 1532.113"/>
        <polygon points="1010.132 1555.788 973.724 1537.461 974.173 1536.568 1009.798 1554.5 1023.492 1534.328 1024.32 1534.889 1010.132 1555.788"/>
      </g>
      <g>
        <path d="M1027.452,1529.815s-77.9-128.047-8.059-155.805S1044.465,1512.8,1027.452,1529.815Z" fill="#494e6d"/>
        <path d="M1026.51,1529.442c-.053-.345-5.224-34.957-7.527-71.576-3.1-49.293.211-78.562,9.841-86.993l.658.752c-22.457,19.664-2.191,156.291-1.984,157.668Z"/>
        <polygon points="1019.802 1397.678 1010.437 1378.543 1011.335 1378.104 1020.073 1395.957 1042.473 1372.726 1043.193 1373.42 1019.802 1397.678"/>
        <polygon points="1018.29 1421.524 1017.988 1421.03 998.748 1389.653 999.6 1389.131 1018.538 1420.014 1054.377 1390.063 1055.018 1390.831 1018.29 1421.524"/>
        <polygon points="1018.83 1448.11 990.515 1412.347 991.298 1411.726 1018.992 1446.704 1056.967 1416.544 1057.588 1417.327 1018.83 1448.11"/>
        <polygon points="1020.621 1474.558 1020.323 1474.269 992.987 1447.766 993.683 1447.048 1020.721 1473.261 1053.518 1449.948 1054.098 1450.764 1020.621 1474.558"/>
        <polygon points="1022.413 1493.513 999.195 1469.9 999.908 1469.199 1022.526 1492.201 1048.596 1473.503 1049.178 1474.316 1022.413 1493.513"/>
      </g>
      <g>
        <path d="M1092.63,1505.343a119.424,119.424,0,0,1-7.907,20.676,134.024,134.024,0,0,1-25.672,36.032h-44.494c-.34-2.686-.653-5.525-.9-8.48v-.009c-.09-1.137-.179-2.3-.26-3.474-.806-12.2-.51-26.075,2.436-39.363v-.009c.125-.555.251-1.1.385-1.657.385-1.6.806-3.2,1.28-4.772a79.15,79.15,0,0,1,3.949-10.683c.179-.4.367-.815.564-1.218.108-.241.224-.474.341-.716.788-1.612,1.629-3.2,2.552-4.746a59.836,59.836,0,0,1,18.651-19.843,61.713,61.713,0,0,1,7.907-4.459,68.716,68.716,0,0,1,6.438-2.65,50.469,50.469,0,0,1,12.742-2.937c5.713-.484,10.387.5,14.085,2.641,4.845,2.8,8.015,7.6,9.653,13.745C1096.669,1482.017,1095.961,1493.237,1092.63,1505.343Z" fill="#9fa3bf"/>
        <path d="M1028.37,1562.219l-.941-.336c.949-2.663,2-5.522,3.119-8.5,2.118-5.606,4.322-11.1,6.553-16.317,3.017-7.091,6.246-14.1,9.594-20.819a297.33,297.33,0,0,1,20.2-34.712,203.4,203.4,0,0,1,17.459-22.2l.739.675a202.142,202.142,0,0,0-17.373,22.089,295.957,295.957,0,0,0-20.13,34.594c-3.34,6.705-6.56,13.691-9.569,20.764-2.225,5.209-4.425,10.685-6.538,16.278C1030.365,1556.708,1029.318,1559.561,1028.37,1562.219Z"/>
        <polygon points="1066.699 1482.622 1070.143 1456.965 1071.133 1457.098 1067.898 1481.198 1094.226 1472.943 1094.524 1473.897 1066.699 1482.622"/>
        <polygon points="1046.688 1517.104 1043.05 1467.114 1044.048 1467.042 1047.601 1515.851 1092.513 1504.86 1092.751 1505.832 1046.688 1517.104"/>
        <polygon points="1030.684 1554.127 1015.361 1510.881 1016.305 1510.547 1031.344 1552.996 1072.428 1545.809 1072.6 1546.794 1030.684 1554.127"/>
        <polygon points="1016.747 1562.244 1013.153 1553.571 1013.664 1553.567 1014.114 1553.378 1017.669 1561.857 1016.747 1562.244"/>
        <polygon points="1037.195 1537.863 1037.074 1537.384 1024.412 1487.05 1025.383 1486.806 1037.924 1536.661 1084.611 1525.536 1084.844 1526.508 1037.195 1537.863"/>
      </g>
    </g>
    <g>
      <g>
        <path d="M509.674,1512.746c-.2,18.218-1.249,35.265-2.529,49.674H454.786c-23.885-27.881-45.007-61.617-60.2-94.681a332.925,332.925,0,0,1-15.768-40.838,195.62,195.62,0,0,1-8.32-40.168c-1.452-16.891.577-31.222,6.853-41.369,8.321-13.41,24.088-19.514,49.128-14.549a80.29,80.29,0,0,1,11.365,3.106v.016a74.457,74.457,0,0,1,14.752,6.994,82.765,82.765,0,0,1,19.889,17.3c8.539,10.1,15.236,22.292,20.435,35.827q1.194,3.021,2.247,6.135a239.05,239.05,0,0,1,9.585,39.184c.2,1.233.406,2.466.594,3.715.234,1.53.453,3.076.655,4.621a417.576,417.576,0,0,1,3.575,47.676C509.705,1501.256,509.736,1507.063,509.674,1512.746Z" fill="#494e6d"/>
        <path d="M488.289,1562.555c-.965-3.442-1.993-7.021-3.06-10.739l-.373-1.294c-4.094-14.126-8.258-28.032-12.377-41.328-3.392-10.947-6.852-21.764-10.285-32.15-4.963-14.974-9.6-28.343-14.185-40.87-6.236-17.068-12.362-32.563-18.207-46.057-11.779-27.211-22.768-47.1-32.663-59.125l.771-.636c9.955,12.094,20.994,32.067,32.81,59.363,5.853,13.512,11.986,29.026,18.228,46.112,4.586,12.536,9.23,25.915,14.2,40.9,3.434,10.393,6.9,21.215,10.291,32.168,4.12,13.3,8.286,27.213,12.382,41.347l.372,1.3q1.6,5.58,3.063,10.745Z"/>
        <polygon points="500.182 1606.256 499.902 1605.198 500.869 1604.94 501.15 1606.006 500.182 1606.256"/>
        <polygon points="430.639 1390.891 376.341 1345.17 376.985 1344.406 429.893 1388.955 437.354 1333.853 438.344 1333.987 430.639 1390.891"/>
        <polygon points="448.771 1436.779 370.229 1387.162 370.762 1386.316 448.2 1435.236 472.405 1356.835 473.36 1357.13 448.771 1436.779"/>
        <polygon points="462.928 1477.618 378.556 1427.315 379.067 1426.456 462.402 1476.141 492.463 1393.854 493.402 1394.196 462.928 1477.618"/>
        <polygon points="473.17 1509.726 394.353 1468.179 394.819 1467.294 472.76 1508.379 505.568 1447.471 506.449 1447.946 473.17 1509.726"/>
        <polygon points="485.505 1551.022 422.321 1519.218 422.771 1518.325 485.171 1549.734 509.23 1514.296 510.059 1514.857 485.505 1551.022"/>
      </g>
      <g>
        <path d="M515.825,1506.22s-135.816-223.237-14.05-271.632S545.486,1476.559,515.825,1506.22Z" fill="#494e6d"/>
        <path d="M514.55,1505.514c-.091-.6-9.1-60.928-13.118-124.753-5.4-85.817.333-136.743,17.03-151.363l.658.752c-39.3,34.415-3.943,272.811-3.582,275.215Z"/>
        <polygon points="502.589 1275.212 486.495 1242.328 487.394 1241.889 502.86 1273.49 542.28 1232.608 543.001 1233.302 502.589 1275.212"/>
        <polygon points="499.945 1316.863 499.644 1316.369 466.101 1261.667 466.952 1261.145 500.193 1315.353 563.005 1262.861 563.646 1263.629 499.945 1316.863"/>
        <polygon points="500.854 1363.253 451.72 1301.194 452.503 1300.573 501.017 1361.847 567.512 1309.033 568.133 1309.816 500.854 1363.253"/>
        <polygon points="503.953 1409.402 503.655 1409.112 455.998 1362.909 456.693 1362.191 504.053 1408.105 561.483 1367.283 562.063 1368.098 503.953 1409.402"/>
        <polygon points="507.083 1442.442 466.828 1401.502 467.541 1400.801 507.196 1441.131 552.903 1408.347 553.485 1409.16 507.083 1442.442"/>
      </g>
      <g>
        <path d="M629.458,1463.555a208.33,208.33,0,0,1-13.785,36.046,233.676,233.676,0,0,1-44.757,62.819H493.345c-.593-4.683-1.14-9.632-1.577-14.784v-.015c-.156-1.983-.312-4.012-.452-6.057-1.4-21.278-.89-45.46,4.246-68.627v-.015c.218-.968.437-1.92.671-2.888.671-2.8,1.4-5.573,2.232-8.321a137.975,137.975,0,0,1,6.885-18.624c.312-.7.64-1.42.983-2.123.188-.421.39-.827.594-1.249,1.373-2.81,2.841-5.573,4.449-8.274a104.307,104.307,0,0,1,32.517-34.594,107.4,107.4,0,0,1,13.785-7.774,119.725,119.725,0,0,1,11.224-4.621,88.075,88.075,0,0,1,22.215-5.12c9.96-.843,18.109.874,24.556,4.605,8.445,4.886,13.972,13.254,16.829,23.963C636.5,1422.889,635.265,1442.449,629.458,1463.555Z" fill="#9fa3bf"/>
        <path d="M517.076,1562.588l-.941-.336c1.651-4.631,3.48-9.613,5.435-14.808,3.7-9.78,7.537-19.346,11.419-28.432,5.264-12.368,10.888-24.573,16.717-36.275a517.6,517.6,0,0,1,35.19-60.474A354.117,354.117,0,0,1,615.3,1383.6l.738.674a352.983,352.983,0,0,0-30.32,38.552,516.6,516.6,0,0,0-35.121,60.356c-5.82,11.683-11.436,23.87-16.692,36.22-3.876,9.075-7.713,18.627-11.4,28.393C520.553,1552.985,518.726,1557.962,517.076,1562.588Z"/>
        <polygon points="584.694 1423.413 590.621 1379.263 591.611 1379.396 585.894 1421.989 632.35 1407.424 632.648 1408.378 584.694 1423.413"/>
        <polygon points="549.701 1483.594 543.39 1396.879 544.388 1396.807 550.613 1482.341 629.342 1463.074 629.58 1464.046 549.701 1483.594"/>
        <polygon points="521.704 1548.185 521.563 1547.786 495.098 1473.087 496.041 1472.753 522.364 1547.054 594.3 1534.469 594.472 1535.454 521.704 1548.185"/>
        <polygon points="497.505 1562.613 491.269 1547.636 491.788 1547.628 492.229 1547.443 498.427 1562.227 497.505 1562.613"/>
        <polygon points="533.083 1519.803 532.962 1519.324 510.887 1431.572 511.857 1431.328 533.812 1518.601 615.563 1499.121 615.796 1500.093 533.083 1519.803"/>
      </g>
    </g>
    <ellipse cx="1487.482" cy="1518.379" rx="173.457" ry="34.691" fill="#494e6d"/>
    <g>
      <path d="M1711.1,1048.855c-9.722,219.48-229.775,463.968-229.775,463.968s-208.006-237.233-218.441-463.968C1255.9,897.2,1363.22,809.441,1486.991,809.441S1716.873,918.482,1711.1,1048.855Z" fill="#68a3c1"/>
      <circle cx="1486.353" cy="1046.197" r="136.889" fill="#494e6d"/>
    </g>
    <g>
      <path d="M437.872,1325.958c-1.468,33.147-34.7,70.07-34.7,70.07s-31.413-35.828-32.989-70.07c-1.054-22.9,15.153-36.156,33.845-36.156S438.744,1306.269,437.872,1325.958Z" fill="#68a3c1"/>
      <circle cx="403.931" cy="1325.557" r="20.673" fill="#494e6d"/>
    </g>
    <g>
      <path d="M922.6,734.044c-2.241,50.577-52.949,106.916-52.949,106.916s-47.933-54.667-50.338-106.916c-1.608-34.947,23.122-55.17,51.643-55.17S923.927,704,922.6,734.044Z" fill="#68a3c1"/>
      <circle cx="870.807" cy="733.432" r="31.544" fill="#494e6d"/>
    </g>
    <path d="M222.727,973.338s256.185,52.744,330.278-5.023S422.4,823.9,240.308,909.292,222.727,973.338,222.727,973.338Z" fill="#fff"/>
    <path d="M629.609,600.363s175.813,56.511,332.789,0,72.837-92.93-13.814-77.86-121.813-97.954-268.743-43.954S629.609,600.363,629.609,600.363Z" fill="#fff"/>
    <path d="M1649.326,625.479s-214.744-38.93-326.511,20.093,110.435,97.86,320.193,87.86S1649.326,625.479,1649.326,625.479Z" fill="#fff"/>
    <rect x="695.782" y="1272.343" width="49.264" height="2" transform="translate(-722.087 1517.455) rotate(-70.105)" fill="#19274a"/>
    <g>
      <g>
        <path d="M1109.013,1022.386l24.4-1.849,21.728.292,13.978,4.065s-5.807,24.414-23.859,26.67S1111.689,1041.159,1109.013,1022.386Z" fill="#5a174a"/>
        <path d="M1322.383,1555.865h-52.5a26.306,26.306,0,0,1,48.263-12.761v.006c.446.679.863,1.382,1.244,2.1l.113.221A26.015,26.015,0,0,1,1322.383,1555.865Z" fill="#fff"/>
        <path d="M1123.169,1276.859v.016l-34.945,45.729-20.9,27.347s8.113,35.565,13.513,59.34c7.057,31.077,17.206,74.638,17.719,77.637.015.031-12.228,2.851-12.228,2.882l-30.017,8.179s-42.05-134.97-45.25-150.478c-1.881-9.152,17.092-56.543,32.941-93.773,10.97-25.778,20.432-46.708,20.432-46.708l17.9.808,10.178.467c2.207,4.381,9.82,19.811,18.878,40.461Z" fill="#494e6d"/>
        <path d="M1044.175,1254.722l-.36-1.968c.256-.047,25.743-5.2,37.558-45.2l1.918.566C1071.1,1249.379,1045.269,1254.523,1044.175,1254.722Z" fill="#19274a"/>
        <rect x="1057.592" y="1353.813" width="12.163" height="2" transform="translate(-658.388 1392.527) rotate(-53.119)" fill="#19274a"/>
        <path d="M1218.848,1373.073c-4.573-12.177-7.252-61.135-6.394-107.456.565-30.589,1.429-54.932,1.429-54.932l-43.779-1.31-77.589-1.077c2.2,4.382,9.819,19.823,18.876,40.462,3.233,7.359,6.645,15.38,10.057,23.794.584,1.435,1.727,4.317,1.727,4.317,21.711,54.7,34.214,118.226,55.274,143.9,17.114,20.863,72.984,91.326,72.984,91.326l47.178-28.408S1222.4,1382.523,1218.848,1373.073Z" fill="#494e6d"/>
        <path d="M1212.233,1266.593c-12.451-2.8-22.824-10.841-30.832-23.886a99.392,99.392,0,0,1-11.3-28.281l-.977-4.853,1.961-.395.97,4.823c9.24,39.528,31.483,48.583,40.618,50.641Z" fill="#19274a"/>
        <path d="M1087.894,1499.558l-21.383,7.9-4.812-10.8.054-.018,24.575-6.824C1086.328,1492.1,1087.894,1499.558,1087.894,1499.558Z" fill="#fd8680"/>
        <path d="M1093.67,1532.38l-34.013,20.716-23.89,14.548a16.088,16.088,0,0,1-5.526-6.8l27.677-17.113a21.946,21.946,0,0,0-12.773-12.035c2.222-1.179,4.943-2.578,7.747-3.912.536-.256,1.072-.512,1.608-.75,0,0,5.711,6.079,8.325,5.276a25.964,25.964,0,0,0,5.407-2.62,10.866,10.866,0,0,0,3.221-2.728c1.352-2.137-.994-11-.994-11,.119-3.239-3.948-8.5-3.948-8.5l21.383-7.9L1094.7,1521l.143.446,1.578,3.406A5.669,5.669,0,0,1,1093.67,1532.38Z" fill="#ffaa40"/>
        <path d="M1071.453,1526.961a10.866,10.866,0,0,1-3.221,2.728,2.675,2.675,0,0,1-.471-.227c-.006-.006-.012-.006-.018-.012a2.531,2.531,0,0,1-.232-.155,5.163,5.163,0,0,1-1.066-1.089c-.065-.084-.125-.167-.184-.256-.161-.227-.31-.465-.453-.715-.077-.125-.149-.25-.214-.381-.167-.3-.322-.613-.465-.923-.095-.2-.184-.393-.274-.6s-.172-.393-.256-.59-.16-.387-.238-.577c-.155-.382-.3-.745-.44-1.084-.072-.167-.137-.328-.2-.483a.646.646,0,0,0-.042-.089c-.035-.083-.065-.161-.1-.238-.083-.173-.161-.333-.232-.476a32.563,32.563,0,0,0,6.467-4.187,2.39,2.39,0,0,0,.649-1.655S1072.805,1524.824,1071.453,1526.961Z" fill="#19274a"/>
        <path d="M1068.232,1529.689a25.964,25.964,0,0,1-5.407,2.62c-2.614.8-8.325-5.276-8.325-5.276,2.674-1.245,6.449-4.139,8.682-5.157.054-.024.107-.048.161-.077.071.143.149.3.232.476.036.077.066.155.1.238a.646.646,0,0,1,.042.089c.06.155.131.316.2.483.136.339.285.7.44,1.084.078.19.155.381.238.577s.167.393.256.59.179.4.274.6c.143.31.3.619.465.923.065.131.137.256.214.381.143.25.292.488.453.715.059.089.119.172.184.256a5.163,5.163,0,0,0,1.066,1.089,2.531,2.531,0,0,0,.232.155c.006.006.012.006.018.012A2.675,2.675,0,0,0,1068.232,1529.689Z" fill="#19274a"/>
        <path d="M1093.67,1532.38l-34.013,20.716-23.89,14.548a16.088,16.088,0,0,1-5.526-6.8l27.677-17.113L1094.7,1521l.143.446,1.578,3.406A5.669,5.669,0,0,1,1093.67,1532.38Z" fill="#19274a"/>
        <path d="M1057.918,1543.73l-27.677,17.113a19.761,19.761,0,0,1,9.605-26.248s2.155-1.227,5.3-2.9A21.946,21.946,0,0,1,1057.918,1543.73Z" fill="#fff"/>
        <path d="M1319.393,1545.212l-23.259-44.445L1271.2,1516.88l-1.316,38.985a26.306,26.306,0,0,1,48.263-12.761v.006C1318.6,1543.789,1319.012,1544.492,1319.393,1545.212Zm-40.575-25.581-1.066-1.846a2.281,2.281,0,0,1,.84-3.114l9.873-5.7a2.279,2.279,0,0,1,3.114.834l1.066,1.846a2.279,2.279,0,0,1-.834,3.114l-9.879,5.7A2.279,2.279,0,0,1,1278.818,1519.631Zm16.554,2.465-9.879,5.7a2.279,2.279,0,0,1-3.114-.834l-1.066-1.84a2.29,2.29,0,0,1,.834-3.12l9.879-5.7a2.279,2.279,0,0,1,3.114.834l1.066,1.846A2.284,2.284,0,0,1,1295.372,1522.1Z" fill="#ffaa40"/>
        <path d="M1295.372,1522.1l-9.879,5.7a2.279,2.279,0,0,1-3.114-.834l-1.066-1.84a2.29,2.29,0,0,1,.834-3.12l9.879-5.7a2.279,2.279,0,0,1,3.114.834l1.066,1.846A2.284,2.284,0,0,1,1295.372,1522.1Z" fill="#19274a"/>
        <path d="M1291.811,1514.766l-9.879,5.7a2.279,2.279,0,0,1-3.114-.834l-1.066-1.846a2.281,2.281,0,0,1,.84-3.114l9.873-5.7a2.279,2.279,0,0,1,3.114.834l1.066,1.846A2.279,2.279,0,0,1,1291.811,1514.766Z" fill="#19274a"/>
        <path d="M1269.886,1555.865h52.5a0,0,0,0,1,0,0v3.525a6.242,6.242,0,0,1-6.242,6.242h-40.012a6.242,6.242,0,0,1-6.242-6.242v-3.525A0,0,0,0,1,1269.886,1555.865Z" fill="#19274a"/>
        <g>
          <path d="M1241.02,1165.569c-3.286,4.3-14.758,7.259-29.331,9.289l3.145,41.01c-25.045,0-151.686,10.956-153.875,8.761-1.036-1.03-2.422-26.915-3.593-53.94-21.9.968-108.537,4.788-114.282,4.788-6.572,0-5.842-17.529-4.071-22.538,1.791-5.064,67.546-22.929,80.347-26.363,11.594-29.232,35.033-87.863,38.313-92.394,2.213-3.059,15.3-6.039,27.712-8.246,12.139-2.146,23.628-3.55,23.628-3.55,17.063,36.633,44.616,34.751,60.109,2.508,0,0,7.578,2.041,17.271,5.1,14.481,4.567,33.677,11.4,39.4,17.124C1237.384,1058.712,1252.5,1150.542,1241.02,1165.569Z" fill="#68a3c1"/>
          <path d="M1019.621,1127.542l-.521-1.931c1.389-.375,2.157-.578,2.157-.578l.51,1.934S1021,1127.169,1019.621,1127.542Z" fill="#19274a"/>
          <path d="M1056.367,1170.731c-1.291-29.884-2.345-61.585-2.354-61.9l2-.067c.01.317,1.064,32.008,2.354,61.883Z" fill="#19274a"/>
          <path d="M1013.829,1143.288l-1.861-.733s2.563-6.512,6.463-16.347l1.859.737C1016.392,1136.777,1013.829,1143.287,1013.829,1143.288Z" fill="#19274a"/>
          <path d="M1127.418,1180.249c-2.494,0-3.927-.013-4.013-.014l-.99-.009V1157.47l.641-.246c27.868-10.725,69.9-27.151,72.878-28.984.805-1.953.508-17-.257-30.662l2-.113c.632,11.277,1.434,30.452-.291,32.179-1.666,1.666-55.416,22.443-72.967,29.2v19.4c7.444.036,55.108.081,87.137-4.374l.275,1.98C1182.608,1179.913,1140.484,1180.248,1127.418,1180.249Z" fill="#19274a"/>
          <path d="M1090.861,1201.1c-1.864-.977-18.277-9.6-20.435-11.763l1.414-1.414c1.471,1.472,12.736,7.627,19.949,11.4Z" fill="#19274a"/>
          <rect x="1174.059" y="1191.971" width="21.906" height="2" transform="translate(-492.762 1081.129) rotate(-41.378)" fill="#19274a"/>
        </g>
        <g>
          <path d="M1155.144,996.335c-.473-.062-.957-.151-1.457-.267-2.809,4.309-12.043,17.569-21.235,20.537a11,11,0,0,1-4.32.562c-24.994-2.1-21.347-33.918-20.158-41.311.671.353-.414,3.026,1.395,2.623,4.445-1,14.314-9.176,14.76-9.548q2.529,1,4.983,2.027,6.487,2.7,12.443,5.6,5.172,2.511,9.908,5.173c2.1-1.414,6.351-3.8,10.307-3.127a7.282,7.282,0,0,1,3.592,1.7c.159.132.314.276.465.427C1170.074,984.974,1166.963,997.97,1155.144,996.335Z" fill="#fd8680"/>
          <path d="M1124.684,969.764l-.61-.914.778.777Zm-.555-.832-.691-.719Z" fill="#2dea43"/>
          <path d="M1124.129,968.931c-.446.372-10.315,8.552-14.76,9.548-1.809.4-.724-2.27-1.395-2.623-2.716-1.442-9.916,8.959-11.3,6.289s8.738-10.125,7.421-12.566c-1.9-3.507-15.83,5.672-15.83,1.98,0-5.449,16.31-7.8,20.433-8.3q3.779,1.3,7.424,2.627Q1120.207,967.382,1124.129,968.931Z" fill="#8e3332"/>
          <path d="M1161.77,978.6c-3.956-.678-8.207,1.713-10.307,3.127q-4.731-2.661-9.908-5.173c2.1-4.281,5.715-10.125,7.777-13.364C1155.934,967.629,1161.057,972.915,1161.77,978.6Z" fill="#68a3c1"/>
          <path d="M1122.253,951.064a121.932,121.932,0,0,0-6.134,14.818q-3.643-1.332-7.424-2.627s2.678-11.8,7.006-13.133a8.858,8.858,0,0,1,3.4.214C1120.022,950.506,1121.079,950.75,1122.253,951.064Z" fill="#494e6d"/>
          <path d="M1135.653,955.838a160.38,160.38,0,0,0-6.541,15.12q-2.452-1.029-4.983-2.027-3.918-1.551-8.01-3.049a121.932,121.932,0,0,1,6.134-14.818A98.1,98.1,0,0,1,1135.653,955.838Z" fill="#68a3c1"/>
          <path d="M1149.332,963.189c-2.062,3.239-5.681,9.083-7.777,13.364q-5.948-2.894-12.443-5.6a160.38,160.38,0,0,1,6.541-15.12A87.738,87.738,0,0,1,1149.332,963.189Z" fill="#494e6d"/>
          <path d="M1171.457,965.053c-.251-5.22-2.832-11.6-7.742-16.833a30.83,30.83,0,0,0-6.533-5.305,33.225,33.225,0,0,0-15.593-4.7c-13.174-.737-20.494,9-22.486,12.121.919.17,1.976.414,3.15.728a98.1,98.1,0,0,1,13.4,4.774,87.738,87.738,0,0,1,13.679,7.351c6.6,4.44,11.725,9.726,12.438,15.41a7.282,7.282,0,0,1,3.592,1.7C1167.156,977.142,1171.636,968.838,1171.457,965.053Zm-25.369-8.436c-1.53-.2-10.981-5.572-10.726-7.766.152-1.294,3.356-3.859,4.643-3.313s9.892,3.709,9.892,5.638S1147.623,956.815,1146.088,956.617Z" fill="#494e6d"/>
          <path d="M1163.715,948.22a30.83,30.83,0,0,0-6.533-5.305,4.453,4.453,0,0,1,6.533-.841C1167.61,944.845,1163.715,948.22,1163.715,948.22Z" fill="#68a3c1"/>
          <path d="M1149.9,951.176c0,1.93-2.274,5.639-3.809,5.441s-10.981-5.572-10.726-7.766c.152-1.294,3.356-3.859,4.643-3.313S1149.9,949.247,1149.9,951.176Z" fill="#fefefe"/>
          <path d="M1155.347,989.44l-1.6-1.2a8.185,8.185,0,0,1,9.113-2.784l-.664,1.886A6.217,6.217,0,0,0,1155.347,989.44Z" fill="#cc5754"/>
          <path d="M1155.144,996.335v24.494q-9,18.269-23.153,13.058l.461-17.282c9.192-2.968,18.426-16.228,21.235-20.537C1154.187,996.184,1154.671,996.273,1155.144,996.335Z" fill="#fd8680"/>
          <path d="M1132.452,1016.605c5.17-1.67,10.354-6.6,14.4-11.353,0,0-1.208,11.948-14.861,19.433l.461-8.08v0Z" fill="#cc5754"/>
        </g>
        <path d="M944.863,1151.349s-27.594-6.325-26.665-3.762,9.438,4.661,9.438,4.661l-2.212,4.092s-19.888,3.4-20.112,6.223,16.983-.072,16.983-.072-14.321,4.551-15.727,8,16.749-1.869,16.749-1.869-12.447,4.7-12.268,7.2,32.043-2.188,32.043-2.188Z" fill="#fd8680"/>
        <g>
          <rect x="913.133" y="1055.475" width="197.754" height="159.517" fill="#e57d00"/>
          <rect x="913.133" y="1055.475" width="98.877" height="159.517" fill="#ffaa40"/>
          <rect x="913.133" y="1157.253" width="22.928" height="13.701" fill="#e57d00"/>
          <rect x="1087.959" y="1078.962" width="22.928" height="10.765" fill="#ffaa40"/>
        </g>
        <path d="M1125.383,1157.863s-27.594-6.325-26.666-3.762,9.439,4.662,9.439,4.662l-2.212,4.091s-19.888,3.4-20.112,6.223,16.982-.072,16.982-.072-14.32,4.551-15.726,7.995,16.748-1.869,16.748-1.869-12.446,4.7-12.267,7.2,32.042-2.188,32.042-2.188Z" fill="#fd8680"/>
        <rect x="1113.944" y="1236.685" width="2.001" height="41.867" transform="translate(-404.688 539.689) rotate(-23.154)" fill="#19274a"/>
      </g>
      <polygon points="1296.134 1500.767 1289.698 1489.054 1261.127 1506.258 1271.202 1516.88 1296.134 1500.767" fill="#fd8680"/>
    </g>
    <g>
      <g>
        <g>
          <path d="M594.153,1135.086c13.828,6.911,30.75-2.289,50.985-12.344l2.215,102.189h50.912V1043c-10.566.142-33.538,1.241-43.395,7.812-9.7,6.464-28.736,26.862-47.3,45.092l-21.688-45.092H563.318S577.662,1126.837,594.153,1135.086Z" fill="#494e6d"/>
          <path d="M743.97,1044.086v180.732s40.352.719,42.522-1.451c1.24-1.24,1.535-39.989,1.563-72.858,9.189,14.645,18.038,27.782,24.768,37.5,2.634,15.358,17.93,73.815,17.93,76.727,0,3.178,16.779,1.411,19.957,0,2.38-1.059-4.333-77.82-4.333-85.916s-36.6-90.255-46.142-105.879C792.247,1059.869,755.68,1047.706,743.97,1044.086Zm12.729,70.7h19.669v5.116H756.7Z" fill="#494e6d"/>
          <path d="M811.837,1188.185a21.689,21.689,0,0,1-.4-3.289h2a19.451,19.451,0,0,0,.376,2.942Z" fill="#19274a"/>
          <path d="M824.164,1205.736c-.049-.066-4.908-6.671-12.164-17.155l1.645-1.138c7.237,10.458,12.081,17.042,12.128,17.107Z" fill="#19274a"/>
          <polygon points="787.056 1150.509 787.056 1150.504 789.056 1150.504 787.056 1150.509" fill="#19274a"/>
          <path d="M787.056,1150.509v-.005c.016-24.218-.114-45.521-.115-45.733l2-.013c0,.212.131,21.522.115,45.746Z" fill="#19274a"/>
          <rect x="643.843" y="1097.243" width="2.001" height="33.919" transform="translate(-25.144 14.936) rotate(-1.302)" fill="#19274a"/>
          <path d="M698.265,1050.816v174.115H743.97V1050.816a23.089,23.089,0,0,1-2.487,2.748v0C735.722,1059.127,720.245,1069.641,698.265,1050.816Z" fill="#ffaa40"/>
          <rect x="756.699" y="1114.791" width="19.669" height="5.116" fill="#e2daf1"/>
          <polygon points="743.97 1044.086 735.659 1043.134 708.467 1042.776 698.265 1043.004 698.091 1059.234 723.136 1077.481 744.604 1058.519 743.97 1044.086" fill="#ffaa40"/>
        </g>
        <g>
          <path d="M729.182,1249.139l9.074-25.079,41.643-.512,9.555,291.029H747.522s-10.447-92.886-27.99-181.112l-.17-.9-7.319-35.971-.015-.094-.047-.217,16.813-46.1Z" fill="#68a3c1"/>
          <polygon points="587.553 1516.764 634.83 1526.605 712.03 1296.505 728.799 1250.182 729.178 1249.145 738.254 1224.066 652.621 1223.551 643.364 1270.633 587.553 1516.764" fill="#68a3c1"/>
          <path d="M791.72,1553.618h37.605a18.8,18.8,0,0,0-37.605,0Z" fill="#fff"/>
          <path d="M583.525,1564.9h49.943a25.026,25.026,0,0,0-45.915-12.141v.006A24.826,24.826,0,0,0,583.525,1564.9Z" fill="#fff"/>
          <path d="M791.72,1553.618h37.605a18.723,18.723,0,0,1-2.272,8.968H758.5v-8.968Z" fill="#19274a"/>
          <path d="M755.028,1523.826l3.467,29.792H791.72a18.8,18.8,0,0,1,18.8-18.8s-6.849-.572-13.987-.652c-.56,0-1.127-.011-1.688,0,0,0-2.492,7.534-5.07,7.891a24.9,24.9,0,0,1-5.716-.1,10.428,10.428,0,0,1-3.869-1.065c-2.023-1.3-.289-8.147-.289-8.147-1.4-2.747,0-8.916,0-8.916Z" fill="#ffac32"/>
          <path d="M587.553,1552.762a25.031,25.031,0,0,1,41.247-.923l-2.215-19.34h-34.71Z" fill="#ffac32"/>
          <path d="M779.358,1277.618c-.226-.147-22.721-15.174-26.2-53.657l1.992-.179c3.392,37.525,25.079,52.017,25.3,52.158Z" fill="#19274a"/>
          <path d="M643.85,1271.5l-.971-1.749c27.1-15.031,36.173-45.5,36.261-45.808l1.922.555C680.971,1224.816,671.659,1256.077,643.85,1271.5Z" fill="#19274a"/>
          <path d="M780.192,1540.889a10.428,10.428,0,0,0,3.869,1.065c1.92-1.921,2.646-5.966,2.878-7.71a24.068,24.068,0,0,1-5.812-.335,2.255,2.255,0,0,1-1.224-1.167S778.169,1539.586,780.192,1540.889Z" fill="#494e6d"/>
          <path d="M784.061,1541.954a24.9,24.9,0,0,0,5.716.1c2.578-.357,5.07-7.891,5.07-7.891-2.8,0-5.574.068-7.908.085C786.707,1535.988,785.981,1540.033,784.061,1541.954Z" fill="#494e6d"/>
          <path d="M591.622,1564.9H625.37a8.1,8.1,0,0,1,8.1,8.1v0a0,0,0,0,1,0,0H583.525a0,0,0,0,1,0,0v0a8.1,8.1,0,0,1,8.1-8.1Z" transform="translate(1216.992 3137.903) rotate(180)" fill="#19274a"/>
        </g>
        <g>
          <path d="M708.67,1043.139q14.452,14.882,26.745,0l-1.428-17.3a32.356,32.356,0,0,1-11.514,1.985,23.586,23.586,0,0,1-10.652-2.576Z" fill="#fd8680"/>
          <path d="M733.332,1026.076a27.323,27.323,0,0,1-22.733,6.11l1.222-6.939Z" fill="#cc5754"/>
          <path d="M691.036,984.569a12.739,12.739,0,0,1,4.321,3.687c14.551-3.235,21.87-24.848,21.87-24.848,6.615,27.175,30.132,28.742,30.132,28.742,1.377-1.689,4.7-5.148,8.916-5.3-1.541-8.278-6.213-24.852-19.543-31.867a30.589,30.589,0,0,0-17.709-3.071,28.809,28.809,0,0,0-14.323,5.165C695.551,963.674,692.181,975.179,691.036,984.569Z" fill="#8e3332"/>
          <path d="M683.8,1000.505a16.36,16.36,0,0,0,12.6,9.854c3.518,5.4,8.671,11.518,15.42,14.888a23.586,23.586,0,0,0,10.652,2.576,32.356,32.356,0,0,0,11.514-1.985c6.631-2.5,11.923-7.311,15.919-14.149a9.684,9.684,0,0,0,9.343-2.952c5.605-5.609,7.51-17.867.967-21.03a8.253,8.253,0,0,0-3.941-.862c-4.211.157-7.539,3.616-8.916,5.3,0,0-23.517-1.567-30.132-28.742,0,0-7.319,21.613-21.87,24.848a12.739,12.739,0,0,0-4.321-3.687,4.716,4.716,0,0,0-1.955-.456C684.029,984.113,679.5,990.321,683.8,1000.505Z" fill="#fd8680"/>
          <path d="M751.289,1003.623l-1.846-.771a8.6,8.6,0,0,1,5.622-5.26l.553,1.922A6.629,6.629,0,0,0,751.289,1003.623Z" fill="#cc5754"/>
          <path d="M755.617,999.511l-.551-1.923a8.348,8.348,0,0,1,3.128-.3l-.258,1.983A6.517,6.517,0,0,0,755.617,999.511Z" fill="#cc5754"/>
          <path d="M696.089,999.433c-1.75-3.6-8.116-4.47-8.18-4.478l.258-1.984c.3.04,7.5,1.02,9.721,5.586Z" fill="#cc5754"/>
          <path d="M689.813,999.891l-1.466-1.36c.114-.124,2.851-3.046,5.825-3.369l.217,1.988C692.53,997.352,690.456,999.2,689.813,999.891Z" fill="#cc5754"/>
          <path d="M754.222,1001.444a4.64,4.64,0,0,1-1.634-1.508l1.707-1.042a2.771,2.771,0,0,0,.95.832Z" fill="#19274a"/>
          <path d="M756.312,1002.365a9.772,9.772,0,0,1-2.093-.918l1.029-1.715a7.915,7.915,0,0,0,1.618.712Z" fill="#19274a"/>
          <polygon points="754.342 998.553 754.342 998.549 756.342 998.549 754.342 998.553" fill="#19274a"/>
          <polygon points="753.733 1000.589 753.733 1000.585 755.733 1000.585 753.733 1000.589" fill="#cc5754"/>
          <path d="M704.7,957.072a28.809,28.809,0,0,1,14.323-5.165,30.589,30.589,0,0,1,17.709,3.071,27.456,27.456,0,0,0,2.459-19.573c-2.446-9.5-12.186-16.067-20.489-16.067-12.186,0-19.5,12.637-19.953,18.331A27.728,27.728,0,0,0,704.7,957.072Z" fill="#8e3332"/>
        </g>
        <path d="M585.882,1050.816s4.156-26.645,1.652-25.572-3.936,9.3-3.936,9.3l-4.293-1.789s-5.009-18.605-7.872-18.605,1.431,16.1,1.431,16.1-5.724-13.238-9.3-14.312,3.22,15.743,3.22,15.743-5.725-11.449-8.229-11.091,4.765,30.223,4.765,30.223Z" fill="#fd8680"/>
        <path d="M830.753,1264.739l-2.784,21.334s3.4,1.431,4.294-1.968,1.61-8.229,1.61-8.229l3.756,3.578-2.325,19.321s1.61.537,3.041-1.61,5.009-16.1,5.009-16.1l-1.252,14.312s.894,1.073,3.041-2.684,3.578-11.986,3.578-11.986l-.179,9.482a7.05,7.05,0,0,0,3.578-5.367c.358-3.757-.895-20.752-.895-20.752Z" fill="#fd8680"/>
      </g>
      <polygon points="591.875 1532.499 593.273 1517.955 627.36 1525.227 626.585 1532.499 591.875 1532.499" fill="#fd8680"/>
      <polygon points="755.028 1523.826 753.478 1514.577 781.059 1514.577 779.903 1523.826 755.028 1523.826" fill="#fd8680"/>
    </g>
  </g>
</svg>
