<svg xmlns="http://www.w3.org/2000/svg" width="2000" height="2000" viewBox="0 0 2000 2000">
  <g>
    <path d="M341.019,1595.625l1317.375-11.08s333.662-107.258,128.044-350.89c-146.512-173.6-290.757-112.436-253.625-366.895,83.721-573.735-734.966-622-891.383-273.324-177.292,395.212-88.646,449.385-336.115,487.551S123.1,1596.857,341.019,1595.625Z" fill="#ebedfc"/>
    <ellipse cx="464.138" cy="1183.176" rx="123.119" ry="24.624" fill="#494e6d"/>
    <g>
      <g>
        <path d="M527.6,1537.134c-.181,16.213-1.111,31.384-2.251,44.207h-46.6c-21.256-24.812-40.053-54.834-53.57-84.259a296.254,296.254,0,0,1-14.032-36.343,174.05,174.05,0,0,1-7.4-35.745c-1.291-15.032.515-27.786,6.1-36.816,7.4-11.934,21.437-17.366,43.72-12.948A71.564,71.564,0,0,1,463.677,1378v.014a66.25,66.25,0,0,1,13.129,6.224,73.681,73.681,0,0,1,17.7,15.393c7.6,8.988,13.559,19.838,18.185,31.883q1.063,2.688,2,5.46a212.949,212.949,0,0,1,8.53,34.87c.18,1.1.361,2.2.528,3.307.208,1.361.4,2.737.583,4.112a371.857,371.857,0,0,1,3.182,42.428C527.625,1526.91,527.652,1532.078,527.6,1537.134Z" fill="#494e6d"/>
        <path d="M508.514,1581.476q-1.3-4.622-2.743-9.617l-.313-1.091c-3.646-12.577-7.351-24.951-11.014-36.778-3.019-9.742-6.1-19.368-9.152-28.61-4.42-13.333-8.549-25.23-12.624-36.37-5.556-15.2-11.006-28.992-16.2-40.984-10.48-24.21-20.257-41.908-29.06-52.6l.772-.635c8.862,10.766,18.688,28.545,29.206,52.841,5.2,12.009,10.66,25.816,16.222,41.038,4.079,11.149,8.211,23.055,12.634,36.4,3.056,9.248,6.138,18.88,9.158,28.628,3.665,11.833,7.372,24.213,11.02,36.8l.313,1.093c.957,3.332,1.879,6.54,2.745,9.623Z"/>
        <rect x="518.956" y="1619.279" width="1" height="0.977" transform="translate(-397.783 187.233) rotate(-14.85)"/>
        <polygon points="457.303 1428.8 408.905 1388.048 409.55 1387.283 456.557 1426.864 463.183 1377.927 464.173 1378.061 457.303 1428.8"/>
        <polygon points="473.43 1469.615 403.473 1425.421 404.006 1424.576 472.859 1468.072 494.378 1398.37 495.333 1398.665 473.43 1469.615"/>
        <polygon points="486.025 1505.955 410.884 1461.156 411.396 1460.296 485.5 1504.478 512.229 1431.311 513.168 1431.654 486.025 1505.955"/>
        <polygon points="495.133 1534.521 424.944 1497.522 425.411 1496.638 494.723 1533.174 523.895 1479.019 524.775 1479.494 495.133 1534.521"/>
        <polygon points="506.106 1571.269 449.835 1542.944 450.284 1542.05 505.772 1569.98 527.156 1538.483 527.984 1539.045 506.106 1571.269"/>
      </g>
      <g>
        <path d="M533.071,1531.327s-120.866-198.664-12.5-241.731S559.466,1504.931,533.071,1531.327Z" fill="#494e6d"/>
        <path d="M531.882,1530.707c-.081-.536-8.1-54.223-11.675-111.025-4.8-76.389.3-121.724,15.175-134.746l.658.752c-34.954,30.607-3.491,242.731-3.17,244.871Z"/>
        <polygon points="521.277 1325.843 506.92 1296.508 507.818 1296.069 521.549 1324.121 556.574 1287.796 557.295 1288.49 521.277 1325.843"/>
        <polygon points="518.926 1362.897 518.624 1362.404 488.772 1313.723 489.624 1313.2 519.174 1361.388 575.022 1314.715 575.663 1315.482 518.926 1362.897"/>
        <polygon points="519.739 1404.175 475.979 1348.904 476.763 1348.283 519.901 1402.769 579.034 1355.803 579.655 1356.586 519.739 1404.175"/>
        <polygon points="522.5 1445.238 522.202 1444.949 479.791 1403.831 480.486 1403.113 522.6 1443.941 573.672 1407.639 574.252 1408.455 522.5 1445.238"/>
        <polygon points="525.284 1474.642 489.428 1438.176 490.141 1437.475 525.397 1473.331 566.035 1444.184 566.617 1444.996 525.284 1474.642"/>
      </g>
      <g>
        <path d="M634.2,1493.359a185.362,185.362,0,0,1-12.268,32.078,207.954,207.954,0,0,1-39.829,55.9H513.065c-.528-4.168-1.014-8.572-1.4-13.157v-.014c-.139-1.764-.278-3.57-.4-5.39-1.25-18.935-.792-40.455,3.779-61.072v-.014c.194-.861.389-1.708.6-2.57.6-2.486,1.251-4.959,1.987-7.4a122.7,122.7,0,0,1,6.127-16.574c.278-.625.569-1.264.875-1.89.167-.375.347-.736.528-1.111,1.222-2.5,2.528-4.96,3.959-7.363A92.827,92.827,0,0,1,558.049,1434a95.636,95.636,0,0,1,12.268-6.919,106.59,106.59,0,0,1,9.988-4.112,78.394,78.394,0,0,1,19.769-4.557c8.864-.75,16.116.778,21.853,4.1,7.516,4.348,12.434,11.795,14.977,21.325C640.46,1457.169,639.363,1474.576,634.2,1493.359Z" fill="#9fa3bf"/>
        <path d="M534.236,1581.509l-.941-.336c1.48-4.152,3.107-8.585,4.837-13.179,3.288-8.7,6.707-17.214,10.163-25.3,4.683-11,9.688-21.867,14.878-32.286a460.886,460.886,0,0,1,31.32-53.823,315.292,315.292,0,0,1,27.066-34.412l.738.675a314.269,314.269,0,0,0-26.979,34.3,459.8,459.8,0,0,0-31.251,53.705c-5.18,10.4-10.177,21.245-14.852,32.231-3.45,8.078-6.864,16.578-10.148,25.265C537.341,1572.935,535.715,1577.363,534.236,1581.509Z"/>
        <polygon points="594.293 1457.714 599.579 1418.338 600.569 1418.471 595.492 1456.29 636.752 1443.354 637.051 1444.308 594.293 1457.714"/>
        <polygon points="563.168 1511.261 557.546 1434.026 558.544 1433.954 564.08 1510.008 634.078 1492.877 634.316 1493.849 563.168 1511.261"/>
        <polygon points="538.267 1568.734 538.125 1568.336 514.573 1501.859 515.517 1501.525 538.927 1567.604 602.897 1556.412 603.069 1557.397 538.267 1568.734"/>
        <polygon points="516.717 1581.534 511.162 1568.185 511.68 1568.177 512.123 1567.991 517.639 1581.147 516.717 1581.534"/>
        <polygon points="548.389 1543.481 548.268 1543.002 528.623 1464.91 529.594 1464.666 549.117 1542.279 621.817 1524.956 622.05 1525.929 548.389 1543.481"/>
      </g>
    </g>
    <g>
      <g>
        <path d="M1465.757,1543.3c-.181,16.212-1.112,31.383-2.251,44.206h-46.6c-21.256-24.812-40.052-54.834-53.57-84.259a296.131,296.131,0,0,1-14.031-36.342,174.059,174.059,0,0,1-7.4-35.746c-1.292-15.032.514-27.785,6.1-36.815,7.4-11.934,21.436-17.366,43.72-12.948a71.428,71.428,0,0,1,10.114,2.764v.014a66.3,66.3,0,0,1,13.128,6.224,73.662,73.662,0,0,1,17.7,15.393c7.6,8.989,13.56,19.839,18.186,31.883q1.062,2.69,2,5.46a212.757,212.757,0,0,1,8.53,34.871c.181,1.1.361,2.195.528,3.306.209,1.362.4,2.737.584,4.112a371.855,371.855,0,0,1,3.181,42.428C1465.784,1533.075,1465.812,1538.243,1465.757,1543.3Z" fill="#494e6d"/>
        <path d="M1446.673,1587.641q-1.383-4.929-2.934-10.283l-.122-.425c-3.626-12.513-7.331-24.887-11.013-36.778-3.02-9.742-6.1-19.367-9.153-28.61-4.406-13.294-8.535-25.191-12.623-36.369-5.552-15.195-11-28.983-16.2-40.984-10.48-24.213-20.258-41.911-29.06-52.6l.772-.635c8.861,10.765,18.687,28.543,29.206,52.841,5.206,12.019,10.665,25.826,16.224,41.039,4.091,11.187,8.223,23.093,12.632,36.4,3.056,9.248,6.138,18.88,9.159,28.628,3.684,11.9,7.391,24.277,11.019,36.8l.122.426q1.541,5.356,2.936,10.289Z"/>
        <polygon points="1457.256 1626.531 1457.007 1625.589 1457.974 1625.332 1458.225 1626.279 1457.256 1626.531"/>
        <polygon points="1395.463 1434.965 1347.064 1394.213 1347.709 1393.448 1394.717 1433.029 1401.342 1384.092 1402.332 1384.226 1395.463 1434.965"/>
        <polygon points="1411.589 1475.78 1341.632 1431.586 1342.165 1430.741 1411.019 1474.237 1432.537 1404.536 1433.492 1404.831 1411.589 1475.78"/>
        <polygon points="1424.185 1512.121 1349.043 1467.321 1349.555 1466.462 1423.659 1510.643 1450.388 1437.477 1451.327 1437.819 1424.185 1512.121"/>
        <polygon points="1433.293 1540.686 1363.104 1503.688 1363.57 1502.803 1432.883 1539.339 1462.055 1485.185 1462.936 1485.659 1433.293 1540.686"/>
        <polygon points="1444.266 1577.434 1387.995 1549.109 1388.444 1548.216 1443.932 1576.146 1465.316 1544.648 1466.145 1545.21 1444.266 1577.434"/>
      </g>
      <g>
        <path d="M1471.23,1537.493s-120.865-198.664-12.5-241.731S1497.626,1511.1,1471.23,1537.493Z" fill="#494e6d"/>
        <path d="M1470.041,1536.873c-.081-.536-8.1-54.224-11.674-111.025-4.8-76.389.3-121.724,15.174-134.746l.658.752c-34.953,30.606-3.491,242.731-3.17,244.87Z"/>
        <polygon points="1459.437 1332.008 1445.08 1302.674 1445.979 1302.234 1459.708 1330.287 1494.733 1293.961 1495.454 1294.656 1459.437 1332.008"/>
        <polygon points="1457.085 1369.063 1456.783 1368.569 1426.933 1319.888 1427.784 1319.366 1457.333 1367.553 1513.182 1320.88 1513.822 1321.648 1457.085 1369.063"/>
        <polygon points="1457.899 1410.34 1414.139 1355.07 1414.922 1354.449 1458.062 1408.934 1517.193 1361.969 1517.814 1362.752 1457.899 1410.34"/>
        <polygon points="1460.66 1451.404 1460.362 1451.114 1417.951 1409.996 1418.646 1409.278 1460.76 1450.107 1511.831 1413.805 1512.411 1414.62 1460.66 1451.404"/>
        <polygon points="1463.444 1480.808 1427.588 1444.341 1428.301 1443.64 1463.558 1479.496 1504.195 1450.349 1504.777 1451.162 1463.444 1480.808"/>
      </g>
      <g>
        <path d="M1572.354,1499.524a185.375,185.375,0,0,1-12.267,32.078,207.958,207.958,0,0,1-39.83,55.9h-69.032c-.528-4.168-1.014-8.572-1.4-13.156v-.014c-.139-1.765-.278-3.571-.4-5.39-1.25-18.936-.792-40.456,3.779-61.072v-.014c.194-.862.389-1.709.6-2.57.6-2.487,1.25-4.96,1.987-7.4a122.8,122.8,0,0,1,6.126-16.574c.278-.625.57-1.264.875-1.889.167-.375.348-.737.528-1.112,1.223-2.5,2.529-4.959,3.96-7.363a92.827,92.827,0,0,1,28.938-30.786,95.618,95.618,0,0,1,12.267-6.918,106.184,106.184,0,0,1,9.989-4.112,78.341,78.341,0,0,1,19.769-4.557c8.864-.75,16.116.778,21.853,4.1,7.516,4.349,12.434,11.8,14.976,21.325C1578.62,1463.334,1577.522,1480.741,1572.354,1499.524Z" fill="#9fa3bf"/>
        <path d="M1472.4,1587.674l-.942-.336c1.487-4.17,3.114-8.6,4.838-13.178,3.285-8.7,6.705-17.21,10.163-25.305,4.68-11,9.686-21.863,14.878-32.285a460.819,460.819,0,0,1,31.32-53.824,315.338,315.338,0,0,1,27.065-34.411l.738.675a314.092,314.092,0,0,0-26.977,34.3,459.472,459.472,0,0,0-31.251,53.706c-5.183,10.4-10.18,21.248-14.853,32.23-3.453,8.083-6.867,16.583-10.147,25.266C1475.507,1579.081,1473.881,1583.509,1472.4,1587.674Z"/>
        <polygon points="1532.452 1463.879 1537.738 1424.503 1538.729 1424.636 1533.651 1462.456 1574.911 1449.519 1575.21 1450.473 1532.452 1463.879"/>
        <polygon points="1501.327 1517.426 1495.706 1440.192 1496.704 1440.12 1502.239 1516.173 1572.238 1499.042 1572.477 1500.014 1501.327 1517.426"/>
        <polygon points="1476.427 1574.9 1476.285 1574.501 1452.732 1508.025 1453.676 1507.691 1477.087 1573.769 1541.057 1562.577 1541.229 1563.563 1476.427 1574.9"/>
        <polygon points="1454.876 1587.699 1449.321 1574.35 1449.838 1574.343 1450.282 1574.156 1455.798 1587.313 1454.876 1587.699"/>
        <polygon points="1486.549 1549.646 1486.428 1549.167 1466.782 1471.075 1467.753 1470.831 1487.277 1548.444 1559.977 1531.121 1560.209 1532.094 1486.549 1549.646"/>
      </g>
    </g>
    <g>
      <rect x="1395.44" y="1289.264" width="11.549" height="141.474" transform="translate(920.72 -532.65) rotate(31.61)" fill="#494e6d"/>
      <rect x="1375.229" y="1276.272" width="11.549" height="141.474" transform="translate(910.912 -523.985) rotate(31.61)" fill="#494e6d"/>
      <ellipse cx="736.43" cy="1087.88" rx="23.82" ry="28.15" fill="#ffaa40"/>
      <path d="M766.746,1147.068s-20.211-1.443-40.422,41.865-85.173,183.339-85.173,183.339l118.377,25.985Z" fill="#494e6d"/>
      <path d="M726.324,1035.91H729.9a45.51,45.51,0,0,1,45.51,45.51v12.2a45.51,45.51,0,0,1-45.51,45.51h-3.573a0,0,0,0,1,0,0V1035.91A0,0,0,0,1,726.324,1035.91Z" fill="#494e6d"/>
      <path d="M767.467,1147.79s-1.443-80.842,5.775-92.391,50.526-12.993,53.414,18.767,4.33,85.173,4.33,95.278-51.97,132.813,34.647,301.716H973.9s72.181-67.85,47.64-166.016l197.775-1.444s186.226,17.324,163.128,207.881H784.791s25.985-70.737-60.632-121.264C724.159,1390.317,702.505,1257.505,767.467,1147.79Z" fill="#68a3c1"/>
      <path d="M724.159,1390.317s-129.2-41.143-152.3,96c0,0-24.542,8.661-30.316-5.775S592.068,1288.542,724.159,1390.317Z" fill="#494e6d"/>
      <circle cx="678.685" cy="1489.205" r="93.113" fill="#494e6d"/>
      <circle cx="679.407" cy="1489.927" r="47.639" fill="#9fa3bf"/>
      <g>
        <circle cx="1199.83" cy="1490.648" r="93.113" fill="#494e6d"/>
        <circle cx="1200.552" cy="1491.37" r="47.639" fill="#9fa3bf"/>
      </g>
      <path d="M1074.442,1511.581s-16.808-137.144,78.471-151.58,191.382,83.73,206.127,151.58Z" fill="#494e6d"/>
      <rect x="1008.551" y="1253.174" width="210.768" height="50.527" rx="15.491" fill="#494e6d"/>
      <rect x="1220.041" y="1279.881" width="304.757" height="27.429" rx="12.716" fill="#494e6d"/>
      <rect x="794.193" y="1077.924" width="73.624" height="14.877" rx="6.897" transform="translate(303.261 -175.617) rotate(14.729)" fill="#494e6d"/>
    </g>
    <rect x="1223.724" y="1112.627" width="283.606" height="167.492" fill="#e57d00"/>
    <rect x="1223.724" y="1112.627" width="141.803" height="167.492" fill="#ffaa40"/>
    <rect x="1223.724" y="1219.493" width="32.882" height="14.386" fill="#e57d00"/>
    <rect x="1474.448" y="1137.288" width="32.882" height="11.303" fill="#ff9e1d"/>
    <path d="M477.682,694.393s142.818,96.033,248.7,35.7,155.13-9.85,190.835-61.56-72.64-114.5-180.985-80.027-110.807-171.136-258.55-44.323S477.682,694.393,477.682,694.393Z" fill="#fff"/>
    <path d="M1401.075,432.15s-156.361-49.248-235.157-7.388,128.043,179.754,363.2,55.4S1401.075,432.15,1401.075,432.15Z" fill="#fff"/>
    <path d="M1573.442,838.443s2.462-103.42-91.108-73.872-158.824-9.849-205.609,44.323,135.431,135.431,285.636,83.721S1573.442,838.443,1573.442,838.443Z" fill="#fff"/>
    <g>
      <path d="M463.4,1136.5h-.064a3,3,0,0,1-2.936-3.063l.213-10a3,3,0,1,1,6,.128l-.213,10A3,3,0,0,1,463.4,1136.5Z" fill="#68a3c1"/>
      <path d="M1668.535,1369.949a3,3,0,0,1-2.81-4.048c2.355-6.322,4.666-12.663,6.87-18.846a3,3,0,0,1,5.652,2.014c-2.214,6.21-4.535,12.577-6.9,18.926A3,3,0,0,1,1668.535,1369.949Zm13.495-37.87a3,3,0,0,1-2.841-3.966c2.158-6.35,4.277-12.756,6.3-19.038a3,3,0,1,1,5.711,1.84c-2.033,6.313-4.163,12.748-6.33,19.127A3,3,0,0,1,1682.03,1332.079Zm12.319-38.267a3,3,0,0,1-2.871-3.873c1.945-6.408,3.847-12.878,5.653-19.234a3,3,0,0,1,5.771,1.64c-1.815,6.39-3.727,12.9-5.684,19.337A3,3,0,0,1,1694.349,1293.812Zm10.981-38.672a3.045,3.045,0,0,1-.768-.1,3,3,0,0,1-2.134-3.666c1.71-6.484,3.364-13.02,4.915-19.428a3,3,0,0,1,5.832,1.411c-1.561,6.448-3.225,13.024-4.946,19.547A3,3,0,0,1,1705.33,1255.14Zm9.452-39.074a3,3,0,0,1-2.933-3.643c1.444-6.587,2.812-13.187,4.065-19.614a3,3,0,1,1,5.889,1.148c-1.262,6.473-2.639,13.118-4.093,19.751A3,3,0,0,1,1714.782,1216.066Zm7.686-39.458a3,3,0,0,1-2.962-3.5c1.122-6.628,2.159-13.284,3.082-19.782a3,3,0,1,1,5.939.843c-.929,6.551-1.974,13.26-3.105,19.941A3,3,0,0,1,1722.468,1176.608Zm5.636-39.8a3,3,0,0,1-2.986-3.336c.754-6.679,1.4-13.379,1.938-19.914a3,3,0,1,1,5.98.487c-.537,6.6-1.2,13.359-1.955,20.1A3,3,0,0,1,1728.1,1136.808Zm-1264.062-30.4h-.064a3,3,0,0,1-2.936-3.063l.428-20.1a3,3,0,0,1,3-2.936h.064a3,3,0,0,1,2.936,3.064l-.428,20.1A3,3,0,0,1,464.042,1106.407Zm1267.308-9.664-.147,0a3,3,0,0,1-2.853-3.14c.322-6.718.525-13.441.6-19.983a3,3,0,1,1,6,.071c-.078,6.613-.282,13.409-.608,20.2A3,3,0,0,1,1731.35,1096.743ZM464.9,1066.21h-.064a3,3,0,0,1-2.936-3.063l.427-20.1a3,3,0,1,1,6,.127l-.426,20.1A3,3,0,0,1,464.9,1066.21Zm1266.9-9.657a3,3,0,0,1-3-2.919c-.183-6.715-.5-13.423-.956-19.939a3,3,0,0,1,5.986-.415c.457,6.6.783,13.393.968,20.191a3,3,0,0,1-2.918,3.081Zm-1266.047-30.54h-.064a3,3,0,0,1-2.936-3.064l.428-20.1a3,3,0,0,1,6,.128l-.428,20.1A3,3,0,0,1,465.752,1026.013ZM1729,1016.5a3,3,0,0,1-2.977-2.658c-.763-6.639-1.69-13.277-2.753-19.729a3,3,0,0,1,5.92-.975c1.079,6.547,2.019,13.282,2.794,20.019a3,3,0,0,1-2.637,3.323A3.133,3.133,0,0,1,1729,1016.5ZM466.607,985.816h-.064a3,3,0,0,1-2.936-3.063l.428-20.1a3,3,0,1,1,6,.128l-.428,20.1A3,3,0,0,1,466.607,985.816Zm1255.84-8.9a3,3,0,0,1-2.927-2.358c-1.426-6.506-3.041-13-4.8-19.307a3,3,0,0,1,5.779-1.612c1.789,6.413,3.431,13.019,4.881,19.634a3,3,0,0,1-2.288,3.573A3.048,3.048,0,0,1,1722.447,976.919ZM467.463,945.62H467.4a3,3,0,0,1-2.935-3.063l.427-20.1a2.964,2.964,0,0,1,3.062-2.937,3,3,0,0,1,2.936,3.063l-.427,20.1A3,3,0,0,1,467.463,945.62Zm1244.188-7.327a3,3,0,0,1-2.837-2.023c-2.164-6.286-4.538-12.535-7.056-18.577a3,3,0,0,1,5.539-2.308c2.565,6.157,4.985,12.527,7.19,18.93a3,3,0,0,1-2.836,3.978ZM468.317,905.422h-.066a3,3,0,0,1-2.934-3.065l.028-1.266.309-.61c.132-.26,3.311-6.5,9.64-17.348a3,3,0,1,1,5.182,3.023c-5.141,8.811-8.226,14.643-9.165,16.448A3,3,0,0,1,468.317,905.422Zm1227.894-4.137a3,3,0,0,1-2.69-1.666c-2.943-5.93-6.115-11.81-9.428-17.476a3,3,0,1,1,5.179-3.029c3.382,5.784,6.621,11.785,9.624,17.837a3,3,0,0,1-2.685,4.334Zm-1207.884-30.9a3,3,0,0,1-2.54-4.592c3.514-5.615,7.2-11.339,10.971-17.011a3,3,0,1,1,5,3.319c-3.736,5.627-7.4,11.305-10.883,16.875A3,3,0,0,1,488.327,870.386Zm1187.633-3.714a3,3,0,0,1-2.481-1.308c-3.723-5.453-7.683-10.833-11.769-15.992a3,3,0,1,1,4.7-3.725c4.173,5.269,8.218,10.764,12.022,16.333a3,3,0,0,1-2.475,4.692ZM510.611,836.8a3,3,0,0,1-2.453-4.723c3.848-5.49,7.821-11.011,11.809-16.41a3,3,0,0,1,4.826,3.564c-3.958,5.36-7.9,10.841-11.723,16.291A3,3,0,0,1,510.611,836.8Zm1140.441-1.573a2.991,2.991,0,0,1-2.215-.975c-4.439-4.855-9.118-9.629-13.911-14.189a3,3,0,1,1,4.136-4.347c4.893,4.656,9.671,9.53,14.2,14.487a3,3,0,0,1-2.213,5.024Zm-29.074-27.677a2.991,2.991,0,0,1-1.915-.692c-5.048-4.189-10.338-8.291-15.722-12.19a3,3,0,1,1,3.519-4.859c5.49,3.976,10.885,8.159,16.036,12.432a3,3,0,0,1-1.918,5.309Zm-1087.44-3.154a3,3,0,0,1-2.367-4.841c4.112-5.293,8.349-10.61,12.592-15.8a3,3,0,1,1,4.646,3.795c-4.212,5.156-8.418,10.435-12.5,15.69A3,3,0,0,1,534.538,804.393Zm1054.916-20.426a2.983,2.983,0,0,1-1.6-.465c-5.546-3.507-11.319-6.918-17.156-10.136a3,3,0,0,1,2.9-5.254c5.942,3.276,11.818,6.748,17.466,10.319a3,3,0,0,1-1.607,5.536ZM560.016,773.218a3,3,0,0,1-2.275-4.956c4.383-5.1,8.879-10.2,13.363-15.153a3,3,0,1,1,4.449,4.025c-4.449,4.919-8.911,9.979-13.261,15.039A2.993,2.993,0,0,1,560.016,773.218Zm994.243-8.68a3,3,0,0,1-1.3-.295c-5.915-2.836-12.048-5.572-18.227-8.132a3,3,0,1,1,2.3-5.543c6.278,2.6,12.51,5.382,18.524,8.264a3,3,0,0,1-1.3,5.706ZM1517.1,749.122a3.019,3.019,0,0,1-1-.174c-6.208-2.2-12.6-4.3-19-6.223a3,3,0,1,1,1.728-5.746c6.49,1.953,12.976,4.077,19.276,6.314a3,3,0,0,1-1,5.829Zm-930.076-5.748a3,3,0,0,1-2.171-5.07c4.639-4.867,9.394-9.725,14.132-14.436a3,3,0,1,1,4.231,4.254c-4.7,4.674-9.417,9.493-14.02,14.322A2.994,2.994,0,0,1,587.021,743.374Zm891.52-5.862a3,3,0,0,1-.729-.09c-6.433-1.606-13-3.085-19.527-4.395a3,3,0,1,1,1.182-5.882c6.614,1.328,13.275,2.827,19.8,4.456a3,3,0,0,1-.724,5.911Zm-39.52-7.931a2.933,2.933,0,0,1-.455-.035c-6.731-1.024-13.413-1.871-19.862-2.516a3,3,0,1,1,.6-5.969c6.55.654,13.335,1.514,20.167,2.554a3,3,0,0,1-.448,5.966ZM1399,725.066a2.983,2.983,0,0,1-1.8-.6c-5.345-4.024-10.769-8.036-16.12-11.925a3,3,0,1,1,3.527-4.853c5.378,3.908,10.829,7.94,16.2,11.984a3,3,0,0,1-1.806,5.4Zm-783.442-10.06a3,3,0,0,1-2.057-5.185c4.906-4.617,9.922-9.2,14.908-13.635a3,3,0,0,1,3.986,4.485c-4.944,4.393-9.917,8.941-14.783,13.519A2.983,2.983,0,0,1,615.558,715.006Zm750.921-13.57a2.983,2.983,0,0,1-1.718-.543c-5.475-3.835-11.033-7.654-16.522-11.351a3,3,0,0,1,3.352-4.977c5.519,3.718,11.108,7.558,16.612,11.414a3,3,0,0,1-1.724,5.457ZM645.634,688.29a3,3,0,0,1-1.928-5.3c5.181-4.337,10.459-8.621,15.689-12.733a3,3,0,0,1,3.709,4.716c-5.182,4.075-10.413,8.32-15.546,12.618A2.992,2.992,0,0,1,645.634,688.29Zm687.5-9.308a2.978,2.978,0,0,1-1.625-.481c-5.636-3.641-11.335-7.244-16.939-10.709a3,3,0,0,1,3.155-5.1c5.638,3.486,11.371,7.11,17.04,10.773a3,3,0,0,1-1.631,5.52Zm-655.886-15.55a3,3,0,0,1-1.781-5.416c5.438-4,10.977-7.947,16.464-11.717a3,3,0,0,1,3.4,4.946c-5.433,3.732-10.918,7.636-16.3,11.6A2.985,2.985,0,0,1,677.251,663.432Zm621.694-5.582a2.983,2.983,0,0,1-1.52-.417c-5.771-3.4-11.613-6.763-17.367-9.987a3,3,0,1,1,2.933-5.235c5.792,3.247,11.673,6.629,17.481,10.054a3,3,0,0,1-1.527,5.585ZM710.4,640.666a3,3,0,0,1-1.618-5.529c5.686-3.629,11.481-7.187,17.223-10.575a3,3,0,0,1,3.049,5.168c-5.683,3.352-11.417,6.873-17.043,10.464A2.982,2.982,0,0,1,710.4,640.666Zm553.483-2.463a2.983,2.983,0,0,1-1.4-.351c-5.913-3.138-11.9-6.225-17.8-9.176a3,3,0,0,1,2.683-5.366c5.944,2.973,11.976,6.082,17.93,9.242a3,3,0,0,1-1.409,5.651ZM745.021,620.246a3,3,0,0,1-1.432-5.638c5.931-3.215,11.969-6.344,17.945-9.3a3,3,0,1,1,2.66,5.378c-5.91,2.923-11.881,6.017-17.746,9.2A2.988,2.988,0,0,1,745.021,620.246Zm482.906-.018a2.987,2.987,0,0,1-1.272-.284c-6.065-2.845-12.2-5.625-18.235-8.263a3,3,0,1,1,2.4-5.5c6.082,2.66,12.266,5.462,18.378,8.329a3,3,0,0,1-1.275,5.716Zm-36.83-16.092a2.99,2.99,0,0,1-1.124-.22c-6.192-2.506-12.469-4.941-18.657-7.239a3,3,0,0,1,2.088-5.625c6.242,2.318,12.575,4.775,18.819,7.3a3,3,0,0,1-1.126,5.782Zm-410.049-1.7a3,3,0,0,1-1.228-5.739c6.153-2.754,12.413-5.41,18.61-7.894a3,3,0,0,1,2.232,5.569c-6.123,2.455-12.31,5.08-18.391,7.8A2.971,2.971,0,0,1,781.048,602.435Zm372.369-12.282a2.979,2.979,0,0,1-.959-.158c-6.337-2.137-12.747-4.187-19.052-6.094a3,3,0,0,1,1.737-5.743c6.365,1.925,12.836,4,19.233,6.152a3,3,0,0,1-.959,5.843Zm-335.076-2.668a3,3,0,0,1-1-5.828c6.338-2.249,12.793-4.391,19.184-6.367a3,3,0,1,1,1.772,5.732c-6.313,1.952-12.689,4.068-18.95,6.29A3.007,3.007,0,0,1,818.341,587.485Zm296.6-8.957a3.007,3.007,0,0,1-.775-.1c-6.448-1.721-12.977-3.344-19.4-4.825a3,3,0,0,1,1.347-5.847c6.494,1.5,13.089,3.136,19.6,4.875a3,3,0,0,1-.772,5.9Zm-258.227-2.9a3,3,0,0,1-.764-5.9c6.492-1.714,13.1-3.309,19.649-4.745a3,3,0,0,1,1.286,5.862c-6.465,1.416-12.994,2.992-19.4,4.684A2.993,2.993,0,0,1,856.719,575.625Zm219.065-6.113a3.029,3.029,0,0,1-.573-.055c-6.547-1.265-13.171-2.42-19.69-3.432a3,3,0,0,1,.92-5.929c6.592,1.024,13.289,2.191,19.909,3.47a3,3,0,0,1-.566,5.946Zm-179.836-2.484a3,3,0,0,1-.512-5.955c6.616-1.158,13.337-2.187,19.978-3.059a3,3,0,1,1,.781,5.949c-6.556.861-13.193,1.877-19.726,3.02A2.982,2.982,0,0,1,895.948,567.028Zm140.124-3.674a2.948,2.948,0,0,1-.35-.021c-6.62-.771-13.312-1.419-19.889-1.925a3,3,0,0,1,.461-5.983c6.654.513,13.424,1.168,20.122,1.948a3,3,0,0,1-.344,5.981ZM935.763,561.8a3,3,0,0,1-.261-5.989c6.674-.59,13.46-1.045,20.171-1.354a3,3,0,1,1,.275,5.993c-6.627.3-13.328.755-19.919,1.338C935.94,561.793,935.851,561.8,935.763,561.8ZM996,560.274c-.037,0-.074,0-.112,0-5.96-.218-11.984-.329-17.905-.329l-2.068,0H975.9a3,3,0,0,1-.012-6l2.093,0c6,0,12.092.112,18.125.333a3,3,0,0,1-.108,6Z" fill="#68a3c1"/>
      <path d="M1657.864,1397.742a3,3,0,0,1-2.789-4.1q1.846-4.668,3.638-9.294a3,3,0,1,1,5.594,2.168q-1.8,4.644-3.652,9.331A3,3,0,0,1,1657.864,1397.742Z" fill="#68a3c1"/>
    </g>
    <g>
      <path d="M1469.966,713.05c-2.4,54.149-56.689,114.468-56.689,114.468s-51.318-58.529-53.892-114.468c-1.722-37.416,24.754-59.067,55.29-59.067S1471.391,680.885,1469.966,713.05Z" fill="#68a3c1"/>
      <circle cx="1414.518" cy="712.394" r="33.773" fill="#494e6d"/>
    </g>
    <g>
      <path d="M557.615,989.944c-4.052,91.482-95.773,193.388-95.773,193.388s-86.7-98.882-91.049-193.388c-2.909-63.212,41.821-99.791,93.411-99.791S560.022,935.6,557.615,989.944Z" fill="#ffaa40"/>
      <circle cx="463.938" cy="988.836" r="57.057" fill="#e57d00"/>
    </g>
    <g>
      <path d="M1700.213,1394.723c-1.814,40.946-42.867,86.557-42.867,86.557s-38.806-44.258-40.752-86.557c-1.3-28.293,18.718-44.665,41.809-44.665S1701.29,1370.4,1700.213,1394.723Z" fill="#68a3c1"/>
      <circle cx="1658.284" cy="1394.227" r="25.538" fill="#494e6d"/>
    </g>
    <g>
      <g>
        <g>
          <path d="M1038.386,1208.425l-.065.3-.017.115c-3.27,15.691-6.621,32.22-9.973,49.11l-.246,1.232c-23.956,120.465-38.9,252.518-38.9,252.518l-51.361-2.028,7.834-400.546,56.864.69Z" fill="#494e6d"/>
          <polygon points="1202.382 1512.717 1141.961 1516.735 1038.327 1208.725 1015.432 1145.477 1014.913 1144.061 1002.522 1109.819 1119.442 1109.116 1132.081 1173.4 1202.382 1512.717" fill="#494e6d"/>
          <path d="M929.521,1559.777H878.177a25.672,25.672,0,0,1,51.344,0Z" fill="#fff"/>
          <path d="M1213.784,1575.185h-68.191a34.17,34.17,0,0,1,62.691-16.576v.008A33.906,33.906,0,0,1,1213.784,1575.185Z" fill="#fff"/>
          <path d="M929.521,1559.777H878.177a25.56,25.56,0,0,0,3.1,12.245h93.607v-12.245Z" fill="#19274a"/>
          <path d="M979.619,1519.1l-4.733,40.677H929.521a25.671,25.671,0,0,0-25.672-25.671s9.351-.782,19.1-.89c.766-.008,1.54-.015,2.3-.008,0,0,3.4,10.288,6.923,10.775a33.955,33.955,0,0,0,7.8-.132,14.212,14.212,0,0,0,5.283-1.454c2.762-1.779.395-11.122.395-11.122,1.91-3.752,0-12.175,0-12.175Z" fill="#ffaa40"/>
          <path d="M1208.284,1558.609a34.176,34.176,0,0,0-56.317-1.26l3.024-26.407h47.391Z" fill="#ffaa40"/>
          <polygon points="1039.307 1208.924 1037.836 1208.625 1037.449 1208.766 1037.348 1208.525 1037.353 1208.5 1014.492 1145.82 1016.371 1145.134 1039.425 1208.346 1039.307 1208.924" fill="#19274a"/>
          <path d="M946.473,1183.05l-1.636-2.515c.3-.2,29.865-20.046,34.48-71.117l2.989.271C977.551,1162.3,947.739,1182.228,946.473,1183.05Z" fill="#19274a"/>
          <path d="M1131.354,1174.708c-38.019-21.092-50.748-63.826-50.873-64.255l2.882-.834c.121.418,12.534,41.988,49.446,62.465Z" fill="#19274a"/>
          <path d="M945.261,1542.4a14.212,14.212,0,0,1-5.283,1.454c-2.622-2.622-3.612-8.144-3.929-10.527,3.8.031,6.745-.031,7.936-.456a3.081,3.081,0,0,0,1.671-1.593S948.023,1540.618,945.261,1542.4Z" fill="#494e6d"/>
          <path d="M939.978,1543.851a33.955,33.955,0,0,1-7.8.132c-3.519-.487-6.923-10.775-6.923-10.775,3.829,0,7.611.093,10.8.116C936.366,1535.707,937.356,1541.229,939.978,1543.851Z" fill="#494e6d"/>
          <path d="M1145.593,1575.185h68.19a0,0,0,0,1,0,0v2.2a8.855,8.855,0,0,1-8.855,8.855h-50.481a8.855,8.855,0,0,1-8.855-8.855v-2.2A0,0,0,0,1,1145.593,1575.185Z" fill="#19274a"/>
        </g>
        <g>
          <path d="M1009.4,874.21c1.065-.194,37.948.539,37.948.539s33.463.244,43.722,6.6c0,0-25.891,29.8-35.661,30.776s-31.754,4.886-38.593.489-8.305-1.954-8.793-10.259S1009.4,874.21,1009.4,874.21Z" fill="#494e6d"/>
          <path d="M1125.531,1110.824c-1.168,1.168-6.213,2.139-13.936,2.913-42.581,4.27-166.643,2.7-172.257-2.913-2.219-2.219-3.57-21.783-4.38-46.844,30.609.876,138.239,2.891,192.215-10.14-.007,10.439.227,20.579.351,29.354C1127.728,1097.874,1127.619,1108.736,1125.531,1110.824Z" fill="#ffac32"/>
          <path d="M1129.422,990.1c-.8,13.25-1.979,35.851-2.212,57.955q-.033,2.9-.037,5.781c-53.976,13.031-161.606,11.016-192.215,10.14-.7-21.535-1-47.143-1.117-69.291C966.618,997.572,1073.57,1005.369,1129.422,990.1Z" fill="#ffaa40"/>
          <path d="M1132.429,1133.417l-20.834-19.68c7.723-.774,12.768-1.745,13.936-2.913,2.088-2.088,2.2-12.95,1.993-27.63l38.062-72.985-33.4-20.893-2.613-1.635c-.044.766-.1,1.577-.146,2.423-55.852,15.265-162.8,7.468-195.581,4.585-.161-29.149.007-52.312.007-52.312-29.754-7.139-63.816-15.972-71.678-20.688-22.36-13.417-84.242-133.823-84.242-133.823l20.207-19.381,79.153,85.628c22.572,3.556,102.8,15.673,132.108,20.1,0,0,6.854,29.39,35.952,30.894,25.163,1.306,41.851-26.214,41.851-26.214,32.36,15.475,123.449,62.108,133.385,100.951C1229.971,1016.523,1132.429,1133.417,1132.429,1133.417Z" fill="#ffaa40"/>
          <rect x="882.709" y="851.601" width="2" height="18.923" transform="translate(-349.699 828.26) rotate(-42.733)" fill="#19274a"/>
          <path d="M1130.565,987.744l-2-.125c.366-5.848.622-9.341.622-9.341l1.995.147S1130.93,981.913,1130.565,987.744Z" fill="#19274a"/>
          <rect x="1168.323" y="1008.137" width="2.001" height="8.815" transform="translate(-309.063 1467.446) rotate(-57.993)" fill="#19274a"/>
          <rect x="872.086" y="963.514" width="125.312" height="2" transform="translate(-40.659 1887.889) rotate(-89.329)" fill="#19274a"/>
        </g>
        <g>
          <path d="M1061.89,842.09c-.614-.08-1.243-.2-1.893-.347-3.649,5.6-15.643,22.821-27.582,26.677a14.3,14.3,0,0,1-5.613.73c-32.465-2.723-27.728-44.057-26.183-53.661.871.458-.539,3.931,1.812,3.408,5.773-1.294,18.593-11.919,19.172-12.4q3.284,1.3,6.473,2.633,8.425,3.51,16.162,7.268,6.72,3.261,12.87,6.72c2.728-1.838,8.25-4.943,13.389-4.062a9.437,9.437,0,0,1,4.666,2.209c.206.171.408.358.6.554C1081.284,827.333,1077.242,844.214,1061.89,842.09Z" fill="#fd8680"/>
          <polygon points="1022.151 807.331 1021.603 806.495 1020.916 805.772 1021.534 806.391 1021.054 805.659 1021.534 806.391 1022.33 807.187 1022.151 807.331" fill="#2dea43"/>
          <path d="M1021.6,806.494c-.579.484-13.4,11.109-19.172,12.4-2.351.523-.941-2.95-1.812-3.408-3.529-1.872-12.881,11.637-14.683,8.169s11.351-13.152,9.639-16.323c-2.461-4.555-20.561,7.369-20.561,2.572,0-7.077,21.185-10.127,26.541-10.787q4.908,1.685,9.644,3.413Q1016.506,804.482,1021.6,806.494Z" fill="#8e3332"/>
          <path d="M1070.5,819.053c-5.139-.881-10.661,2.224-13.389,4.062q-6.145-3.459-12.87-6.72c2.723-5.562,7.424-13.152,10.1-17.36C1062.917,804.8,1069.571,811.669,1070.5,819.053Z" fill="#494e6d"/>
          <path d="M1019.167,783.285c-3.121,5.754-6.6,15.362-7.968,19.248q-4.734-1.73-9.644-3.413s3.478-15.331,9.1-17.058a11.519,11.519,0,0,1,4.42.277C1016.268,782.561,1017.642,782.878,1019.167,783.285Z" fill="#68a3c1"/>
          <path d="M1036.572,789.487a208.349,208.349,0,0,0-8.5,19.64q-3.186-1.336-6.473-2.633-5.089-2.016-10.4-3.961c1.364-3.886,4.847-13.494,7.968-19.248A127.4,127.4,0,0,1,1036.572,789.487Z" fill="#494e6d"/>
          <path d="M1054.34,799.035c-2.678,4.208-7.379,11.8-10.1,17.36q-7.724-3.76-16.162-7.268a208.349,208.349,0,0,1,8.5-19.64A114.006,114.006,0,0,1,1054.34,799.035Z" fill="#68a3c1"/>
          <path d="M1083.08,801.456c-.327-6.78-3.679-15.065-10.056-21.865a40.057,40.057,0,0,0-8.486-6.891,43.157,43.157,0,0,0-20.255-6.105c-17.113-.957-26.621,11.7-29.208,15.744,1.193.222,2.567.539,4.092.946a127.4,127.4,0,0,1,17.4,6.2,114.006,114.006,0,0,1,17.768,9.548c8.577,5.768,15.231,12.634,16.157,20.018a9.437,9.437,0,0,1,4.666,2.209C1077.494,817.16,1083.312,806.374,1083.08,801.456ZM1050.127,790.5c-1.988-.256-14.265-7.238-13.932-10.087.2-1.681,4.359-5.013,6.03-4.3s12.85,4.817,12.85,7.323S1052.12,790.755,1050.127,790.5Z" fill="#494e6d"/>
          <path d="M1073.024,779.591a40.057,40.057,0,0,0-8.486-6.891s3.307-4.781,8.486-1.092C1078.082,775.207,1073.024,779.591,1073.024,779.591Z" fill="#494e6d"/>
          <path d="M1055.075,783.431c0,2.507-2.955,7.324-4.948,7.067s-14.265-7.238-13.932-10.087c.2-1.681,4.359-5.013,6.03-4.3S1055.075,780.925,1055.075,783.431Z" fill="#fefefe"/>
          <path d="M1061.915,832.954l-1.6-1.2c.044-.06,4.557-5.957,11.5-3.514l-.664,1.886C1065.613,828.178,1062.062,832.758,1061.915,832.954Z" fill="#cc5754"/>
          <path d="M1061.89,842.09l-.135,35.346c-7.8,15.82-17.688,17.943-29.939,13.433l.6-22.449c11.939-3.856,23.933-21.08,27.582-26.677C1060.647,841.894,1061.276,842.01,1061.89,842.09Z" fill="#fd8680"/>
          <path d="M1032.415,868.42c6.715-2.169,13.449-8.567,18.7-14.747,0,0-1.568,15.52-19.3,25.243l.6-10.5v0Z" fill="#cc5754"/>
        </g>
        <path d="M803.011,773.94s-14.3-33.877-16.3-30.952,2.26,13.486,2.26,13.486l-5.99.778s-18.69-18.372-21.839-16.462,12.98,17.838,12.98,17.838S758.45,747,753.753,748.134s14.694,16.225,14.694,16.225-14.408-9.542-16.909-7.452,26.65,32.1,26.65,32.1Z" fill="#fd8680"/>
        <polygon points="1132.429 1133.417 1114.026 1160.286 1091.555 1130.975 1111.595 1113.737 1132.429 1133.417" fill="#fd8680"/>
      </g>
      <polygon points="945.656 1519.1 945.656 1509.976 979.619 1511.318 979.619 1519.1 945.656 1519.1" fill="#fd8680"/>
      <polygon points="1155.366 1515.843 1154.991 1530.942 1202.382 1530.942 1198.095 1513.002 1155.366 1515.843" fill="#fd8680"/>
    </g>
  </g>
</svg>
